<svg width="32" height="32" viewBox="0 0 32 32" fill="none" xmlns="http://www.w3.org/2000/svg">
<path fill-rule="evenodd" clip-rule="evenodd" d="M15.8 3.2L15.5154 2.06155L15 0L14.4846 2.06155L14.2 3.2L13.0616 3.48461L11 4L13.0616 4.51539L14.2 4.8L14.4846 5.93845L15 8L15.5154 5.93845L15.8 4.8L16.9384 4.51539L19 4L16.9384 3.48461L15.8 3.2ZM11.5133 27.8855L15.5133 10.8855L16.4867 11.1145L12.4867 28.1145L11.5133 27.8855ZM10.3089 14.3932L3.8093 19.5L10.3089 24.6068L9.69109 25.3932L2.69109 19.8932C2.57044 19.7984 2.5 19.6534 2.5 19.5C2.5 19.3466 2.57044 19.2016 2.69109 19.1068L9.69109 13.6068L10.3089 14.3932ZM17.6621 14.3686L23.2601 19.5L17.6621 24.6314L18.3379 25.3686L24.3379 19.8686C24.4412 19.7739 24.5 19.6402 24.5 19.5C24.5 19.3598 24.4412 19.2261 24.3379 19.1314L18.3379 13.6314L17.6621 14.3686ZM28.5154 14.0616L28.8 15.2L29.9384 15.4846L32 16L29.9384 16.5154L28.8 16.8L28.5154 17.9384L28 20L27.4846 17.9384L27.2 16.8L26.0616 16.5154L24 16L26.0616 15.4846L27.2 15.2L27.4846 14.0616L28 12L28.5154 14.0616ZM24.5154 4.06155L25 6L26.9384 6.48461L29 7L26.9384 7.51539L25 8L24.5154 9.93845L24 12L23.4846 9.93845L23 8L21.0616 7.51539L19 7L21.0616 6.48461L23 6L23.4846 4.06155L24 2L24.5154 4.06155ZM24.7575 6.97014L24.8769 7L24.7575 7.02986L24.1754 7.17538L24.0299 7.75746L24 7.87689L23.9701 7.75746L23.8246 7.17538L23.2425 7.02986L23.1231 7L23.2425 6.97014L23.8246 6.82462L23.9701 6.24254L24 6.12311L24.0299 6.24254L24.1754 6.82462L24.7575 6.97014Z" fill="black"/>
</svg>
