<svg width="32" height="32" viewBox="0 0 32 32" fill="none" xmlns="http://www.w3.org/2000/svg">
<path fill-rule="evenodd" clip-rule="evenodd" d="M15.8 3.2L15.5154 2.06155L15 0L14.4846 2.06155L14.2 3.2L13.0616 3.48461L11 4L13.0616 4.51539L14.2 4.8L14.4846 5.93845L15 8L15.5154 5.93845L15.8 4.8L16.9384 4.51539L19 4L16.9384 3.48461L15.8 3.2ZM3.5 18.0374C3.5 13.7471 7.67305 10.5 12.5189 10.5C17.3746 10.5 21.4638 13.8292 21.4638 18.0374V18.0378V18.0382V18.0387V18.0391V18.0396V18.04V18.0404V18.0409V18.0413V18.0417V18.0422V18.0426V18.043V18.0435V18.0439V18.0443V18.0448V18.0452V18.0456V18.0461V18.0465V18.0469V18.0474V18.0478V18.0482V18.0487V18.0491V18.0495V18.05V18.0504V18.0508V18.0513V18.0517V18.0521V18.0526V18.053V18.0534V18.0539V18.0543V18.0547V18.0552V18.0556V18.056V18.0565V18.0569V18.0573V18.0578V18.0582V18.0586V18.0591V18.0595V18.06V18.0604V18.0608V18.0613V18.0617V18.0621V18.0626V18.063V18.0634V18.0639V18.0643V18.0647V18.0652V18.0656V18.066V18.0665V18.0669V18.0673V18.0678V18.0682V18.0686V18.0691V18.0695V18.0699V18.0704V18.0708V18.0712V18.0717V18.0721V18.0725V18.073V18.0734V18.0738V18.0743V18.0747V18.0751V18.0756V18.076V18.0764V18.0769V18.0773V18.0777V18.0782V18.0786V18.0791V18.0795V18.0799V18.0804V18.0808V18.0812V18.0817V18.0821V18.0825V18.083V18.0834V18.0838V18.0843V18.0847V18.0851V18.0856V18.086V18.0864V18.0869V18.0873V18.0877V18.0882V18.0886V18.089V18.0895V18.0899V18.0903V18.0908V18.0912V18.0916V18.0921V18.0925V18.0929V18.0934V18.0938V18.0942V18.0947V18.0951V18.0955V18.096V18.0964V18.0968V18.0973V18.0977V18.0981V18.0986V18.099V18.0994V18.0999V18.1003V18.1008V18.1012V18.1016V18.1021V18.1025V18.1029V18.1034V18.1038V18.1042V18.1047V18.1051V18.1055V18.106V18.1064V18.1068V18.1073V18.1077V18.1081V18.1086V18.109V18.1094V18.1099V18.1103V18.1107V18.1112V18.1116V18.112V18.1125V18.1129V18.1133V18.1138V18.1142V18.1146V18.1151V18.1155V18.1159V18.1164V18.1168V18.1172V18.1177V18.1181V18.1185V18.119V18.1194V18.1199V18.1203V18.1207V18.1212V18.1216V18.122V18.1225V18.1229V18.1233V18.1238V18.1242V18.1246V18.1251V18.1255V18.1259V18.1264V18.1268V18.1272V18.1277V18.1281V18.1285V18.129V18.1294V18.1298V18.1303V18.1307V18.1311V18.1316V18.132V18.1324V18.1329V18.1333V18.1337V18.1342V18.1346V18.135V18.1355V18.1359V18.1363V18.1368V18.1372V18.1376V18.1381V18.1385V18.1389V18.1394V18.1398V18.1403V18.1407V18.1411V18.1416V18.142V18.1424V18.1429V18.1433V18.1437V18.1442V18.1446V18.145V18.1455V18.1459V18.1463V18.1468V18.1472V18.1476V18.1481V18.1485V18.1489V18.1494V18.1498V18.1502V18.1507V18.1511V18.1515V18.152V18.1524V18.1528V18.1533V18.1537V18.1541V18.1546V18.155V18.1554V18.1559V18.1563V18.1567V18.1572V18.1576V18.158V18.1585V18.1589V18.1593V18.1598V18.1602V18.1607V18.1611V18.1615V18.162V18.1624V18.1628V18.1633V18.1637V18.1641V18.1646V18.165V18.1654V18.1659V18.1663V18.1667V18.1672V18.1676V18.168V18.1685V18.1689V18.1693V18.1698V18.1702V18.1706V18.1711V18.1715V18.1719V18.1724V18.1728V18.1732V18.1737V18.1741V18.1745V18.175V18.1754V18.1758V18.1763V18.1767V18.1771V18.1776V18.178V18.1784V18.1789V18.1793V18.1797V18.1802V18.1806V18.1811V18.1815V18.1819V18.1824V18.1828V18.1832V18.1837V18.1841V18.1845V18.185V18.1854V18.1858V18.1863V18.1867V18.1871V18.1876V18.188V18.1884V18.1889V18.1893V18.1897V18.1902V18.1906V18.191V18.1915V18.1919V18.1923V18.1928V18.1932V18.1936V18.1941V18.1945V18.1949V18.1954V18.1958V18.1962V18.1967V18.1971V18.1975V18.198V18.1984V18.1988V18.1993V18.1997V18.2001V18.2006V18.201V18.2015V18.2019V18.2023V18.2028V18.2032V18.2036V18.2041V18.2045V18.2049V18.2054V18.2058V18.2062V18.2067V18.2071V18.2075V18.208V18.2084V18.2088V18.2093V18.2097V18.2101V18.2106V18.211V18.2114V18.2119V18.2123V18.2127V18.2132V18.2136V18.214V18.2145V18.2149V18.2153V18.2158V18.2162V18.2166V18.2171V18.2175V18.2179V18.2184V18.2188V18.2192V18.2197V18.2201V18.2205V18.221V18.2214V18.2219V18.2223V18.2227V18.2232V18.2236V18.224V18.2245V18.2249V18.2253V18.2258V18.2262V18.2266V18.2271V18.2275V18.2279V18.2284V18.2288V18.2292V18.2297V18.2301V18.2305V18.231V18.2314V18.2318V18.2323V18.2327V18.2331V18.2336V18.234V18.2344V18.2349V18.2353V18.2357V18.2362V18.2366V18.237V18.2375V18.2379V18.2383V18.2388V18.2392V18.2396V18.2401V18.2405V18.2409V18.2414V18.2418V18.2423V18.2427V18.2431V18.2436V18.244V18.2442C23.2723 19.2248 24.5 20.9384 24.5 22.9405C24.5 24.2611 23.9606 25.5093 23.0149 26.4396L24.0383 29.1261C24.1077 29.3084 24.0648 29.5145 23.9283 29.6539C23.7917 29.7933 23.5866 29.8405 23.4028 29.7749L19.4993 28.3808C16.8254 28.579 14.7996 28.0326 13.4246 27.0159C12.8368 26.5813 12.3762 26.0663 12.0394 25.5007C11.4917 25.5007 10.919 25.4997 10.2809 25.4356L4.83047 27.325C4.64685 27.3887 4.44298 27.3402 4.3077 27.2007C4.17243 27.0611 4.13027 26.8558 4.19959 26.6743L5.63541 22.9138C4.28732 21.5949 3.5 19.8603 3.5 18.0374ZM12.5189 11.5C16.8941 11.5 20.3038 14.4032 20.4583 17.7969C19.6724 17.5174 18.8139 17.364 17.9225 17.364C14.3775 17.364 11.345 19.7208 11.345 22.9405C11.345 23.472 11.425 23.997 11.5869 24.4991C11.1621 24.4951 10.738 24.4808 10.2777 24.4297C10.2038 24.4215 10.129 24.4298 10.0588 24.4542L5.51644 26.0289L6.68944 22.9567C6.76337 22.7631 6.71018 22.5439 6.55573 22.4057C5.24317 21.2313 4.5 19.6588 4.5 18.0374C4.5 14.4754 8.03103 11.5 12.5189 11.5ZM17.9225 18.364C14.7464 18.364 12.345 20.4402 12.345 22.9405C12.345 24.1815 12.8817 25.3707 14.0191 26.2118C15.1639 27.0583 16.9631 27.5835 19.5266 27.3757C19.5973 27.37 19.6684 27.3793 19.7352 27.4032L22.7176 28.4683L21.9598 26.479C21.8846 26.2819 21.9414 26.0587 22.1016 25.9214C22.9959 25.1549 23.5 24.0763 23.5 22.9405C23.5 20.5076 21.0936 18.364 17.9225 18.364ZM28.5154 14.0616L28.8 15.2L29.9384 15.4846L32 16L29.9384 16.5154L28.8 16.8L28.5154 17.9384L28 20L27.4846 17.9384L27.2 16.8L26.0616 16.5154L24 16L26.0616 15.4846L27.2 15.2L27.4846 14.0616L28 12L28.5154 14.0616ZM24.5154 4.06155L25 6L26.9384 6.48461L29 7L26.9384 7.51539L25 8L24.5154 9.93845L24 12L23.4846 9.93845L23 8L21.0616 7.51539L19 7L21.0616 6.48461L23 6L23.4846 4.06155L24 2L24.5154 4.06155ZM24.7575 6.97014L24.8769 7L24.7575 7.02986L24.1754 7.17538L24.0299 7.75746L24 7.87689L23.9701 7.75746L23.8246 7.17538L23.2425 7.02986L23.1231 7L23.2425 6.97014L23.8246 6.82462L23.9701 6.24254L24 6.12311L24.0299 6.24254L24.1754 6.82462L24.7575 6.97014Z" fill="black"/>
</svg>
