<svg width="32" height="32" viewBox="0 0 32 32" fill="none" xmlns="http://www.w3.org/2000/svg">
<g clip-path="url(#clip0_3269_395)">
<path fill-rule="evenodd" clip-rule="evenodd" d="M15.8 3.2L15.5154 2.06155L15 0L14.4846 2.06155L14.2 3.2L13.0616 3.48461L11 4L13.0616 4.51539L14.2 4.8L14.4846 5.93845L15 8L15.5154 5.93845L15.8 4.8L16.9385 4.51539L19 4L16.9385 3.48461L15.8 3.2ZM21.4026 12.0168C20.9798 11.547 20.19 11.5188 19.6729 12.0359L18.5373 13.1715L20.2913 14.9255L21.4188 13.7856C21.4256 13.7787 21.4326 13.772 21.4398 13.7656C21.9096 13.3428 21.9378 12.5529 21.4207 12.0359L21.4108 12.0256L21.4026 12.0168ZM6.97838 24.7304L17.8302 13.8786L19.5881 15.6365L8.795 26.5489L5.71592 27.8108L6.97838 24.7304ZM22.137 11.338C21.296 10.415 19.8484 10.4461 18.9658 11.3287L6.20026 24.0943C6.15339 24.1412 6.1163 24.1969 6.09116 24.2582L4.33766 28.5368C4.26122 28.7233 4.30424 28.9374 4.44675 29.0799C4.58927 29.2225 4.80342 29.2655 4.98992 29.189L9.26848 27.4355C9.33067 27.4101 9.38709 27.3723 9.43436 27.3245L22.1202 14.4985C23.0383 13.6601 23.0101 12.2209 22.137 11.338ZM28.5154 14.0616L28.8 15.2L29.9385 15.4846L32 16L29.9385 16.5154L28.8 16.8L28.5154 17.9384L28 20L27.4846 17.9384L27.2 16.8L26.0616 16.5154L24 16L26.0616 15.4846L27.2 15.2L27.4846 14.0616L28 12L28.5154 14.0616ZM24.5154 4.06155L25 6L26.9385 6.48461L29 7L26.9385 7.51539L25 8L24.5154 9.93845L24 12L23.4846 9.93845L23 8L21.0616 7.51539L19 7L21.0616 6.48461L23 6L23.4846 4.06155L24 2L24.5154 4.06155ZM24.7575 6.97014L24.8769 7L24.7575 7.02986L24.1754 7.17538L24.0299 7.75746L24 7.87689L23.9702 7.75746L23.8246 7.17538L23.2425 7.02986L23.1231 7L23.2425 6.97014L23.8246 6.82462L23.9702 6.24254L24 6.12311L24.0299 6.24254L24.1754 6.82462L24.7575 6.97014Z" fill="black"/>
</g>
<defs>
<clipPath id="clip0_3269_395">
<rect width="32" height="32" fill="white"/>
</clipPath>
</defs>
</svg>
