<svg width="32" height="32" viewBox="0 0 32 32" fill="none" xmlns="http://www.w3.org/2000/svg">
<path fill-rule="evenodd" clip-rule="evenodd" d="M15.8 3.2L15.5154 2.06155L15 0L14.4846 2.06155L14.2 3.2L13.0616 3.48461L11 4L13.0616 4.51539L14.2 4.8L14.4846 5.93845L15 8L15.5154 5.93845L15.8 4.8L16.9385 4.51539L19 4L16.9385 3.48461L15.8 3.2ZM14.4851 9.87873L14 7.93845L13.515 9.87873L11.9877 15.9877L5.87876 17.5149L3.93848 18L5.87876 18.4851L11.9877 20.0123L13.515 26.1213L14 28.0616L14.4851 26.1213L16.0123 20.0123L22.1213 18.4851L24.0616 18L22.1213 17.5149L16.0123 15.9877L14.4851 9.87873ZM12.8851 16.5213L14 12.0616L15.115 16.5213L15.1877 16.8123L15.4788 16.8851L19.9385 18L15.4788 19.1149L15.1877 19.1877L15.115 19.4787L14 23.9384L12.8851 19.4787L12.8123 19.1877L12.5213 19.1149L8.06158 18L12.5213 16.8851L12.8123 16.8123L12.8851 16.5213ZM28.5154 14.0616L28.8 15.2L29.9385 15.4846L32 16L29.9385 16.5154L28.8 16.8L28.5154 17.9384L28 20L27.4846 17.9384L27.2 16.8L26.0616 16.5154L24 16L26.0616 15.4846L27.2 15.2L27.4846 14.0616L28 12L28.5154 14.0616ZM24.5154 4.06155L25 6L26.9385 6.48461L29 7L26.9385 7.51539L25 8L24.5154 9.93845L24 12L23.4846 9.93845L23 8L21.0616 7.51539L19 7L21.0616 6.48461L23 6L23.4846 4.06155L24 2L24.5154 4.06155ZM24.7575 6.97014L24.8769 7L24.7575 7.02986L24.1754 7.17538L24.0299 7.75746L24 7.87689L23.9702 7.75746L23.8246 7.17538L23.2426 7.02986L23.1231 7L23.2426 6.97014L23.8246 6.82462L23.9702 6.24254L24 6.12311L24.0299 6.24254L24.1754 6.82462L24.7575 6.97014Z" fill="black"/>
</svg>
