<svg xmlns="http://www.w3.org/2000/svg" viewBox="0 0 32 32" fill="none" stroke="#000">
  <circle cx="16" cy="16" r="3.382" />
  <circle cx="16" cy="16" r="6.357" />
  <path d="M8.417 23.583l3.088-3.088M23.583 8.417l-3.088 3.088M23.583 23.583l-3.088-3.088M11.505 11.505L8.417 8.417"/>
  <circle cx="25.129" cy="6.871" r="2.136" />
  <circle cx="6.871" cy="25.129" r="2.136" />
  <circle cx="25.129" cy="25.129" r="2.136" />
  <circle cx="6.871" cy="6.871" r="2.136" />
  <line stroke-linecap="round" x1="0" y1="0" x2="0" y2="0" transform="translate(16, 27.911) scale(1.6)" />
  <line stroke-linecap="round" x1="0" y1="0" x2="0" y2="0" transform="translate(16, 4.089) scale(1.6)" />
  <line stroke-linecap="round" x1="0" y1="0" x2="0" y2="0" transform="translate(4.089, 16) scale(1.6)" />
  <line stroke-linecap="round" x1="0" y1="0" x2="0" y2="0" transform="translate(27.911, 16) scale(1.6)" />
  <line stroke-linecap="round" x1="0" y1="0" x2="0" y2="0" transform="translate(16, 24.911) scale(1.6)" />
  <line stroke-linecap="round" x1="0" y1="0" x2="0" y2="0" transform="translate(16, 7.089) scale(1.6)" />
  <line stroke-linecap="round" x1="0" y1="0" x2="0" y2="0" transform="translate(7.089, 16) scale(1.6)" />
  <line stroke-linecap="round" x1="0" y1="0" x2="0" y2="0" transform="translate(24.911, 16) scale(1.6)" />
</svg>
