<svg xmlns="http://www.w3.org/2000/svg" viewBox="0 0 32 32"
    stroke="#000" fill="none" stroke-linejoin="round">
  <circle cx="16" cy="12.4" r="4.2" />
  <path d="M16.9 3.3l.4-.3c.8-.6 1.9-.3 2.3.6l.2.5c.3.6.9 1 1.5.9h.5c1-.1 1.8.7 1.7 1.7l-.1.5c-.1.7.3 1.3.9 1.5l.5.2c
  .9.4 1.2 1.5.6 2.3l-.3.4c-.4.5-.4 1.3 0 1.8l.3.4c.6.8.3 1.9-.6 2.3l-.5.2c-.6.3-1 .9-.9 1.5l.1.5c.1 1-.7 1.8-1.7 1.7l
  -.5-.1c-.7-.1-1.3.3-1.5.9l-.2.5c-.4.9-1.5 1.2-2.3.6l-.4-.3c-.5-.4-1.3-.4-1.8 0l-.4.3c-.8.6-1.9.3-2.3-.6l-.2-.5c-.3-.6
  -.9-1-1.5-.9l-.5.1c-1 .1-1.8-.7-1.7-1.7l.1-.5c.1-.7-.3-1.3-.9-1.5l-.5-.3c-.9-.4-1.2-1.5-.6-2.3l.3-.4c.4-.5.4-1.3 0
  -1.8l-.3-.4c-.6-.7-.3-1.8.6-2.2l.5-.2c.6-.3 1-.9.9-1.5l-.1-.6c-.1-1 .7-1.8 1.7-1.7l.5.1c.7.1 1.3-.3 1.5-.9l.2-.5c.4
  -.9 1.5-1.2 2.3-.6l.4.3c.5.4 1.3.4 1.8 0zM8.4 20.9l-2.9 5.5 3.8-.6 1.7 3.4 3-5.8M18.1 23.6l2.9 5.6 1.7-3.4 3.8.6-3
  -5.7" />
</svg>
