<svg xmlns="http://www.w3.org/2000/svg" viewBox="0 0 32 32" fill="none" stroke="#000" stroke-linejoin="round" stroke-miterlimit="10">
  <path d="M19.142 25.184c0 1.736-1.407 3.142-3.142 3.142-1.736 0-3.142-1.407-3.142-3.142M25.612 21.603c-.38-.741-.578
  -1.563-.578-2.396V15.21c0-4.133-2.779-7.611-6.568-8.685.016-.115.035-.23.035-.35 0-1.381-1.12-2.501-2.501-2.501-1.381 
  0-2.501 1.12-2.501 2.501 0 .12.019.234.035.35-3.789 1.074-6.568 4.552-6.568 8.685v3.997c0 .833-.198 1.654-.578 
  2.396L5.29 23.746c-.341.665.142 1.455.89 1.455h19.64c.747 0 1.23-.79.89-1.455l-1.098-2.143z"/>
</svg>
