<svg xmlns="http://www.w3.org/2000/svg" viewBox="0 0 32 32" fill="none" stroke="#000">
<path d="M11.5 23.9722H16.9604C17.7831 23.9722 18.5234 23.8796 19.1816 23.6945C19.8397 23.5094 20.3984 23.2318 20.8577 22.8616C21.3171 22.4914 21.6701 22.0321 21.9169 21.4837C22.1637 20.9352 22.2871 20.3011 22.2871 19.5813C22.2871 19.2042 22.2357 18.8409 22.1329 18.4913C22.0369 18.1348 21.8861 17.8057 21.6804 17.5041C21.4816 17.223 21.2348 16.9762 20.94 16.7637C20.6521 16.5512 20.2613 16.3764 19.7677 16.2393V16.229C20.0214 16.133 20.251 16.0165 20.4567 15.8794C20.6692 15.7423 20.8577 15.5915 21.0223 15.4269C21.3239 15.1253 21.5501 14.7757 21.701 14.3781C21.8586 13.9736 21.9409 13.5451 21.9478 13.0927C21.9478 12.3934 21.8175 11.7867 21.557 11.2726C21.3033 10.7584 20.94 10.3334 20.467 9.99746C19.9939 9.66154 19.4215 9.41132 18.7497 9.24679C18.0847 9.08226 17.3443 9 16.5285 9H11.5L11.5 16.229L11.5 23.9722Z" />
<path d="M20.1359 16.229H11.886" />
</svg>
