<svg xmlns="http://www.w3.org/2000/svg" viewBox="0 0 32 32" fill="none" stroke="#000">
<path d="M9.5 27.5278H17.1689C18.3243 27.5278 19.3642 27.3979 20.2885 27.1379C21.2128 26.8779 21.9975 26.488 22.6426 25.9681C23.2877 25.4482 23.7835 24.8031 24.1302 24.0328C24.4768 23.2626 24.6501 22.372 24.6501 21.361C24.6501 20.8315 24.5779 20.3212 24.4334 19.8301C24.2986 19.3295 24.0868 18.8673 23.798 18.4437C23.5188 18.0489 23.1721 17.7023 22.7581 17.4039C22.3537 17.1054 21.8049 16.8599 21.1117 16.6673V16.6529C21.4679 16.5181 21.7905 16.3544 22.0793 16.1618C22.3778 15.9693 22.6426 15.7574 22.8737 15.5264C23.2973 15.1027 23.615 14.6117 23.8269 14.0533C24.0483 13.4852 24.1639 12.8834 24.1735 12.248C24.1735 11.2659 23.9905 10.4138 23.6247 9.69172C23.2684 8.96961 22.7581 8.37267 22.0938 7.90089C21.4294 7.42911 20.6255 7.07769 19.6819 6.84661C18.748 6.61554 17.7081 6.5 16.5623 6.5H9.5L9.50002 16.6529L9.5 27.5278Z" />
<path d="M21.0421 16.6528H9.04211" />
</svg>
