<svg xmlns="http://www.w3.org/2000/svg" viewBox="0 0 32 32"
    fill="none" stroke="#000" stroke-linejoin="round" stroke-miterlimit="10">
  <path  d="M11.608 3.405H3.815c-.66 0-1.2.54-1.2 1.2v7.793c0 .66.54 1.2 1.2 1.2h7.793c.66 0 1.2-.54 1.2-1.2v-3.62M4.155
   8.212l3.538 3.29 6.462-7.477M11.608 18.402H3.815c-.66 0-1.2.54-1.2 1.2v7.793c0 .66.54 1.2 1.2 1.2h7.793c.66 0 1.2-.54
    1.2-1.2v-3.62M4.155 23.209l3.538 3.29 6.462-7.477M26.838 3.405h-7.793c-.66 0-1.2.54-1.2 1.2v7.793c0 .66.54 1.2 1.2 
    1.2h7.793c.66 0 1.2-.54 1.2-1.2v-3.62M19.385 8.212l3.538 3.29 6.462-7.477M26.838 18.402h-7.793c-.66 0-1.2.54-1.2 
    1.2v7.793c0 .66.54 1.2 1.2 1.2h7.793c.66 0 1.2-.54 1.2-1.2v-7.793c0-.66-.54-1.2-1.2-1.2z"/>
</svg>
