<svg xmlns="http://www.w3.org/2000/svg" viewBox="0 0 32 32"
    fill="none" stroke="#000" stroke-linejoin="round" stroke-miterlimit="10">
  <path d="M23.276 22.691c3.587-.449 6.36-3.501 6.36-7.209 0-4.018-3.255-7.273-7.273-7.273-.154 0-.309.009-.463.027
  -1.119-3.191-4.146-5.481-7.718-5.481C9.665 2.754 6 6.417 6 10.936c0 .409.037.8.101 1.191-2.173.718-3.737 2.763-3.737 
  5.173 0 3.008 2.447 5.455 5.455 5.455M13.171 28.671v-9.929M10.011 21.902l3.16-3.16 3.159 3.16M19.452 19.316v9.93
  M22.611 26.086l-3.159 3.16-3.16-3.16"/>
</svg>
