<svg xmlns="http://www.w3.org/2000/svg" fill="none" stroke="#000" viewBox="0 0 32 32">
<path d="M3.70986 20C2.87175 19.0409 2.36304 17.7862 2.36304 16.415C2.36304 14.006 3.92804 11.96 6.10104 11.243C6.03704 10.852 6.00004 10.461 6.00004 10.052C6.00004 5.533 9.66504 1.87 14.182 1.87C17.754 1.87 20.782 4.16 21.9 7.352C22.054 7.334 22.209 7.325 22.363 7.325C26.381 7.325 29.636 10.58 29.636 14.598C29.636 16.3409 29.0227 17.9392 28 19.1903" stroke-miterlimit="10" stroke-linejoin="round"/>
<path d="M18.0249 19.7256V14.7594C18.0249 14.0719 17.4624 13.51 16.7755 13.51H9.27678C8.58803 13.51 8.0249 14.0731 8.0249 14.7619V22.2619C8.0249 22.9481 8.58678 23.51 9.27303 23.51H11.578" stroke="black" stroke-miterlimit="10" stroke-linejoin="round"/>
<path d="M8.39233 13.8776L15.3886 20.8738" stroke-miterlimit="10" stroke-linejoin="round"/>
<path d="M23.5192 20.165H21.3911C21.1404 20.165 20.9348 20.37 20.9348 20.6213V22.7494C20.9348 23 21.1398 23.2057 21.3911 23.2057H23.5192C23.7698 23.2057 23.9754 23.0007 23.9754 22.7494V20.6213C23.9748 20.37 23.7698 20.165 23.5192 20.165Z" stroke-miterlimit="10" stroke-linejoin="round"/>
<path d="M16.3649 23.8069H14.2368C13.9861 23.8069 13.7805 24.0119 13.7805 24.2631V26.3913C13.7805 26.6419 13.9855 26.8475 14.2368 26.8475H16.3649C16.6155 26.8475 16.8211 26.6425 16.8211 26.3913V24.2625C16.8211 24.0119 16.6155 23.8069 16.3649 23.8069Z" stroke-miterlimit="10" stroke-linejoin="round"/>
<path d="M23.5036 27.45H21.3754C21.1248 27.45 20.9192 27.655 20.9192 27.9062V30.0343C20.9192 30.285 21.1242 30.4906 21.3754 30.4906H23.5036C23.7542 30.4906 23.9598 30.2856 23.9598 30.0343V27.9062C23.9592 27.655 23.7542 27.45 23.5036 27.45Z" stroke-miterlimit="10" stroke-linejoin="round"/>
<path d="M16.821 25.375H18.7817V22.0644C18.7817 21.855 18.951 21.6857 19.1604 21.6857H20.9348" stroke-miterlimit="10" stroke-linejoin="round"/>
<path d="M20.9192 28.97H19.1598C18.951 28.97 18.7817 28.8006 18.7817 28.5919V25.375H16.821" stroke-miterlimit="10" stroke-linejoin="round"/>
</svg>
