<svg xmlns="http://www.w3.org/2000/svg" viewBox="0 0 32 32"
    fill="none" stroke="#000" stroke-linejoin="round">
  <path d="M8.28 3.949H4v24.102h4.28M23.72 28.051H28V3.949h-4.28M8.28 3.949H4v24.102h4.28M23.72 28.051H28V3.949h-4.28
  M13.109 5.811c-.936.303-1.62.825-2.051 1.568-.431.744-.647 1.642-.647 2.695v2.518c0 .81-.168 1.513-.503 2.11-.335.596
  -.846 1.03-1.531 1.303.685.288 1.196.732 1.531 1.334.335.601.503 1.303.503 2.108v2.501c0 1.055.219 1.946.658 2.673.438
  .726 1.129 1.245 2.073 1.555M18.858 26.175c.936-.309 1.625-.828 2.068-1.555.442-.726.663-1.618.663-2.673v-2.501c0-.826
  .173-1.538.519-2.135.347-.598.885-1.029 1.614-1.296-.73-.258-1.268-.685-1.614-1.281-.346-.597-.519-1.311-.519-2.143v
  -2.518c0-1.06-.216-1.96-.647-2.7-.431-.74-1.115-1.26-2.051-1.563"/>
</svg>
