<svg xmlns="http://www.w3.org/2000/svg" viewBox="0 0 32 32"
  stroke="#000" fill="none" stroke-linejoin="round" stroke-miterlimit="10">
  <path d="M25.267 10.121l1.702-2.26-2.924-2.899-2.266 1.726-3.35-1.373-.344-2.813-4.178.002-.366 2.814-3.41 1.416-2.253
  -1.715-2.891 2.903 1.725 2.207-1.435 3.413-2.771.352-.006 4.173 2.76.343 1.414 3.418-1.665 2.281 2.927 2.916 2.257
  -1.703 3.358 1.38.362 2.796 4.18-.001.373-2.804 3.378-1.403 2.289 1.683 2.903-2.924-1.712-2.245 1.392-3.366 2.784-.364
  -.006-4.184-2.792-.366zM15.165 23.155c.274.031.552.046.835.046 4.149 0 7.513-3.364 7.513-7.513S20.149 8.175 16 8.175s
  -7.513 3.364-7.513 7.513c0 2.58 1.358 5.048 3.339 6.4M17.307 20.769l-2.142 2.386 2.423 2.195"/>
</svg>
