<svg xmlns="http://www.w3.org/2000/svg" viewBox="0 0 32 32"
    fill="none" stroke="#000" stroke-linejoin="round" stroke-miterlimit="10" >
  <path d="M24.425 10.655l1.547-2.054-2.658-2.636-2.061 1.569-3.045-1.248-.312-2.557-3.799.001-.333 2.559-3.099 1.287
  -2.049-1.559-2.629 2.639 1.569 2.007-1.304 3.103-2.52.32-.005 3.793 2.509.312 1.286 3.107-1.514 2.074 2.661 2.651
  2.052-1.548 3.053 1.254.328 2.542 3.801-.001.339-2.548 3.071-1.276 2.08 1.53 2.64-2.659-1.556-2.04 1.265-3.061 2.531
  -.33-.005-3.804-2.539-.333z"/>
  <path class="text" fill="black" stroke="none" stroke-linejoin="miter" d="M13.816 17.389h-2.203l-.461 1.324h-1.027l
  2.148-5.688h.887l2.152 5.688h-1.031l-.465-1.324zm-1.925-.798h1.648l-.824-2.359-.824 2.359zM16.945 16.603v2.11h-.988v
  -5.688h2.176c.635 0 1.141.166 1.514.497s.561.769.561 1.314c0 .558-.184.992-.549 1.302s-.879.465-1.537.465h-1.177zm0
  -.797h1.188c.352 0 .619-.083.805-.248s.277-.404.277-.717c0-.307-.094-.553-.281-.736s-.445-.278-.773-.283h-1.215v1.984z
  M22.113 18.713h-.984v-5.688h.984v5.688z"/>
</svg>
