<svg xmlns="http://www.w3.org/2000/svg" viewBox="0 0 32 32"
    fill="none" stroke="#000" stroke-linejoin="round" stroke-miterlimit="10">
  <path d="M9.71 5.94c-5.64 4-6.96 11.71-2.97 17.35 3.99 5.65 11.71 6.97 17.35 2.97.9-.64 1.14-1.99.5-2.89-.32-.45-.67
  -.71-1.25-.81-.46-.18-.92-.36-1.24-.81-.64-.9-.41-2.26.49-2.9l2.03-1.44c3.17-2.24 3.89-6.47 1.65-9.64-3.52-4.95-10.91
  -5.82-16.56-1.83zm3.49 17.27c-1.29.91-3.2.58-4.11-.7-.91-1.29-.58-3.2.7-4.11 1.28-.91 3.2-.58 4.11.7.91 1.29.58 3.2
  -.7 4.11zm-1.6-8.26c-1.1.78-2.73.5-3.51-.6-.78-1.1-.5-2.73.6-3.51 1.1-.78 2.73-.5 3.51.6.78 1.1.5 2.73-.6 3.51zm4.93
  -5.36c-.9.64-2.25.41-2.89-.5-.64-.9-.41-2.25.5-2.89.9-.64 2.25-.41 2.89.5.64.9.41 2.25-.5 2.89zm6.42 1.01c-.78.55-1.94
  .36-2.5-.42-.55-.78-.35-1.94.43-2.49.77-.55 1.94-.35 2.49.43.56.77.36 1.93-.42 2.48zm.17 1.11"/>
</svg>
