<svg xmlns="http://www.w3.org/2000/svg" viewBox="0 0 32 32"
    fill="none" stroke="#000" stroke-linejoin="round" stroke-miterlimit="10">
  <path d="M22.187 12.771c3.781.718 6.601 3.524 6.601 6.875 0 1.819-.838 3.472-2.203 4.723l1.562 4.169-5.595-1.954c
  -7.356.555-10.786-3.043-10.786-6.939M11.723 3.462c-4.7 0-8.511 3.158-8.511 7.053 0 1.819.838 3.472 2.203 4.723l-1.562
  4.169 5.595-1.954c7.356.555 10.786-3.043 10.786-6.939-.001-3.894-3.811-7.052-8.511-7.052z"/>
  <path class="text" fill="black" stroke="none" stroke-linejoin="miter" d="M14.059 10.482c0 .539-.085 1.006-.256 1.4s
  -.41.708-.717.939l.977.762-.641.578-1.211-.957c-.159.034-.33.051-.512.051-.458 0-.868-.113-1.229-.338s-.639-.546-.836
  -.963-.296-.897-.299-1.441v-.32c0-.555.098-1.044.295-1.469s.474-.75.832-.975.768-.338 1.229-.338c.469 0 .882.111 1.24
  .334s.635.543.83.961.294.904.297 1.459v.317zm-.993-.297c0-.641-.12-1.126-.359-1.457s-.578-.496-1.016-.496c-.424 0-.757
  .167-.998.502s-.364.807-.369 1.416v.332c0 .615.121 1.095.361 1.441s.579.52 1.014.52c.44 0 .778-.167 1.014-.5s.354-.82
  .354-1.461v-.297zM21.377 21.358h-2.203l-.461 1.324h -1.027l2.148-5.688h.887l2.152 5.688h-1.031l-.465-1.324zm-1.926
  -.796H21.1l-.824-2.359-.825 2.359z"/>
</svg>
