<svg xmlns="http://www.w3.org/2000/svg"
  fill="none" stroke="#000" stroke-linejoin="round" stroke-miterlimit="10" viewBox="0 0 32 32">
  <path d="M26.187 29H5.813V3h15.152l5.222 5.222v10.55m0-10.55h-5.222V3"/>
  <path fill="#000" stroke="none" d="M12.797 20.844h.948v5.477h-.948v-2.43h-2.449v2.43h-.952v-5.477h.952v2.279h2.449v
  -2.279zm1.576.767h1.692v4.71h.944v-4.71h1.708v-.767h-4.344v.767zm7.876 3.43l-1.58-4.197h-1.233v5.477h.947v-1.806l-.094
  -2.411 1.614 4.217h.681l1.617-4.221-.094 2.415v1.806h.947v-5.477h-1.229l-1.576 4.197zm4.883.52v-4.717h-.952v5.477h
  3.438v-.76h-2.486z" class="text"/>
</svg>
