<svg xmlns="http://www.w3.org/2000/svg" viewBox="0 0 32 32"
    fill="none" stroke="#000" stroke-linejoin="round" stroke-miterlimit="10" >
  <path class="text" fill="black" stroke="none" stroke-linejoin="miter" d="M10.338 23.085l1.195-2.055h1.141l-1.719 2.82 
  1.758 2.867h-1.152l-1.223-2.086-1.227 2.086H7.963l1.762-2.867-1.723-2.82h1.141l1.195 2.055zM14.725 21.03l1.641 4.359 
  1.637-4.359h1.277v5.688h-.984v-1.875l.098-2.508-1.68 4.383h-.707l-1.676-4.379.098 2.504v1.875h-.984V21.03h1.28zM21.436
   25.929h2.582v.789h-3.57V21.03h.988v4.899z"/>
  <path d="M21.156 2.5l5.423 5.423h-5.423zM26.579 29.5H5.421v-27h15.735l5.423 5.423z"/>
</svg>
