<svg xmlns="http://www.w3.org/2000/svg" viewBox="0 0 32 32"
    fill="none" stroke="#000" stroke-linejoin="round" stroke-miterlimit="10" >
  <path class="text" fill="black" stroke="none" stroke-linejoin="miter" d="M13.2 24.866c-.057.607-.281 1.08-.672 1.42s
  -.91.51-1.559.51c-.453 0-.852-.107-1.197-.322s-.611-.52-.799-.916c-.188-.396-.285-.855-.293-1.379v-.531c0-.536.095
  -1.009.285-1.418.19-.408.463-.724.818-.945.355-.221.766-.332 1.232-.332.627 0 1.133.17 1.516.51s.605.821.668 1.443h
  -.984c-.047-.408-.166-.703-.357-.885-.191-.181-.472-.271-.842-.271-.43 0-.76.157-.99.472-.23.313-.348.774-.354 1.382v
  .504c0 .615.11 1.085.33 1.408s.542.484.967.484c.388 0 .68-.087.875-.262.195-.174.319-.465.371-.871h.985zM17.056 
  25.253c0-.25-.088-.442-.264-.578-.176-.135-.493-.271-.951-.41-.458-.138-.823-.291-1.094-.461-.518-.325-.777-.75-.777
  -1.273 0-.458.187-.836.561-1.133s.859-.445 1.455-.445c.396 0 .749.073 1.059.219.311.146.554.354.73.623.178.27.266.568
  .266.896h-.984c0-.297-.093-.529-.279-.697s-.453-.252-.799-.252c-.323 0-.574.069-.752.207-.178.139-.268.331-.268.578 0 
  .209.096.383.289.521.193.14.51.275.953.406.443.132.798.281 1.066.449.269.168.465.361.59.578.125.218.188.473.188.764 0 
  .475-.182.852-.545 1.131-.363.28-.856.42-1.479.42-.412 0-.79-.076-1.135-.229s-.613-.362-.805-.631c-.191-.268-.287-.58
  -.287-.938h.988c0 .323.107.573.32.75.213.178.52.266.918 .266.344 0 .602-.069.775-.209.174-.138.261-.323.261-.552z
  M20.915 25.479l1.445-4.449h1.086l-2.047 5.688h-.957l-2.039 -5.688h1.082l1.43 4.449z"/>
  <path d="M21.156 2.5l5.423 5.423h-5.423zM26.579 29.5H5.421v-27h15.735l5.423 5.423z"/>
</svg>
