<svg xmlns="http://www.w3.org/2000/svg" viewBox="0 0 32 32"
    fill="none" stroke="#000" stroke-linejoin="round" stroke-miterlimit="10" >
  <path class="text" fill="black" stroke="none" stroke-linejoin="miter" d="M11.526 23.085l1.195-2.055h1.141l-1.719 2.82 
  1.758 2.867h-1.152l-1.223-2.086-1.226 2.087H9.151l1.762-2.867L9.19 21.03h1.141l1.195 2.055zM15.62 25.929h2.582v.789h
  -3.57V21.03h.988v4.899zM21.933 25.253c0-.25-.088-.442-.264-.578-.176-.135-.493-.271-.951-.41-.458-.138-.823-.291-1.094
  -.461-.519-.325-.777-.75-.777-1.273 0-.458.187-.836.561-1.133s.858-.445 1.455-.445c.396 0 .749.073 1.059.219.31.146
  .554.354.73.623s.266.568.266.896h-.984c0-.297-.093-.529-.279-.697s-.452-.252-.799-.252c-.323 0-.573.069-.752.207-.179
  .139-.268.331-.268.578 0 .209.097.383.289.521.192.14.511.275.953.406.442.132.798.281 1.066.449s.465.361.59.578c.125
  .218.188.473.188.764 0 .475-.182.852-.545 1.131-.363.28-.856.42-1.479.42-.411 0-.79-.076-1.135-.229s-.613-.362-.805
  -.631c-.191-.268-.287-.58-.287-.938h.988c0 .323.106.573.32.75.214.178.52.266.918.266.344 0 .603-.069.775-.209.174-.138
  .261-.323.261-.552z"/>
  <path d="M21.156 2.5l5.423 5.423h-5.423zM26.579 29.5H5.421v-27h15.735l5.423 5.423z"/>
</svg>
