<svg xmlns="http://www.w3.org/2000/svg" viewBox="0 0 32 32"
  fill="none" stroke="#000" stroke-linejoin="round" stroke-miterlimit="10" >
  <path class="text" fill="black" stroke="none" stroke-linejoin="miter" d="M11.744 21.03l1.641 4.359 1.637-4.359h1.277v
  5.688h-.984v-1.875l.098-2.508-1.68 4.383h-.707l-1.676-4.379.098 2.504v1.875h-.984V21.03h1.28zM17.467 26.718V21.03h
  1.68c.502 0 .948.112 1.338.336.389.225.69.542.904.953.213.412.32.883.32 1.414v.285c0 .539-.107 1.014-.322 1.422-.215
  .409-.521.725-.918.945-.397.222-.853.332-1.365.332h-1.637zm.988-4.891v4.102h.645c.518 0 .916-.162 1.193-.486s.418-.789
  .424-1.396v-.316c0-.617-.135-1.088-.402-1.414-.269-.325-.658-.488-1.168-.488h-.692z"/>
  <path d="M21.156 2.5l5.423 5.423h-5.423zM26.579 29.5H5.421v-27h15.735l5.423 5.423z"/>
</svg>
