<svg xmlns="http://www.w3.org/2000/svg" fill="none" stroke="#000" stroke-linejoin="round" stroke-miterlimit="10"
    viewBox="0 0 32 32">
  <path fill="#000" stroke="none" d="M11.683 22.823l1.151-1.979h1.099l-1.655 2.716 1.693 2.761h-1.11l-1.177-2.009-1.181 
  2.009H9.396l1.696-2.761-1.659-2.716h1.098l1.152 1.979zm3.942 2.739h2.486v.76h-3.438v-5.477h.952v4.717zm6.078-.651c0
  -.241-.085-.427-.254-.558-.169-.13-.475-.262-.916-.395s-.792-.281-1.053-.443c-.499-.313-.749-.723-.749-1.227 0-.441.18
  -.805.54-1.091.359-.286.827-.429 1.401-.429.381 0 .721.07 1.02.21.298.141.532.341.703.601.17.26.256.547.256.863h
  -.948c0-.286-.09-.51-.269-.672-.18-.161-.437-.242-.77-.242-.311 0-.553.066-.725.199-.171.133-.257.318-.257.557 0 .2
  .093.368.278.502.186.135.491.265.918.392.426.126.769.271 1.026.433.259.161.447.347.568.557.12.209.181.454.181.735 0 
  .456-.176.819-.525 1.089s-.824.404-1.424.404c-.396 0-.76-.073-1.093-.22-.332-.147-.59-.35-.774-.607-.185-.259-.276-.56
  -.276-.903h.951c0 .312.104.552.309.723.206.17.5.256.884.256.331 0 .58-.067.747-.201.168-.135.251-.312.251-.533zm3.671
  -2.088l1.151-1.979h1.099l-1.655 2.716 1.692 2.761h-1.109l-1.178-2.009-1.181 2.009h-1.106l1.696-2.761-1.658-2.716h1
  .098l1.151 1.979z" class="text"/>
  <path d="M26.187 29H5.813V3h15.152l5.222 5.222v10.55m0-10.55h-5.222V3"/>
</svg>
