<svg xmlns="http://www.w3.org/2000/svg" fill="none" stroke="#000" stroke-linejoin="round" stroke-miterlimit="10"
    viewBox="0 0 32 32">
  <path fill="#000" stroke="none" d="M11.825 20.845l1.58 4.197 1.576-4.197h1.23v5.477h-.948v-1.806l.094-2.415-1.618 
  4.221h-.681l-1.614-4.217.094 2.411v1.806h-.948v-5.477h1.235zm5.51 5.476v-5.477h1.617c.484 0 .913.107 1.288.323s.665
  .521.871.918.309.85.309 1.361v.274c0 .52-.104.976-.311 1.369-.207.395-.501.697-.884.911-.383.213-.82.319-1.314.319h
  -1.576v.002zm.951-4.71v3.95h.621c.499 0 .882-.156 1.149-.469.267-.312.402-.76.408-1.345v-.305c0-.594-.13-1.048-.388
  -1.361-.259-.313-.634-.471-1.125-.471l-.665.001z" class="text"/>
  <path d="M26.187 29H5.813V3h15.152l5.222 5.222V29zm0-20.778h-5.222V3"/>
</svg>
