<svg xmlns="http://www.w3.org/2000/svg" fill="none" stroke="#000" stroke-linejoin="round"
  viewBox="0 0 32 32">
  <path fill="#000" stroke="none" d="M11.936 25.375a1.231 1.231 0 01-.843.252 1.055 1.055 0 01-.931-.467 2.4 2.4 0 01
  -.317-1.355v-.485a2.268 2.268 0 01.34-1.331 1.111 1.111 0 01.954-.454 1.141 1.141 0 01.811.262 1.355 1.355 0 01.344
  .853h.948a2.054 2.054 0 00-.643-1.391 2.116 2.116 0 00-1.459-.49 2.2 2.2 0 00-1.187.319 2.073 2.073 0 00-.788.91 3.2
  3.2 0 00-.274 1.365v.512a3.169 3.169 0 00.282 1.325 2.03 2.03 0 00.769.882 2.136 2.136 0 001.158.318 2.206 2.206 0
  001.5-.491 1.975 1.975 0 00.647-1.367h-.95a1.312 1.312 0 01-.361.833zm5.223-1.764a4.2 4.2 0 00-1.027-.433 3.189 3.189
  0 01-.918-.392.6.6 0 01-.278-.5.665.665 0 01.257-.557 1.159 1.159 0 01.724-.2 1.114 1.114 0 01.77.242.861.861 0 01.269
  .672h.944a1.535 1.535 0 00-.256-.863 1.668 1.668 0 00-.7-.6 2.37 2.37 0 00-1.019-.21 2.184 2.184 0 00-1.4.429 1.335
  1.335 0 00-.54 1.091 1.407 1.407 0 00.749 1.227 4.478 4.478 0 001.053.443 3.069 3.069 0 01.916.4.665.665 0 01.254.558
  .655.655 0 01-.249.533 1.176 1.176 0 01-.747.2 1.354 1.354 0 01-.884-.256.886.886 0 01-.309-.723h-.952a1.519 1.519 0
  00.276.9 1.853 1.853 0 00.775.607 2.675 2.675 0 001.093.22 2.271 2.271 0 001.424-.4 1.306 1.306 0 00.524-1.089 1.451
  1.451 0 00-.181-.735 1.618 1.618 0 00-.568-.564zm5.951-2.766l-1.971 5.477h-.922l-1.963-5.477H19.3l1.376 4.284 1.393
  -4.284z" class="text"/>
  <path d="M5.813 29V3h15.152l5.222 5.222V29zM26.187 8.222h-5.222V3"/>
</svg>
