<svg xmlns="http://www.w3.org/2000/svg" fill="none" stroke="#000" stroke-linejoin="round" stroke-miterlimit="10"
    viewBox="0 0 32 32">
  <path fill="#000" stroke="none" d="M12.583 24.29v2.031h-.952v-5.477h2.095c.612 0 1.098.159 1.458.478s.54.741.54 
  1.266c0 .537-.176.955-.529 1.254-.352.299-.846.448-1.48.448h-1.132zm0-.768h1.144c.338 0 .597-.079.775-.238s.267-.39
  .267-.69c0-.296-.09-.532-.271-.709-.18-.177-.429-.268-.745-.273h-1.17v1.91zm6.835 1.389c0-.241-.085-.427-.254-.558-.17
  -.13-.475-.262-.916-.395s-.792-.281-1.053-.443c-.499-.313-.749-.723-.749-1.227 0-.441.18-.805.54-1.091s.827-.429 1.401
  -.429c.381 0 .721.07 1.02.21.299.141.533.341.703.601.171.26.256.547.256.863h-.947c0-.286-.09-.51-.27-.672-.179-.161
  -.436-.242-.77-.242-.311 0-.552.066-.724.199-.171.133-.257.318-.257.557 0 .2.093.368.278.502.186.135.491.265.917.392
  .427.126.769.271 1.027.433.258.161.447.347.567.557.12.209.181.454.181.735 0 .456-.175.819-.524 1.089s-.824.404-1.424
  .404c-.396 0-.76-.073-1.093-.22-.332-.147-.59-.35-.775-.607-.184-.259-.276-.56-.276-.903h.952c0 .312.103.552.309.723
  .206.17.5.256.884.256.331 0 .58-.067.746-.201.167-.135.251-.312.251-.533z" class="text"/>
  <path d="M26.187 29H5.813V3h15.152l5.222 5.222V29zm0-20.778h-5.222V3"/>
</svg>
