<svg xmlns="http://www.w3.org/2000/svg" viewBox="0 0 32 32"
    fill="none" stroke="#000" stroke-linejoin="round" stroke-miterlimit="10" >
  <path class="text" fill="black" stroke="none" stroke-linejoin="miter" d="M10.199 24.608v2.109h-.988V21.03h2.176c.635 0
   1.14.166 1.514.497s.561.769.561 1.313c0 .559-.183.992-.549 1.303-.366.31-.878.465-1.537.465h-1.177zm0-.796h1.188c.352
    0 .62-.082.805-.248.185-.165.277-.404.277-.717 0-.307-.094-.553-.281-.736s-.445-.277-.773-.283H10.2v1.984zM14.324 
  26.718V21.03h1.68c.502 0 .949.112 1.338.336.389.225.69.542.904.953.213.412.32.883.32 1.414v.285c0 .539-.107 1.014
  -.322 1.422-.215.409-.521.725-.918.945-.397.222-.852.332-1.365.332h-1.637zm.988-4.891v4.102h.645c.518 0 .916-.162 
  1.193-.486s.418-.789.424-1.396v-.316c0-.617-.135-1.088-.402-1.414-.268-.325-.658-.488-1.168-.488h-.692zM22.828 24.308h
  -2.289v2.41h-.988V21.03h3.613v.797h-2.625v1.691h2.289v.79z"/>
  <path d="M21.156 2.5l5.423 5.423h-5.423zM26.579 29.5H5.421v-27h15.735l5.423 5.423z"/>
</svg>
