<svg xmlns="http://www.w3.org/2000/svg" viewBox="0 0 32 32"
    fill="none" stroke="#000" stroke-linejoin="round" stroke-miterlimit="10" >
  <path d="M5.547 25.031H2.519V3.422h9.051l4.613 6.001h13.298v15.608h-2.779M29.481 9.423V5.422H13.104M23.551 12.927h
  -3.405c-.401 0-.73.328-.73.73v3.405c0 .401.328.73.73.73h3.405c.401 0 .73-.328.73-.73v-3.405c0-.401-.329-.73-.73-.73z
  M12.104 18.754H8.7c-.401 0-.73.328-.73.73v3.405c0 .401.328.73.73.73h3.405c.401 0 .73-.328.73-.73v-3.405c-.001-.402
  -.329-.73-.731-.73zM23.526 24.583h-3.405c-.401 0-.73.328-.73.73v3.405c0 .401.328.73.73.73h3.405c.401 0 .73-.328.73
  -.73v-3.405c0-.402-.329-.73-.73-.73zM12.834 21.263h3.137v-5.297c0-.335.271-.606.606-.606h2.839M19.391 27.015h-2.815c
  -.334 0-.605-.271-.605-.605v-5.147h-3.137"/>
</svg>
