<svg xmlns="http://www.w3.org/2000/svg" fill="none" viewBox="0 0 32 32" stroke="#000" stroke-linejoin="round">
  <path stroke="#3E3A39" stroke-miterlimit="10" d="M15.7778 29C8.59813 29 2.77783 23.1797 2.77783 16C2.77783 8.8203 8.59813 3 15.7778 3C22.9575 3 28.7778 8.8203 28.7778 16C28.7778 16.9209 28.6821 17.8194 28.5 18.6861M15.7778 29C15.852 29 15.9261 28.9994 16 28.9981L15.7778 29Z"/>
  <path stroke="#3E3A39" stroke-miterlimit="10" stroke-linejoin="round" d="M10 22C10 19.7907 12.7566 18 16.1565 18C16.7987 18 17.418 18.0639 18 18.1824"/>
  <path stroke="#3E3A39" stroke-miterlimit="10" stroke-linejoin="round" d="M16 16C18.2091 16 20 14.2091 20 12C20 9.79086 18.2091 8 16 8C13.7909 8 12 9.79086 12 12C12 14.2091 13.7909 16 16 16Z"/>
  <path stroke="#3E3A39" stroke-miterlimit="10" stroke-linejoin="round" d="M22.684 26.55C23.868 26.55 24.8278 25.5902 24.8278 24.4063C24.8278 23.2223 23.868 22.2625 22.684 22.2625C21.5001 22.2625 20.5403 23.2223 20.5403 24.4063C20.5403 25.5902 21.5001 26.55 22.684 26.55Z"/>
  <path stroke="#3E3A39" stroke-miterlimit="10" stroke-linejoin="round" d="M26.7528 21.825L27.4966 20.8625L26.1841 19.5938L25.2216 20.3375L23.7341 19.725L23.6028 18.5H21.7653L21.5903 19.725L20.1028 20.3375L19.1403 19.5938L17.8716 20.8625L18.6153 21.825L18.0028 23.3125L16.7778 23.4875V25.325L18.0028 25.4562L18.6153 26.9437L17.8716 27.95L19.1403 29.2188L20.1466 28.475L21.6341 29.0875L21.7653 30.3125H23.6028L23.7778 29.0875L25.2216 28.475L26.2278 29.2188L27.4966 27.9062L26.7528 26.9437L27.3653 25.4562L28.5903 25.325V23.4875L27.3653 23.3125L26.7528 21.825Z"/>
</svg>
