<svg xmlns="http://www.w3.org/2000/svg" viewBox="0 0 32 32"
    fill="none" stroke="#000" stroke-linejoin="round" stroke-miterlimit="10">
  <path d="M20.95 13.65c0-1.47-1.19-2.66-2.66-2.66-1.47 0-2.66 1.19-2.66 2.66 0 .72.29 1.38.76 1.86.48.5 1.16.8 1.9.8 1.46 0 2.66-1.19 2.66-2.66zM30.38 4.22c0-1.47-1.19-2.66-2.66-2.66s-2.66 1.19-2.66 2.66c0 .72.29 1.38.76 1.86.48.5 1.16.8 1.9.8 1.47 0 2.66-1.19 2.66-2.66zM11.51 23.08c0-1.47-1.19-2.66-2.66-2.66s-2.66 1.19-2.66 2.66c0 .72.29 1.38.76 1.86.48.5 1.16.8 1.9.8 1.47 0 2.66-1.19 2.66-2.66zM16.4 15.53l-5.69 5.69M25.84 6.1l-5.68 5.67M25.06 4.22H1.62M27.72 30.44V6.88M6.19 23.08H1.62M8.85 30.44v-4.7"/>
  <path d="M18.28 16.31v14.13M15.62 13.65h-14" stroke-dasharray="1,3"/>
</svg>
