<svg xmlns="http://www.w3.org/2000/svg" viewBox="0 0 32 32"
    fill="none" stroke="#000" stroke-linejoin="round" stroke-miterlimit="10">
  <path d="M18.222 23.149c.504.504 1.32.504 1.824 0s.504-1.32 0-1.824l-9.954-9.954c-.504-.504-1.32-.504-1.824 0s-.504
  1.32 0 1.824L1.18 28.348c-.64 1.317.572 2.529 1.889 1.889l15.153-7.088zM14.061 6.322c1.665 1.665 1.665 4.364 0 6.029
  M25.187 17.448c-1.665-1.665-4.364-1.665-6.029 0M26.869 12.072c-2.162-.852-6.077.048-7.87 1.841M20.104 6.308c.4 1.343
  -.46 3.946-1.749 5.235M14.077 19.091l4.1 4.1M21.147 2.424l-.133.456c-.035.12-.035.247 0 .367l.133.456c.145.495
  -.315.955-.81.81l-.456-.133c-.12-.035-.247-.035-.367 0l-.456.133c-.495.145-.955-.315-.81-.81l.133-.456c.035-.12.035
  -.247 0-.367l-.133-.456c-.145-.495.315-.955.81-.81l.456.133c.12.035.247.035.367 0l.456-.133c.495-.145.955.315.81.81z
  M29.017 19.189l-.133.456c-.035.12-.035.247 0 .367l.133.456c.145.495-.315.955-.81.81l-.456-.133c-.12-.035-.247-.035
  -.367 0l-.456.133c-.495.145-.955-.315-.81-.81l.133-.456c.035-.12.035-.247 0-.367l-.133-.456c-.145-.495.315-.955.81
  -.81l.456.133c.12.035.247.035.367 0l.456-.133c.495-.145.955.315.81.81z"/>
  <circle cx="12.128" cy="4.389" r="1.55"/>
  <circle cx="29.446" cy="13.189" r="1.55"/>
</svg>
