<svg viewBox="0 0 32 32" fill="none" stroke="#000" stroke-miterlimit="10" stroke-linejoin="round"
    xmlns="http://www.w3.org/2000/svg">
    <path d="M19.2402 12.361V4.41502C19.2402 3.31502 18.3402 2.41602 17.2412 2.41602H5.24323C4.71241 2.41734 4.20371 2.62879 3.82836 3.00414C3.45301 3.37949 3.24155 3.88819 3.24023 4.41902V16.419C3.24023 17.517 4.13923 18.416 5.23723 18.416H8.92523M17.3142 21.4H20.4512M20.4512 21.4V16.103C20.4512 15.768 20.7222 15.497 21.0572 15.497H23.8962M20.4512 21.4V26.547C20.4512 26.7075 20.515 26.8614 20.6284 26.9748C20.7419 27.0883 20.8958 27.152 21.0562 27.152H23.8712M28.0312 13.064H24.6262C24.4328 13.0645 24.2474 13.1416 24.1106 13.2784C23.9738 13.4152 23.8968 13.6006 23.8962 13.794V17.199C23.8962 17.6 24.2242 17.929 24.6262 17.929H28.0312C28.4322 17.929 28.7612 17.601 28.7612 17.199V13.794C28.7604 13.6007 28.6833 13.4154 28.5466 13.2787C28.4098 13.142 28.2246 13.0648 28.0312 13.064ZM16.5842 18.891H13.1792C12.9858 18.8915 12.8004 18.9686 12.6636 19.1054C12.5268 19.2422 12.4498 19.4276 12.4492 19.621V23.026C12.4492 23.427 12.7772 23.756 13.1792 23.756H16.5842C16.9852 23.756 17.3142 23.428 17.3142 23.026V19.62C17.3134 19.4267 17.2362 19.2416 17.0995 19.1051C16.9627 18.9685 16.7775 18.8915 16.5842 18.891ZM28.0062 24.72H24.6012C24.4078 24.7205 24.2224 24.7976 24.0856 24.9344C23.9488 25.0712 23.8718 25.2566 23.8712 25.45V28.855C23.8712 29.256 24.1992 29.585 24.6012 29.585H28.0062C28.4072 29.585 28.7362 29.257 28.7362 28.855V25.45C28.7354 25.2567 28.6583 25.0714 28.5215 24.9347C28.3848 24.798 28.1996 24.7208 28.0062 24.72Z" />
    <path d="M7.1001 14.4L15.5001 6" />
    <path d="M10.1001 6H15.5001V11.4" />
</svg>
