<svg xmlns="http://www.w3.org/2000/svg" viewBox="0 0 32 32"
    fill="none" stroke="#000" stroke-linejoin="round" stroke-miterlimit="10">
  <path class="text" fill="black" stroke="none" stroke-linejoin="miter" d="M8.903 9.062h-.945v-4.57l-1.395.476v-.797l
  2.219-.816h.121v5.707zM10.157 18.062H6.333v-.652l1.895-2.066c.273-.305.468-.56.584-.764s.174-.409.174-.615c0-.271-.076
  -.489-.229-.656s-.357-.25-.615-.25c-.307 0-.545.094-.715.281s-.254.444-.254.77h-.95c0-.347.079-.658.236-.936s.383-.493
  .676-.646.631-.23 1.014-.23c.552 0 .988.139 1.307.416s.479.661.479 1.15c0 .284-.08.581-.24.893s-.422.665-.787 1.061l
  -1.391 1.488h2.641v.756zM7.43 23.784h.578c.292-.003.523-.078.693-.227s.256-.363.256-.645c0-.271-.071-.481-.213-.631s
  -.359-.225-.65-.225c-.255 0-.465.073-.629.221s-.246.339-.246.576H6.27c0-.292.078-.558.232-.797s.371-.427.648-.561.588
  -.201.932-.201c.568 0 1.014.143 1.338.428s.486.682.486 1.189c0 .255-.082.495-.244.721s-.373.396-.631.51c.312.106.55
  .274.713.504s.244.503.244.82c0 .511-.175.917-.525 1.219s-.81.455-1.38.455c-.547 0-.995-.146-1.344-.438s-.523-.68-.523
  -1.164h.949c0 .25.084.453.252.609s.394.234.678.234c.294 0 .526-.078.695-.234s.254-.383.254-.68c0-.3-.088-.53-.266
  -.691s-.44-.242-.789-.242H7.43v-.75z"/>
  <path d="M19.924 7.975h-6.668M23.82 5.325H13.256M19.924 16.975h-6.668M23.82 14.325H13.256M19.924 25.975h-6.668M23.82
  23.325H13.256"/>
</svg>
