<svg xmlns="http://www.w3.org/2000/svg" viewBox="0 0 32 32"
    fill="none" stroke="#000" stroke-miterlimit="10" >
  <path stroke-linejoin="round" d="M29 19.5v-7c0-.825-.675-1.5-1.5-1.5h-7c-.825 0-1.5.675-1.5 1.5v7c0 .825.675 1.5 1.5 
  1.5h7c.825 0 1.5-.675 1.5-1.5zM13 19.5v-7c0-.825-.675-1.5-1.5-1.5h-7c-.825 0-1.5.675-1.5 1.5v7c0 .825.675 1.5 1.5 
  1.5h7c.825 0 1.5-.675 1.5-1.5zM13 16h6M28.559 11.441l-9.118 9.118M12.559 11.441l-9.118 9.118"/>
  <line stroke-linecap="square" x1="0" y1="0" x2="0" y2="0" transform="translate(3.5, 24) scale(2)" />
  <line stroke-linecap="square" x1="0" y1="0" x2="0" y2="0" transform="translate(8.5, 24) scale(2)" />
  <line stroke-linecap="square" x1="0" y1="0" x2="0" y2="0" transform="translate(13.5, 24) scale(2)" />
  <line stroke-linecap="square" x1="0" y1="0" x2="0" y2="0" transform="translate(18.5, 24) scale(2)" />
  <line stroke-linecap="square" x1="0" y1="0" x2="0" y2="0" transform="translate(23.5, 24) scale(2)" />
  <line stroke-linecap="square" x1="0" y1="0" x2="0" y2="0" transform="translate(28.5, 24) scale(2)" />
  <line stroke-linecap="square" x1="0" y1="0" x2="0" y2="0" transform="translate(33.5, 24) scale(2)" />
  <line stroke-linecap="square" x1="0" y1="0" x2="0" y2="0" transform="translate(3.5, 8) scale(2)" />
  <line stroke-linecap="square" x1="0" y1="0" x2="0" y2="0" transform="translate(8.5, 8) scale(2)" />
  <line stroke-linecap="square" x1="0" y1="0" x2="0" y2="0" transform="translate(13.5, 8) scale(2)" />
  <line stroke-linecap="square" x1="0" y1="0" x2="0" y2="0" transform="translate(18.5, 8) scale(2)" />
  <line stroke-linecap="square" x1="0" y1="0" x2="0" y2="0" transform="translate(23.5, 8) scale(2)" />
  <line stroke-linecap="square" x1="0" y1="0" x2="0" y2="0" transform="translate(28.5, 8) scale(2)" />
  <line stroke-linecap="square" x1="0" y1="0" x2="0" y2="0" transform="translate(33.5, 8) scale(2)" />
</svg>
