<svg xmlns="http://www.w3.org/2000/svg" viewBox="0 0 32 32"
    fill="none" stroke="#000" stroke-linejoin="round" stroke-miterlimit="10" >
  <path d="M21.435 11.922v-8c0-1.1-.9-2-2-2h-12c-1.1 0-2 .9-2 2v11c0 2.344.883 3 3 3M6.023 2.51l8.923 8.924M23.959 18.148l1.048-1.391-1.8-1.785-1.395 1.063-2.063-.845-.211-1.732-2.573.001-.225 1.733-2.099.871-1.388-1.055-1.78 1.786 1.063 1.359-.884 2.102-1.706.216-.004 2.57 1.7.211.87 2.104-1.025 1.404 1.802 1.795 1.39-1.048 2.067.85.223 1.721 2.573-.001.23-1.726 2.08-.864 1.409 1.037 1.788-1.801-1.055-1.382.857-2.072 1.714-.224-.003-2.576-1.719-.225z"/>
  <circle cx="18.254" cy="21.768" r="2.997"/>
</svg>
