<svg xmlns="http://www.w3.org/2000/svg" viewBox="0 0 32 32"
    fill="none" stroke="#000" stroke-linejoin="round" stroke-miterlimit="10" >
  <path d="M16.771 24.355l6-5.998c.587-.587 1.595-.53 2.252.126.657.656.713 1.664.126 2.251l-7.111 7.108c-1.157 1.157
  -3.053 1.298-4.221.131-1.168-1.167-1.32-2.839.113-4.272l8.608-8.604c1.439-1.44 3.913-1.301 5.524.31 1.611 1.61 1.749 
  4.082.31 5.522l-7.509 7.506M18.633 13.218V5.217c0-1.1-.9-1.999-1.999-1.999H4.636c-1.102 0-2.003.901-2.003 2.003v12c0 
  1.098.899 1.997 1.997 1.997h8.268M3.222 3.806l12.411 12.412"/>
</svg>
