<svg xmlns="http://www.w3.org/2000/svg" viewBox="0 0 32 32"
    fill="none" stroke="#000" stroke-linejoin="round">
  <path d="M27.5 3.214h-7c-.825 0-1.5.675-1.5 1.5v7c0 .825.675 1.5 1.5 1.5h7c.825 0 1.5-.675 1.5-1.5v-7c0-.825-.675-1.5
  -1.5-1.5zM11.5 18.786h-7c-.825 0-1.5.675-1.5 1.5v7c0 .825.675 1.5 1.5 1.5h7c.825 0 1.5-.675 1.5-1.5v-7c0-.825-.675-1.5
  -1.5-1.5zM18.496 18.718l4.879 4.879M22.369 18.984C23.403 17.306 24 15.33 24 13.214M12.991 24.223c2.116 0 4.092-.597
  5.77-1.632M3.441 19.227l9.118 9.118M19.441 3.655l9.118 9.118"/>
</svg>
