<svg xmlns="http://www.w3.org/2000/svg" viewBox="0 0 32 32"
    fill="none" stroke="#000" stroke-linecap="round" stroke-linejoin="round">
  <path d="M3.07 14.388C3.206 7.364 8.943 1.712 15.999 1.712c7.076 0 12.825 5.683 12.931 12.734-.751-.946-1.911-1.553
  -3.213-1.553-1.322 0-2.494.628-3.244 1.6-.001-.001-.001-.001-.001-.002-.75-.972-1.926-1.598-3.248-1.598-1.323 0-2.497
  .63-3.246 1.603-.75-.973-1.923-1.603-3.246-1.603s-2.497.63-3.246 1.603c-.75-.973-1.923-1.603-3.246-1.603-1.276-.001
  -2.418.583-3.17 1.495zM15.978 14.495v15.793M28.93 14.445L16 28.685 3.07 14.388M9.485 14.495L16 28.685l6.473-14.193"/>
</svg>
