<svg xmlns="http://www.w3.org/2000/svg" viewBox="0 0 32 32"
  fill="none" stroke="#000" stroke-linejoin="round" stroke-miterlimit="10">
  <path d="M3.8 2.8H17.2V7.5H3.8z M15.6,10.1L15.6,7.5 5.5,7.5 5.5,10.1 2.2,14.9 18.8,14.9z
  M14.9,26.1 2.2,26.1 2.2,29.2 18.8,29.2zM10.5 10.1L15.6 10.1M14.3 26.1L2.2 26.1 2.2 14.9 18.8,14.9 18.8 17.5
  M10.5,20.5c1.6,0,3,0,3,0S12.2,20.5,10.5,20.5s-3,0-3,0S8.9,20.5,10.5,20.5z M10.5,20.5c0-1.6,0-3,0-3S10.5,18.9,10.5,
  20.5s0,3,0,3S10.5,22.1,10.5,20.5z M28.7,21l-5.4,5.4c-1.4,1.4-3.7,1.4-5.1,0l0,0c-1.4-1.4-1.4-3.7,0-5.1l2.7-2.7l2.7-2.7c
  1.4-1.4,3.7-1.4,5.1,0l0,0C30.1,17.3,30.1,19.6,28.7,21z M26 23.7L20.9 18.6"/>
</svg>
