<svg xmlns="http://www.w3.org/2000/svg" viewBox="0 0 32 32"
    fill="none" stroke="#000" stroke-linecap="round" stroke-linejoin="round" stroke-miterlimit="10">
  <path d="M31.062 27.197H.938M2.816 12.665c.367.298 1.553.897 4.776 2.471 1.109.542 2.256 1.102 3.124 1.543.036.018.074
  .032.113.041 1.826.422 3.685.865 5.482 1.295 3.595.858 7.312 1.746 10.965 2.502.008.002.016.003.023.004.225.035.466
  .052.713.052 1.343 0 2.874-.496 3.028-1.221.283-1.341-2.155-3.213-5.12-3.93-1.522-.352-4.355-.998-5.773-1.316-.855
  -.516-6.556-7.154-7.819-8.682-.07-.085-.166-.144-.274-.168-.379-.084-.667-.152-.955-.22-.289-.068-.579-.136-.958-.221
  -.193-.044-.392.032-.508.191-.116.16-.126.373-.026.543.624 1.059 2.458 4.25 4.077 7.118-.107-.024-.209-.046-.308-.068
  -.871-.193-1.465-.324-2.734-.616l-2.408-1.465-2.986-5.016c-.07-.118-.186-.201-.32-.23l-1.332-.289c-.148-.032-.303.006
  -.42.102-.116.097-.182.242-.179.393l.11 4.791c-.652-.067-1.042.214-1.203.56-.28.604.103 1.369.912 1.836zm.624-1.298"/>
</svg>
