<svg xmlns="http://www.w3.org/2000/svg" viewBox="0 0 32 32"
  fill="none" stroke="#000" stroke-linejoin="round" stroke-miterlimit="10" >
  <path d="M11.326,10.326c0,1.291-1.046,2.337-2.337,2.337s-2.337-1.046-2.337-2.337V7.709M16,10.326c0,1.291-1.046,
    2.337-2.337,2.337s-2.337-1.046-2.337-2.337V7.709M20.674,10.326c0,1.291-1.046,2.337-2.337,2.337c-1.291,
    0-2.337-1.046-2.337-2.337V7.709M25.349,10.326c0,1.291-1.046,2.337-2.337,2.337s-2.337-1.046-2.337-2.337V7.709
    M29.439,11.856 29.439,28.518 2.482,28.518 2.482,11.76M25.349,7.709v2.616c0,1.291,1.046,2.337,2.337,2.337c1.291,0,
    2.337-1.046,2.337-2.337l-0.584-2.6l-3-4.244 H5.482l-3,4.244l-0.505,2.6c0,1.291,1.046,2.337,2.337,2.337s2.337-1.046,
    2.337-2.337M2.482,22.903 15.75,22.903 15.75,13.726M26.529,28.518 26.529,14.303 22.183,14.303 17.837,14.303 17.837,
    28.518 M19.995,18.039 19.995,20.572 24.336,20.572 24.336,18.039 22.183,16z M29.439 7.726 2.482 7.726"/>
</svg>
