<svg xmlns="http://www.w3.org/2000/svg" viewBox="0 0 32 32"
  fill="none" stroke="#000" stroke-linejoin="round" stroke-miterlimit="10">
  <path d="M15.935,25.421c1.97-0.503,4.186-1.836,6.674-4.325c9.805-9.805,6.442-17.866,6.442-17.866s-2.94-1.227-7.428
  -0.039c-2.944,0.779-6.554,2.597-10.438,6.481c-2.489,2.489-3.822,4.704-4.325,6.674L15.935,25.421zM25.06,18.334c1.379,
  1.379,0.76,4.234-1.382,6.376l-4.227,4.227l-3.516-3.516M13.949,7.223c-1.379-1.379-4.234-0.76-6.376,1.382l-4.227,
  4.227l3.514,3.514 M29.252 9.975 22.305 3.027 M9.238 18.724 5.502 22.46 M4.007 23.955 3.153 24.809 M8.017 24.264 2.608
  29.673 M11.612 24.834 7.822 28.624"/>
  <circle cx="20.06" cy="11.961" r="3.858"/>
</svg>
