<svg xmlns="http://www.w3.org/2000/svg" viewBox="0 0 32 32"
    fill="none" stroke="#000" stroke-linejoin="round">
  <g >
    <path d="M25.975 10.925h-3.405c-.401 0-.73.328-.73.73v3.405c0 .401.328.73.73.73h3.405c.401 0 .73-.328.73-.73v-3.405C26.705 11.254 26.377 10.925 25.975 10.925zM14.529 16.752h-3.405c-.401 0-.73.328-.73.73v3.405c0 .401.328.73.73.73h3.405c.401 0 .73-.328.73-.73v-3.405C15.259 17.08 14.93 16.752 14.529 16.752zM25.951 22.581h-3.405c-.401 0-.73.328-.73.73v3.405c0 .401.328.73.73.73h3.405c.401 0 .73-.328.73-.73v-3.405C26.68 22.91 26.352 22.581 25.951 22.581zM15.259 19.261h3.137v-5.297c0-.335.271-.606.606-.606h2.839M21.816 25.013h-2.815c-.334 0-.605-.271-.605-.605v-5.147h-3.137M16.259 13.702L2.484 13.702 2.484 4.554 29.516 4.554 29.516 13.702"/>
    <path d="M5.331 7.912H7.763V10.344H5.331zM26.082 8.112c0-.636 0-1.151 0-1.151S26.082 7.476 26.082 8.112s0 1.151 0 1.151S26.082 8.748 26.082 9.112zM24.082 8.112c0-.636 0-1.151 0-1.151S24.082 7.476 24.082 8.112s0 1.151 0 1.151S24.082 8.748 24.082 9.112zM22.082 8.112c0-.636 0-1.151 0-1.151S22.082 7.476 22.082 8.112s0 1.151 0 1.151S22.082 8.748 22.082 9.112zM20.082 9.128c0-1.197 0-2.167 0-2.167S20.082 7.931 20.082 9.128s0 2.167 0 2.167S20.082 10.325 20.082 11.128zM18.082 9.128c0-1.197 0-2.167 0-2.167S18.082 7.931 18.082 9.128s0 2.167 0 2.167S18.082 10.325 18.082 11.128zM16.082 9.128c0-1.197 0-2.167 0-2.167S16.082 7.931 16.082 9.128s0 2.167 0 2.167S16.082 10.325 16.082 11.128z"/>
  </g>
</svg>
