<svg xmlns="http://www.w3.org/2000/svg" viewBox="0 0 32 32" stroke="#000" stroke-linejoin="round" fill="none">
  <path d="M8.642,2.835c0,0-5.642,0-5.642,5.642v15.045c0,0,0,5.642,5.642,5.642h14.716c0,0,5.642,0,5.642-5.642V8.477c0,0,
  0-5.642-5.642-5.642H8.642zM16.024,22.3c3.479,0,6.3-2.821,6.3-6.3s-2.821-6.3-6.3-6.3s-6.3,2.821-6.3,6.3C9.723,19.479,
  12.544,22.3,16.024,22.3zM24.157,9.888c0.752,0,1.363-0.611,1.363-1.363s-0.611-1.363-1.363-1.363c-0.752,0-1.363,0.611
  -1.363,1.363S23.405,9.888,24.157,9.888z" />
</svg>
