<svg xmlns="http://www.w3.org/2000/svg" viewBox="0 0 32 32"
  fill="none" stroke="#000">
  <circle cx="16" cy="22.358" r="2.833"/>
  <path d="M2,20.809c0-7.732,6.268-14,14-14s14,6.268,14,14"/>
  <line x1="23.968" y1="17.059" x2="18.358" y2="20.789"/>
  <line stroke-linecap="square" x1="0" y1="0" x2="0" y2="0" transform="translate(5.4, 20.35) scale(1.3) rotate(2)" />
  <line stroke-linecap="square" x1="0" y1="0" x2="0" y2="0" transform="translate(5.9, 17.4) scale(1.3) rotate(18)" />
  <line stroke-linecap="square" x1="0" y1="0" x2="0" y2="0" transform="translate(7.3, 14.75) scale(1.3) rotate(34)" />
  <line stroke-linecap="square" x1="0" y1="0" x2="0" y2="0" transform="translate(9.3, 12.55) scale(1.3) rotate(50)" />
  <line stroke-linecap="square" x1="0" y1="0" x2="0" y2="0" transform="translate(11.85, 11) scale(1.3) rotate(66)" />
  <line stroke-linecap="square" x1="0" y1="0" x2="0" y2="0" transform="translate(14.75, 10.3) scale(1.3) rotate(82)" />
  <line stroke-linecap="square" x1="0" y1="0" x2="0" y2="0" transform="translate(17.75, 10.35) scale(1.3) rotate(98)" />
  <line stroke-linecap="square" x1="0" y1="0" x2="0" y2="0" transform="translate(20.6, 11.2) scale(1.3) rotate(114)" />
  <line stroke-linecap="square" x1="0" y1="0" x2="0" y2="0" transform="translate(23.05, 12.9) scale(1.3) rotate(132)" />
  <line stroke-linecap="square" x1="0" y1="0" x2="0" y2="0" transform="translate(25, 15.15) scale(1.3) rotate(148)" />
  <line stroke-linecap="square" x1="0" y1="0" x2="0" y2="0" transform="translate(26.25, 17.9) scale(1.3) rotate(164)" />
  <line stroke-linecap="square" x1="0" y1="0" x2="0" y2="0" transform="translate(26.7, 20.9) scale(1.3) rotate(180)" />
</svg>
