<svg xmlns="http://www.w3.org/2000/svg" viewBox="0 0 32 32"
    fill="none" stroke="#000" stroke-linejoin="round" stroke-miterlimit="10">
  <path class="text" fill="black" stroke="none" stroke-linejoin="miter" d="M6.19 13.5h-.945V8.931l-1.395.476V8.61l2.219
  -.816h.121V13.5zM17.89 13.5h-3.824v-.652l1.895-2.066c.273-.305.468-.56.584-.764s.174-.409.174-.615c0-.271-.076-.489
  -.229-.656s-.357-.25-.615-.25c-.308 0-.546.094-.715.281s-.254.444-.254.77h-.949c0-.347.079-.658.236-.936s.383-.493.676
  -.646.631-.23 1.014-.23c.552 0 .987.139 1.306.416s.479.661.479 1.15c0 .284-.08.581-.24.893s-.423.665-.787 1.061l-1.391
   1.488h2.64v.756zM25.348 10.223h.578c.292-.003.522-.078.693-.227s.256-.363.256-.645c0-.271-.071-.481-.213-.631s-.358
  -.225-.65-.225c-.255 0-.465.073-.629.221s-.246.339-.246.576h-.949c0-.292.077-.558.232-.797s.371-.427.648-.561.588-.201
  .932-.201c.567 0 1.014.143 1.338.428s.486.682.486 1.189c0 .255-.081.495-.244.721s-.373.396-.631.51c.312.106.55.274.713
  .504s.244.503.244.82c0 .511-.175.917-.525 1.219s-.811.454-1.381.454c-.547 0-.995-.146-1.344-.438s-.523-.68-.523-1.164h
  .949c0 .25.084.453.252.609s.394.234.678 .234c.294 0 .526-.078.695-.234s.254-.383.254-.68c0-.3-.089-.53-.266-.691s-.44
  -.242-.789-.242h-.559v-.749h.001z"/>
  <circle cx="5.902" cy="20.599" r="2.5" />
  <circle cx="16.153" cy="20.599" r="2.5"/>
  <circle cx="26.098" cy="20.599" r="2.5"/>
  <path d="M8.402 20.599h5.251M18.653 20.599h4.945M4.137 18.834l3.53 3.53"/>
</svg>
