<svg xmlns="http://www.w3.org/2000/svg" viewBox="0 0 32 32"
    fill="none" stroke="#000" stroke-linejoin="round" stroke-miterlimit="10" >
  <path d="M25.7 25.3H6.3c-1.7 0-3-1.4-3-3V11c0-1.6 1.4-3 3-3h19.3c1.6 0 3 1.4 3 3v11.4c.1 1.6-1.3 2.9-2.9 2.9zM11.3 8v
  -.7c0-1.7 1.4-3 3-3h3.4c1.6 0 3 1.3 3 3V8M9.7 17.7v7.6M9.7 8.3v1.8M22.4 22.2v3.1M22.4 10.1v5.5M10.4 27.7h-4M25.6 
  27.7h-4"/>
  <circle cx="12.3" cy="13.7" r="2.4"/>
  <path stroke-linejoin="miter" d="M17.4504046 19.8168972l4.20086-2.10748 1.21068 2.41326-4.20086 2.10748z"/>
</svg>
