<svg viewBox="0 0 20 20" stroke="#6e6e6e" stroke-miterlimit="10" stroke-linejoin="round" fill="none" xmlns="http://www.w3.org/2000/svg">
  <path d="M1.875 12.224c0-1.194 1.378-2.16 3.077-2.16 1.7 0 3.076.966 3.076 2.16m-3.077-3.23a2.135 2.135 0 1 0 0-4.27 2.135 2.135 0 0 0 0 4.27zm3.084.66c0-1.193 1.377-2.16 3.076-2.16.73 0 1.398.177 1.925.475m-1.924-1.547a2.135 2.135 0 1 0 0-4.27 2.135 2.135 0 0 0 0 4.27zm2.639 8.64a1.588 1.588 0 1 0 0-3.177 1.588 1.588 0 0 0 0 3.176z"/>
  <path d="m16.764 11.561.55-.713-.97-.94-.713.552-1.102-.455-.098-.907h-1.362l-.13.907-1.102.454-.713-.55-.94.94.552.712-.455 1.102-.907.13v1.36l.907.098.454 1.103-.55.745.94.94.744-.551 1.102.454.097.907h1.362l.13-.907 1.07-.454.744.55.94-.971-.55-.713.454-1.102.907-.097v-1.362l-.907-.13-.454-1.101z"/>
</svg>