<svg xmlns="http://www.w3.org/2000/svg" fill="none" viewBox="0 0 32 32" stroke="#000" stroke-linejoin="round">
  <path d="m16.5 29.722c-8.3679 0-15.151-6.3515-15.151-14.187 0-7.835 6.7834-14.187 15.151-14.187 8.3679 0 15.151 6.3515 15.151 14.187 0 1.0049-0.1117 1.9854-0.32389 2.9313m-14.827 11.255c0.08649 0 0.17283-6.79e-4 0.25889-2e-3z" stroke="#6e6e6e" stroke-miterlimit="10" stroke-width="1.6975"/>
  <path d="m6.6271 22.87c0-1.7587 2.1674-3.1842 4.8407-3.1842 2.6733 0 4.8407 1.4256 4.8407 3.1842" stroke="#6e6e6e" stroke-linejoin="round" stroke-miterlimit="10" stroke-width="1.6975"/>
  <path d="m11.472 18.11c1.8556 0 3.3598-1.4086 3.3598-3.1461s-1.5043-3.1459-3.3598-3.1459c-1.8556 0-3.3598 1.4085-3.3598 3.1459 0 1.7374 1.5043 3.1461 3.3598 3.1461z" stroke="#6e6e6e" stroke-linejoin="round" stroke-miterlimit="10" stroke-width="1.6975"/>
  <path d="m16.322 19.083c0-1.7587 2.1674-3.1842 4.8407-3.1842 1.146 0 2.199 0.26196 3.0282 0.69984" stroke="#6e6e6e" stroke-linejoin="round" stroke-miterlimit="10" stroke-width="1.6975"/>
  <path d="m21.154 14.322c1.8556 0 3.3598-1.4085 3.3598-3.1459 0-1.7374-1.5042-3.1459-3.3598-3.1459-1.8558 0-3.3599 1.4085-3.3599 3.1459 0 1.7374 1.5042 3.1459 3.3599 3.1459z" stroke="#6e6e6e" stroke-linejoin="round" stroke-miterlimit="10" stroke-width="1.6975"/>
  <path d="m24.907 31.086c3.3793 0 6.1188-2.5652 6.1188-5.7292 0-3.1642-2.7395-5.7292-6.1188-5.7292s-6.1188 2.565-6.1188 5.7292c0 3.164 2.7395 5.7292 6.1188 5.7292z" stroke="#6e6e6e" stroke-linejoin="round" stroke-miterlimit="10" stroke-width="1.6975"/>
  <path d="m24.255 24.02h0.65169c3.3793 0 6.1188 0.59872 6.1188 1.337 0 0.73826-2.7395 1.3368-6.1188 1.3368-3.3793 0-6.1188-0.59855-6.1188-1.3368 0-0.54848 1.5113-1.0199 3.674-1.2256l0.28756-0.02258" stroke="#6e6e6e" stroke-linejoin="round" stroke-miterlimit="10" stroke-width="1.6975"/>
  <path d="m26.204 27.79c-0.22815 1.9474-0.72112 3.2959-1.2928 3.2959-0.78851 0-1.4278-2.5652-1.4278-5.7292 0-3.1642 0.63929-5.7292 1.4278-5.7292 0.59736 0 1.1088 1.4716 1.322 3.5606" stroke="#6e6e6e" stroke-linejoin="round" stroke-miterlimit="10" stroke-width="1.6975"/>
</svg>
