<svg viewBox="0 0 32 32" stroke="#6e6e6e" stroke-linejoin="round" fill="none" xmlns="http://www.w3.org/2000/svg">
  <path d="M2.643 19.655c0-1.963 2.265-3.55 5.058-3.55 2.795 0 5.057 1.587 5.057 3.55M7.7 14.345a3.51 3.51 0 1 0 0-7.02 3.51 3.51 0 0 0 0 7.02zm5.07 1.085c0-1.96 2.263-3.55 5.056-3.55 1.2 0 2.299.29 3.165.78m-3.163-2.543a3.51 3.51 0 1 0 0-7.02 3.51 3.51 0 0 0 0 7.02zm4.339 14.204a2.611 2.611 0 1 0 0-5.223 2.61 2.61 0 0 0 0 5.221z"/>
  <path d="m27.12 18.565.904-1.172-1.595-1.545-1.172.907-1.811-.748-.162-1.49h-2.239l-.213 1.49-1.812.747-1.172-.904-1.546 1.545.908 1.17-.748 1.812-1.491.214v2.236l1.491.16.746 1.814-.904 1.225 1.545 1.545 1.224-.906 1.811.747.16 1.49h2.239l.213-1.49 1.76-.747 1.223.904 1.545-1.596-.904-1.172.746-1.812 1.491-.16v-2.238l-1.49-.214-.747-1.81z"/>
</svg>