<svg xmlns="http://www.w3.org/2000/svg" viewBox="0 0 32 32"
    fill="none" stroke="#000" stroke-linejoin="round" stroke-miterlimit="10" >
  <path d="M20.388 21.832c-.434-.237-.789-.633-.789-.88 0-.248.401-.508.891-.578l5.408-.772c-3.149-2.25-3.599-11.705
  -3.599-11.705C21.78 4.832 19.158 2.5 16 2.5c-3.158 0-5.78 2.332-6.299 5.397 0 0-.45 9.455-3.599 11.705l5.408.772c.49
  .07.891.33.891.578 0 .248-.356.643-.791.88L2.503 26.8v1.8c0 .494.404.9.9.9h25.195c.494 0 .9-.406.9-.9v-1.8l-9.11
  -4.968z"/>
</svg>
