<svg xmlns="http://www.w3.org/2000/svg" viewBox="0 0 32 32"
    fill="none" stroke="#000" stroke-linejoin="round" stroke-miterlimit="10" >
  <path d="M27.547 2.085h-5.6c-.66 0-1.2.54-1.2 1.2v5.6c0 .66.54 1.2 1.2 1.2h5.6c.66 0 1.2-.54 1.2-1.2v-5.6c0-.66-.54
  -1.2-1.2-1.2zM8.721 11.668h-5.6c-.66 0-1.2.54-1.2 1.2v5.6c0 .66.54 1.2 1.2 1.2h5.6c.66 0 1.2-.54 1.2-1.2v-5.6c0-.66
  -.54-1.2-1.2-1.2zM2.25 12.049l7.291 7.292M21.075 2.466l7.291 7.291M9.921 15.794h5.159V7.082c0-.551.446-.997.997-.997h4
  .67M26.089 24.582l-3.42-1.969v-4.257"/>
  <circle cx="22.669" cy="22.506" r="7.41"/>
</svg>
