<svg xmlns="http://www.w3.org/2000/svg" viewBox="0 0 32 32" stroke="#000" fill="none" stroke-linejoin="round" stroke-miterlimit="10">
  <path d="M28.2 2.3h-5.6c-.7 0-1.2.5-1.2 1.2v5.6c0 .7.5 1.2
  1.2 1.2h5.6c.7 0 1.2-.5 1.2-1.2V3.5c0-.6-.5-1.2-1.2-1.2zM9.4 11.9H3.8c-.7 0-1.2.5-1.2 1.2v5.6c0 .7.5 1.2 1.2
  1.2h5.6c.7 0 1.2-.5 1.2-1.2v-5.6c0-.6-.6-1.2-1.2-1.2zM2.9 12.3l7.3 7.3M21.7 2.7L29 10M28.2 21.5h-5.6c-.7 0-1.2.5-1.2
  1.2v5.6c0 .7.5 1.2 1.2 1.2h5.6c.7 0 1.2-.5 1.2-1.2v-5.6c0-.7-.6-1.2-1.2-1.2zM21.7 21.9l7.3 7.3M10.6 16h5.2V7.3c0-.6.4
  -1 1-1h4.7M21.4 25.5h-4.6c-.5 0-1-.4-1-1V16h-5.2"/>
</svg>
