<?xml version="1.0" encoding="utf-8"?>
<svg version="1.1" id="Layer_1" xmlns="http://www.w3.org/2000/svg" xmlns:xlink="http://www.w3.org/1999/xlink" x="0px" y="0px"
	 viewBox="0 0 140 140" xml:space="preserve">
<style type="text/css">
	.st0{fill:#FFD800;}
</style>
<path class="st0" d="M70.1,9.2L0,130.4h140L70.1,9.2z M54,115.9V69.7l1.4-6.4l40,23.1l4.9,4.5l-40,23.1L54,115.9z M56.1,60.6
	l1.9-8.7l28.6,26.4L56.1,60.6z M51.4,116.7l-8.5,2.6l8.5-37.9C51.4,81.5,51.4,116.7,51.4,116.7z M102.5,92.7l6.6,6l-37.2,11.7
	L102.5,92.7z M59.3,48.5l2.7-7.3l32.4,39.6L59.3,48.5z M39.4,120.1l-7.7,1.3l18.1-48.1L39.4,120.1z M111.4,101.4l4.9,6l-50.6,8.3
	L111.4,101.4z M63.2,36.3l2.8-5.9l34.7,51.7L63.2,36.3z M27,122.8l-6.5,0.4L48,67.4L27,122.8z M119.9,110.9l3.6,5.4l-62.1,4.2
	L119.9,110.9z M104.9,80.2l-37.5-56l2.6-4.6L104.9,80.2z M44.1,64.6l-29.7,60.5H9.1L44.1,64.6z M60.9,125.2l67.3-4.6l2.6,4.6H60.9z"
	/>
</svg>
