<svg version="1.1"
    xmlns="http://www.w3.org/2000/svg" width="274" height="237" viewBox="0 0 273.663 236.999" shape-rendering="geometricPrecision" fill="#FFD800">
    <path d="M136.837,0L0,236.999h273.663L136.837,0zM105.679,208.718V118.234l2.807-12.56l78.366,45.229l9.476,8.72l-78.373,45.249L105.679,208.718zM109.667,100.394l3.796-16.972l55.982,51.475L109.667,100.394zM100.522,210.336l-16.594,5.198l16.594-74.219V210.336zM200.31,163.282l12.803,11.772l-72.587,22.743L200.31,163.282zM115.834,76.838l5.381-14.248l63.484,77.572L115.834,76.838zM77.042,216.773l-15.032,2.458l35.443-93.772L77.042,216.773zM217.627,180.399l9.645,11.781l-98.927,16.194L217.627,180.399zM123.411,53.048l5.594-11.4l67.77,101.046L123.411,53.048zM52.647,222.102l-12.67,0.855L93.61,113.734L52.647,222.102zM234.439,198.855l7.072,10.545l-121.396,8.167L234.439,198.855zM205.122,138.931L131.726,29.489l5.111-8.846L205.122,138.931zM86.166,108.4L28.089,226.681h-10.214L86.166,108.4zM119.158,226.681L250.677,217.833l5.11,8.848H119.158z"/>
</svg>
