<svg width="32" height="32" viewBox="0 0 32 32" fill="none" xmlns="http://www.w3.org/2000/svg">
<path fill-rule="evenodd" clip-rule="evenodd" d="M15.8 3.2L15.5154 2.06155L15 0L14.4846 2.06155L14.2 3.2L13.0616 3.48461L11 4L13.0616 4.51539L14.2 4.8L14.4846 5.93845L15 8L15.5154 5.93845L15.8 4.8L16.9384 4.51539L19 4L16.9384 3.48461L15.8 3.2ZM13 11.5C8.30558 11.5 4.5 15.3056 4.5 20C4.5 24.6944 8.30558 28.5 13 28.5C17.6944 28.5 21.5 24.6944 21.5 20C21.5 15.3056 17.6944 11.5 13 11.5ZM3.5 20C3.5 14.7533 7.75329 10.5 13 10.5C18.2467 10.5 22.5 14.7533 22.5 20C22.5 25.2467 18.2467 29.5 13 29.5C7.75329 29.5 3.5 25.2467 3.5 20ZM11.2002 17.7002H13.0002C13.2763 17.7002 13.5002 17.9241 13.5002 18.2002V24H15.6998V25H10.2998V24H12.5002V18.7002H11.2002V17.7002ZM13.0001 16.4001C13.4972 16.4001 13.9001 15.9972 13.9001 15.5001C13.9001 15.003 13.4972 14.6001 13.0001 14.6001C12.503 14.6001 12.1001 15.003 12.1001 15.5001C12.1001 15.9972 12.503 16.4001 13.0001 16.4001ZM28.5154 14.0616L28.8 15.2L29.9384 15.4846L32 16L29.9384 16.5154L28.8 16.8L28.5154 17.9384L28 20L27.4846 17.9384L27.2 16.8L26.0616 16.5154L24 16L26.0616 15.4846L27.2 15.2L27.4846 14.0616L28 12L28.5154 14.0616ZM24.5154 4.06155L25 6L26.9384 6.48461L29 7L26.9384 7.51539L25 8L24.5154 9.93845L24 12L23.4846 9.93845L23 8L21.0616 7.51539L19 7L21.0616 6.48461L23 6L23.4846 4.06155L24 2L24.5154 4.06155ZM24.7575 6.97014L24.8769 7L24.7575 7.02986L24.1754 7.17538L24.0299 7.75746L24 7.87689L23.9701 7.75746L23.8246 7.17538L23.2425 7.02986L23.1231 7L23.2425 6.97014L23.8246 6.82462L23.9701 6.24254L24 6.12311L24.0299 6.24254L24.1754 6.82462L24.7575 6.97014Z" fill="black"/>
</svg>
