<svg xmlns="http://www.w3.org/2000/svg" viewBox="0 0 32 32" stroke="#000" fill="none" stroke-linejoin="round">
  <path d="M25.512 21.149c2.44-1.172 4.124-3.663 4.124-6.551
  0-4.018-3.255-7.273-7.273-7.273-.154 0-.309.009-.463.027-1.118-3.192-4.146-5.482-7.718-5.482C9.665 1.87 6 5.533 6
  10.052c0 .409.037.8.101 1.191-2.173.717-3.738 2.763-3.738 5.172 0 1.862.938 3.509 2.365 4.493M23.426 13.61h-3.405c
  -.401 0-.73.328-.73.73v3.405c0 .401.328.73.73.73h3.405c.401 0 .73-.328.73-.73V14.34c
  -.001-.402-.329-.73-.73-.73zM11.979 19.437H8.574c-.401 0-.73.328-.73.73v3.405c0 .401.328.73.73.73h3.405c.401 0 .73
  -.328.73-.73v-3.405c0-.402-.328-.73-.73-.73zM23.401 25.266h-3.405c-.401 0-.73.328-.73.73V29.4c0 .401.328.73.73.73h3
  .405c.401 0 .73-.328.73-.73v-3.405c-.001-.401-.329-.729-.73-.729zM12.709 21.945h3.137v-5.297c0-.335.271-.606.606
  -.606h2.839M19.266 27.698h-2.815c-.334 0-.605-.271-.605
  -.605v-5.147h-3.137"/>
</svg>
