<svg xmlns="http://www.w3.org/2000/svg" viewBox="0 0 32 32" fill="none" stroke="#000" stroke-linejoin="round">
<path d="M4.808 6.808A13 13 0 1 0 27 16V3"/>
<path d="M22.24 7.76 27 3l4.76 4.76M19.065 10.131h-2.473a.532.532 0 0 0-.53.53v2.473c0 .291.238.53.53.53h2.473c.291 0 .53-.238.53-.53v-2.473a.532.532 0 0 0-.53-.53zM10.753 14.363H8.28a.532.532 0 0 0-.53.53v2.473c0 .29.238.53.53.53h2.473c.291 0 .53-.239.53-.53v-2.473a.532.532 0 0 0-.53-.53zM19.047 18.596h-2.473a.532.532 0 0 0-.53.53v2.473c0 .29.238.53.53.53h2.473c.291 0 .53-.238.53-.53v-2.473a.532.532 0 0 0-.53-.53z" stroke-miterlimit="10"/>
<path d="M11.283 16.185h2.278v-3.847a.44.44 0 0 1 .44-.44h2.062" stroke-miterlimit="10"/>
<path d="M16.045 20.362H14a.44.44 0 0 1-.439-.44v-3.737h-2.278" stroke-miterlimit="10"/>
</svg>