<svg xmlns="http://www.w3.org/2000/svg" fill="none" stroke="#000" viewBox="0 0 32 32">
  <path d="M28.778 16c0-7.18-5.82-13-13-13s-13 5.82-13 13 5.82 13 13 13 
  M11.462 18.36a2.883 2.883 0 1 0 0-5.766 2.883 2.883 0 0 0 0 5.765Zm8.316-3.473a2.883 2.883 0 1 0 0-5.765 2.883 2.883 0 0 0 0 5.765ZM23 30.5a6.5 6.5 0 1 0 0-13 6.5 6.5 0 0 0 0 13Z
  M22.308 22.143H23c3.59 0 6.5.831 6.5 1.857s-2.91 1.857-6.5 1.857-6.5-.831-6.5-1.857c0-.762 1.605-1.417 3.903-1.703l.305-.03
  M24.818 26.76c-.309 2.21-.975 3.74-1.747 3.74-1.065 0-1.928-2.91-1.928-6.5s.863-6.5 1.928-6.5c.807 0 1.498 1.67 1.786 4.04m0 1.531v1.75m-8.937-5.573c0-1.612 1.86-2.918 4.153-2.918M7.31 22.718c0-1.612 1.86-2.918 4.154-2.918 1.01 0 1.938.254 2.658.676"/>
</svg>
