<svg version="1.1" xmlns="http://www.w3.org/2000/svg" width="910" height="237" viewBox="0 0 910 236.999" shape-rendering="geometricPrecision"><path fill="#FFD800" d="M136.837,0L0,236.999h273.663L136.837,0zM105.679,208.718V118.234l2.807-12.56l78.366,45.229l9.476,8.72l-78.373,45.249L105.679,208.718zM109.667,100.394l3.796-16.972l55.982,51.475L109.667,100.394zM100.522,210.336l-16.594,5.198l16.594-74.219V210.336zM200.31,163.282l12.803,11.772l-72.587,22.743L200.31,163.282zM115.834,76.838l5.381-14.248l63.484,77.572L115.834,76.838zM77.042,216.773l-15.032,2.458l35.443-93.772L77.042,216.773zM217.627,180.399l9.645,11.781l-98.927,16.194L217.627,180.399zM123.411,53.048l5.594-11.4l67.77,101.046L123.411,53.048zM52.647,222.102l-12.67,0.855L93.61,113.734L52.647,222.102zM234.439,198.855l7.072,10.545l-121.396,8.167L234.439,198.855zM205.122,138.931L131.726,29.489l5.111-8.846L205.122,138.931zM86.166,108.4L28.089,226.681h-10.214L86.166,108.4zM119.158,226.681L250.677,217.833l5.11,8.848H119.158z"/><path fill="#3e3a39" d="M339.04,47.06c0,11.365-6.619,18.438-17.072,18.438c-10.305,0-17.073-7.123-17.073-18.183c0-11.215,6.869-18.284,17.525-18.284C332.373,29.032,339.04,36.204,339.04,47.06zM310.349,47.161c0,8.588,4.648,14.195,11.666,14.195c6.869,0,11.569-5.655,11.569-14.093c0-8.688-4.497-14.19-11.569-14.19C315.097,33.073,310.349,38.83,310.349,47.161zM346.972,46.757c0-2.728-0.047-5.456-0.25-7.624h4.594c0.101,1.057,0.202,2.827,0.202,4.14h0.101c2.02-3.233,4.95-4.748,8.842-4.748c6.615,0,11.059,5.254,11.059,13.132c0,8.184-4.492,13.84-11.159,13.84c-3.993,0-7.071-2.12-8.641-4.95h-0.101c0.101,1.01,0.154,4.85,0.154,6.365v8.587h-4.801V46.757zM351.72,52.063c0,5.153,3.334,9.444,7.577,9.444c4.445,0,7.226-4.244,7.226-9.444c0-5.709-2.829-9.548-7.226-9.548C355.055,42.514,351.72,46.709,351.72,52.063zM382.164,53.175c0.205,5.201,3.739,8.284,8.945,8.284c2.978,0,5.2-0.706,7.524-1.919l0.153,4.392c-2.322,1.063-4.902,1.567-7.979,1.567c-8.588,0-13.489-5.206-13.489-13.69c0-8.129,4.949-13.282,12.276-13.282c6.767,0,11.06,4.089,11.06,12.778c0,0.504-0.049,1.312-0.101,1.87H382.164zM395.958,49.485c0-4.95-2.729-7.323-6.52-7.323c-3.785,0-6.768,2.729-7.172,7.323H395.958zM412.653,43.274c1.92-2.929,4.848-4.748,8.586-4.748c7.273,0,9.599,4.797,9.599,11.619v14.748h-4.803v-12.728c0-5.051-0.503-9.651-5.961-9.651c-2.523,0-4.849,1.467-6.162,3.69c-0.809,1.415-1.212,3.333-1.212,6.365v12.323h-4.795V46.757c0-2.728-0.054-5.456-0.255-7.624h4.699c0.101,1.111,0.201,2.775,0.201,4.14H412.653zM467.421,30.796c-0.859-0.202-1.716-0.304-2.475-0.304c-3.182,0-4.345,1.872-4.345,6.265v2.525h6.922v3.79h-6.922v21.821h-4.749V43.073h-6.107v-3.79h6.107v-2.425c0-6.164,2.121-10.353,8.385-10.353c1.265,0,2.276,0.101,3.536,0.404L467.421,30.796zM497.496,52.165c0,7.879-5.456,13.334-13.241,13.334c-7.625,0-13.233-5.556-13.233-13.334c0-8.083,5.508-13.639,13.388-13.639C492.041,38.526,497.496,44.185,497.496,52.165zM476.126,52.165c0,5.659,3.334,9.341,8.232,9.341c4.699,0,8.134-3.737,8.134-9.341c0-5.759-3.435-9.651-8.283-9.651C479.508,42.514,476.126,46.453,476.126,52.165zM509.475,43.476c1.467-2.929,3.94-4.95,7.226-4.95c1.008,0,1.819,0.101,2.471,0.351v4.498c-0.606-0.255-1.463-0.404-2.574-0.404c-4.445,0-7.123,3.686-7.123,10.253v11.669H504.678V46.757c0-2.728-0.052-5.456-0.255-7.624h4.749c0.155,1.312,0.201,3.029,0.201,4.343H509.475zM543.985,64.893h-5.152V29.638h5.152V64.893zM558.3,43.274c1.92-2.929,4.849-4.748,8.586-4.748c7.274,0,9.597,4.797,9.597,11.619v14.748H571.682v-12.728c0-5.051-0.505-9.651-5.96-9.651c-2.523,0-4.848,1.467-6.162,3.69c-0.807,1.415-1.213,3.333-1.213,6.365v12.323h-4.793V46.757c0-2.728-0.054-5.456-0.257-7.624h4.701c0.103,1.111,0.201,2.775,0.201,4.14H558.3zM589.877,43.274c1.92-2.929,4.848-4.748,8.586-4.748c7.274,0,9.599,4.797,9.599,11.619v14.748H603.265v-12.728c0-5.051-0.505-9.651-5.958-9.651c-2.527,0-4.852,1.467-6.164,3.69c-0.809,1.415-1.211,3.333-1.211,6.365v12.323h-4.801V46.757c0-2.728-0.048-5.456-0.25-7.624h4.695c0.099,1.111,0.201,2.775,0.201,4.14H589.877zM641.525,52.165c0,7.879-5.455,13.334-13.235,13.334c-7.623,0-13.233-5.556-13.233-13.334c0-8.083,5.509-13.639,13.388-13.639C636.07,38.526,641.525,44.185,641.525,52.165zM620.163,52.165c0,5.659,3.335,9.341,8.231,9.341c4.7,0,8.135-3.737,8.135-9.341c0-5.759-3.435-9.651-8.284-9.651C623.544,42.514,620.163,46.453,620.163,52.165zM654.929,54.84c0.553,1.616,1.362,4.443,1.819,6.214h0.101c0.505-1.771,1.415-4.699,1.92-6.214l5.254-15.706h4.848l-9.447,25.759h-5.657l-9.295-25.759h5.206L654.929,54.84zM674.644,40.695c2.425-1.461,5.556-2.169,8.588-2.169c7.528,0,10.357,4.345,10.357,10.204c0,3.28-0.103,7.321-0.103,8.383c0,2.829,0.103,5.909,0.304,7.78h-4.296c-0.048-0.403-0.1-1.366-0.1-2.121c0-0.66,0.052-1.569,0.1-2.276h-0.1c-1.767,3.083-4.594,4.749-8.586,4.749c-5.455,0-8.991-3.033-8.991-7.78c0-5.355,4.848-8.385,13.537-8.385c1.064,0,2.477,0.053,3.636,0.155v-0.203c0-4.343-2.169-6.566-6.566-6.566c-2.626,0-5.403,1.01-7.476,2.473L674.644,40.695zM686.418,52.516c-6.365,0-9.498,1.515-9.498,4.95c0,2.525,1.968,4.041,4.898,4.041c2.882,0,5.304-1.462,6.415-3.785c0.553-1.165,0.811-2.829,0.811-5.105C688.485,52.57,687.576,52.516,686.418,52.516zM709.215,39.283h6.918v3.79h-6.918v11.314c0,4.088,0.553,6.917,4.445,6.917c1.012,0,1.865-0.202,2.777-0.607l0.153,3.792c-1.163,0.451-2.626,0.707-4.093,0.707c-6.514,0-8.029-3.94-8.029-9.496v-12.628h-5.912v-3.79h5.912v-6.063l4.747-1.616V39.283zM727.644,34.485h-5.353v-5.305h5.353V34.485zM727.394,64.893h-4.849V39.134h4.849V64.893zM761.061,52.165c0,7.879-5.455,13.334-13.233,13.334c-7.625,0-13.235-5.556-13.235-13.334c0-8.083,5.508-13.639,13.388-13.639C755.606,38.526,761.061,44.185,761.061,52.165zM739.698,52.165c0,5.659,3.333,9.341,8.229,9.341c4.702,0,8.137-3.737,8.137-9.341c0-5.759-3.435-9.651-8.284-9.651C743.079,42.514,739.698,46.453,739.698,52.165zM772.993,43.274c1.918-2.929,4.848-4.748,8.586-4.748c7.272,0,9.595,4.797,9.595,11.619v14.748h-4.793v-12.728c0-5.051-0.505-9.651-5.962-9.651c-2.524,0-4.848,1.467-6.162,3.69c-0.807,1.415-1.211,3.333-1.211,6.365v12.323h-4.801V46.757c0-2.728-0.048-5.456-0.25-7.624h4.693c0.103,1.111,0.203,2.775,0.203,4.14H772.993zM331.314,100.995v62.792h0.584l49.847-62.792h29.891l-50.628,64.057l65.618,71.947h-33.684l-61.628-66.784v66.784H305.027V100.995H331.314zM462.722,100.995l80.806,94.924V100.995h25.703v136.004h-22.588l-81.296-96.478v96.478h-25.701V100.995H462.722zM625.113,100.995v136.004h-26.288V100.995H625.113zM678.341,100.995l44.69,53.642l44.682-53.642h23.462v136.004h-26.286V141.493h-0.776l-39.329,47.9h-3.706l-39.325-47.9h-0.78v95.506h-26.288V100.995H678.341zM908.415,100.995v20.542h-61.628v35.724h59v20.548h-59v38.646h62.995v20.544h-89.277V100.995H908.415z"/></svg>
