<svg xmlns="http://www.w3.org/2000/svg" viewBox="0 0 32 32"
    fill="none" stroke="#000" stroke-linejoin="round">
  <path d="M20.616 10.956h-2.05c-.242 0-.439.198-.439.439v2.05c0 .242.198.439.439.439h2.05c.242 0 .439-.198.439-.439v
  -2.05c0-.241-.197-.439-.439-.439zM13.725 14.464h-2.05c-.242 0-.439.198-.439.439v2.05c0 .242.198.439.439.439h2.05c.242
  0 .439-.198.439-.439v-2.05c0-.241-.198-.439-.439-.439zM20.601 17.973h-2.05c-.242 0-.439.198-.439.439v2.05c0 .242.198
  .439.439.439h2.05c.242 0 .439-.198.439-.439v-2.05c0-.241-.197-.439-.439-.439zM14.164 15.974h1.888v-3.189c0-.202.163
  -.365.365-.365h1.71M18.112 19.438h-1.695c-.201 0-.364-.163-.364-.364v-3.099h-1.888M22.431 22.267l1.195 1.196M8.295
  8.131l4.02 4.02M22.431 9.056L23.6 7.887M8.024 23.463l3.06-3.06M8.2 27.038c3.1 2.189 7.099 3.066 11.07 2.076 1.612-.402
   3.083-1.077 4.377-1.965M4.949 8.218C2.77 11.316 1.898 15.307 2.886 19.27c.377 1.514.996 2.903 1.805 4.138M23.32
   4.638c-3.027-1.949-6.821-2.692-10.589-1.752-1.554.388-2.978 1.03-4.238 1.871M27.201 23.564c2.069-3.065 2.878-6.963
   1.913-10.833-.43-1.725-1.174-3.29-2.156-4.648"/>
  <circle cx="25.364" cy="6.123" r="2.53"/>
  <circle cx="6.55" cy="6.306" r="2.53"/>
  <circle cx="25.364" cy="25.298" r="2.53"/>
  <circle cx="6.367" cy="25.298" r="2.53"/>
</svg>
