<svg xmlns="http://www.w3.org/2000/svg" viewBox="0 0 32 32" stroke="#000" fill="none" stroke-linejoin="round">
  <path d="M19.24 12.361V4.415c0-1.1-.9-1.999-1.999-1.999H5.243c-1.102 0-2.003.901-2.003 2.003v12c0 1.098.899 1.997
  1.997 1.997h3.688M3.828 3.004l11.194 11.194M28.031 13.064h-3.405c-.401 0-.73.328-.73.73v3.405c0 .401.328.73.73.73h3
  .405c.401 0 .73-.328.73-.73v-3.405c-.001-.402-.329-.73-.73-.73zM16.584 18.891h-3.405c-.401 0-.73.328-.73.73v3.405c0
  .401.328.73.73.73h3.405c.401 0 .73-.328.73-.73V19.62c0-.401-.329-.729-.73-.729zM28.006 24.72h-3.405c-.401 0-.73.328
  -.73.73v3.405c0 .401.328.73.73.73h3.405c.401 0 .73-.328.73-.73V25.45c-.001-.402-.329-.73-.73-.73zM17.314 21.4h3.137v
  -5.297c0-.335.271-.606.606-.606h2.839M23.871 27.152h-2.815c-.334 0-.605-.271-.605-.605V21.4h-3.137"/>
</svg>
