<svg xmlns="http://www.w3.org/2000/svg" viewBox="0 0 32 32" stroke="#000" stroke-linejoin="round" fill="none">
  <path d="M29.5,7.6c-1,0.4-2.1,0.7-3.2,0.9
  c1.1-0.7,2-1.8,2.4-3.1c-1.1,0.6-2.3,1.1-3.5,1.3c-1-1.1-2.5-1.8-4-1.8c-3.1,0-5.5,2.5-5.5,5.5c0,0.4,0,0.9,0.1,1.3
  C11.2,11.6,7.1,9.4,4.4,6C3.9,6.9,3.6,7.8,3.6,8.8c0,1.9,1,3.6,2.5,4.6c-0.9,0-1.8-0.3-2.5-0.7c0,0,0,0,0,0.1c0,2.7,1.9,
  4.9,4.4,5.4c-0.5,0.1-0.9,0.2-1.5,0.2c-0.4,0-0.7,0-1-0.1c0.7,2.2,2.8,3.8,5.2,3.9c-1.9,1.5-4.3,2.4-6.9,2.4c-0.5,0-0.9,0
  -1.3-0.1C5,26.1,7.9,27,11,27c10.2,0,15.8-8.4,15.8-15.8c0-0.2,0-0.5,0-0.7C27.8,9.7,28.7,8.7,29.5,7.6z" />
</svg>
