<svg xmlns="http://www.w3.org/2000/svg" viewBox="0 0 32 32" fill="none" stroke="#000" stroke-linejoin="round">
<path d="M6 21.0039C6 19.0938 8.20409 17.5457 10.9225 17.5457C13.641 17.5457 15.8451 19.0938 15.8451 21.0039" stroke="black" stroke-miterlimit="10" stroke-linejoin="round"/>
<path d="M10.9218 15.8333C12.8088 15.8333 14.3385 14.3036 14.3385 12.4167C14.3385 10.5297 12.8088 9 10.9218 9C9.03485 9 7.50516 10.5297 7.50516 12.4167C7.50516 14.3036 9.03485 15.8333 10.9218 15.8333Z" stroke="black" stroke-miterlimit="10" stroke-linejoin="round"/>
<path d="M15.8556 16.889C15.8556 14.9789 18.0597 13.4307 20.7781 13.4307C21.9435 13.4307 23.0143 13.7152 23.8575 14.1908" stroke="black" stroke-miterlimit="10" stroke-linejoin="round"/>
<path d="M20.7781 11.7184C22.6651 11.7184 24.1948 10.1887 24.1948 8.30174C24.1948 6.41477 22.6651 4.88507 20.7781 4.88507C18.8911 4.88507 17.3615 6.41477 17.3615 8.30174C17.3615 10.1887 18.8911 11.7184 20.7781 11.7184Z" stroke="black" stroke-miterlimit="10" stroke-linejoin="round"/>
<path d="M11 22.2L16.8 27.6L25.7 17" stroke="black" stroke-miterlimit="10" stroke-linejoin="round"/>
</svg>
