<svg xmlns="http://www.w3.org/2000/svg" viewBox="0 0 32 32"
    fill="none" stroke="#000" stroke-linejoin="round">
  <path d="M16 28.302c0 1.824 6.163 2.317 6.163-1.134 0 0 5.818.345 3.846-4.931 0 0 4.832-3.424 1.035-7.122 0 0 2.367
  -2.061 1.035-5.457s-4.586-4.087-4.586-4.087S20.487-.543 16 3.895M16 28.302c0 1.824-6.163 2.317-6.163-1.134 0 0-5.818
  .345-3.846-4.931 0 0-4.832-3.424-1.035-7.122 0 0-2.367-2.061-1.035-5.457s4.586-4.087 4.586-4.087S11.513-.543 16
  3.895M16 9.22h5.304M26.009 22.237V19.18h-5.67v-1.766M16 23.371h2.801M16 18.44h-4.454v2.21M16 12.277h-2.958V9.22h
  -1.52"/>
  <line stroke-linecap="round" x1="0" y1="0" x2="0" y2="0" transform="translate(21.1, 23.4) scale(1.6)" />
  <line stroke-linecap="round" x1="0" y1="0" x2="0" y2="0" transform="translate(20.4, 15.1) scale(1.6)" />
  <line stroke-linecap="round" x1="0" y1="0" x2="0" y2="0" transform="translate(9.5, 15.1) scale(1.6)" />
  <line stroke-linecap="round" x1="0" y1="0" x2="0" y2="0" transform="translate(9.2, 9.2) scale(1.6)" />
  <line stroke-linecap="round" x1="0" y1="0" x2="0" y2="0" transform="translate(23.6, 9.2) scale(1.6)" />
  <line stroke-linecap="round" x1="0" y1="0" x2="0" y2="0" transform="translate(11.6, 23) scale(1.6)" />
  <path d="M4.955 15.115h2.259M16 3.895v24.407"/>
</svg>
