<svg xmlns="http://www.w3.org/2000/svg" viewBox="0 0 32 32" stroke="#000" fill="none" stroke-linejoin="round">
    <path d="M19.632 19.8495L19.5523 20.0523L19.3495 20.132L15.8674 21.5L19.3495 22.868L19.5523 22.9477L19.632 23.1505L21 26.6326L22.368 23.1505L22.4477 22.9477L22.6505 22.868L26.1326 21.5L22.6505 20.132L22.4477 20.0523L22.368 19.8495L21 16.3674L19.632 19.8495Z"/>
    <path d="M3.5 17V30H29.5V4H16.5"/>
    <path d="M8.23219 8.40239L8.15424 8.65424L7.90239 8.73219L2.191 10.5L7.90239 12.2678L8.15424 12.3458L8.23219 12.5976L10 18.309L11.7678 12.5976L11.8458 12.3458L12.0976 12.2678L17.809 10.5L12.0976 8.73219L11.8458 8.65424L11.7678 8.40239L10 2.691L8.23219 8.40239Z"/>
</svg>
