<svg viewBox="0 0 32 32" fill="none" xmlns="http://www.w3.org/2000/svg">
<path d="M3.48193 14.3841V13.8841C3.20579 13.8841 2.98193 14.1079 2.98193 14.3841H3.48193ZM25.0771 14.8841C25.3533 14.8841 25.5771 14.6602 25.5771 14.3841C25.5771 14.1079 25.3533 13.8841 25.0771 13.8841V14.8841ZM3.48193 18.8831H2.98193C2.98193 19.1592 3.20579 19.3831 3.48193 19.3831V18.8831ZM14.2795 19.3831C14.5557 19.3831 14.7795 19.1592 14.7795 18.8831C14.7795 18.6069 14.5557 18.3831 14.2795 18.3831V19.3831ZM3.48193 9.88504V9.38504C3.20579 9.38504 2.98193 9.6089 2.98193 9.88504H3.48193ZM25.0772 9.88504H25.5772C25.5772 9.6089 25.3533 9.38504 25.0772 9.38504V9.88504ZM3.48193 23.3821H2.98193C2.98193 23.6582 3.20579 23.8821 3.48193 23.8821V23.3821ZM14.2796 23.8821C14.5557 23.8821 14.7796 23.6582 14.7796 23.3821C14.7796 23.1059 14.5557 22.8821 14.2796 22.8821V23.8821ZM3.48193 3.58643V3.08643C3.20579 3.08643 2.98193 3.31028 2.98193 3.58643H3.48193ZM25.0772 3.58643H25.5772C25.5772 3.31028 25.3533 3.08643 25.0772 3.08643V3.58643ZM17.8788 9.88504V9.38504C17.6026 9.38504 17.3788 9.6089 17.3788 9.88504H17.8788ZM17.3788 15.9751C17.3788 16.2512 17.6026 16.4751 17.8788 16.4751C18.1549 16.4751 18.3788 16.2512 18.3788 15.9751H17.3788ZM10.6804 9.88504H11.1804C11.1804 9.6089 10.9565 9.38504 10.6804 9.38504V9.88504ZM10.6804 23.3821V23.8821C10.9565 23.8821 11.1804 23.6582 11.1804 23.3821H10.6804ZM3.48193 14.3841V14.8841H25.0771V14.3841V13.8841H3.48193V14.3841ZM3.48193 18.8831H3.98193V14.3841H3.48193H2.98193V18.8831H3.48193ZM14.2795 18.8831V18.3831H3.48193V18.8831V19.3831H14.2795V18.8831ZM3.48193 9.88504V10.385H25.0772V9.88504V9.38504H3.48193V9.88504ZM3.48193 23.3821H3.98193V9.88504H3.48193H2.98193V23.3821H3.48193ZM14.2796 23.3821V22.8821H3.48193V23.3821V23.8821H14.2796V23.3821ZM25.0772 9.88504H24.5772V14.3984H25.0772H25.5772V9.88504H25.0772ZM3.48193 3.58643V4.08643H25.0772V3.58643V3.08643H3.48193V3.58643ZM3.48193 23.3821H3.98193V3.58643H3.48193H2.98193V23.3821H3.48193ZM25.0772 3.58643H24.5772V13.4843H25.0772H25.5772V3.58643H25.0772ZM17.8788 9.88504V10.385H25.0772V9.88504V9.38504H17.8788V9.88504ZM17.8788 15.9751H18.3788V9.88504H17.8788H17.3788V15.9751H17.8788ZM3.48193 9.88504V10.385H10.6804V9.88504V9.38504H3.48193V9.88504ZM10.6804 9.88504H10.1804V23.3821H10.6804H11.1804V9.88504H10.6804ZM10.6804 23.3821V22.8821H3.48193V23.3821V23.8821H10.6804V23.3821ZM26.5158 22.91H26.0158C26.0158 25.3456 24.0414 27.32 21.6058 27.32V27.82V28.32C24.5937 28.32 27.0158 25.8979 27.0158 22.91H26.5158ZM21.6058 27.82V27.32C19.1702 27.32 17.1958 25.3456 17.1958 22.91H16.6958H16.1958C16.1958 25.8979 18.6179 28.32 21.6058 28.32V27.82ZM16.6958 22.91H17.1958C17.1958 20.4744 19.1702 18.5 21.6058 18.5V18V17.5C18.6179 17.5 16.1958 19.9221 16.1958 22.91H16.6958ZM21.6058 18V18.5C24.0414 18.5 26.0158 20.4744 26.0158 22.91H26.5158H27.0158C27.0158 19.9221 24.5937 17.5 21.6058 17.5V18ZM25.0771 26.3821L24.7236 26.7357L28.9506 30.9617L29.3041 30.6081L29.6577 30.2545L25.4307 26.0285L25.0771 26.3821Z" fill="black"/>
</svg>
