<svg xmlns="http://www.w3.org/2000/svg" viewBox="0 0 32 32" fill="none" stroke-linejoin="round">
<path d="M2 3.8424V3.3424C1.72386 3.3424 1.5 3.56626 1.5 3.8424H2ZM24.6113 3.8424H25.1113C25.1113 3.56626 24.8874 3.3424 24.6113 3.3424V3.8424ZM24.1113 11.3227C24.1113 11.5988 24.3351 11.8227 24.6113 11.8227C24.8874 11.8227 25.1113 11.5988 25.1113 11.3227H24.1113ZM2 21.429H1.5C1.5 21.7051 1.72386 21.929 2 21.929V21.429ZM12.2984 21.929C12.5746 21.929 12.7984 21.7051 12.7984 21.429C12.7984 21.1528 12.5746 20.929 12.2984 20.929V21.929ZM17.5811 30.1507H17.0811C17.0811 30.3324 17.1796 30.4998 17.3386 30.5879C17.4975 30.6761 17.6917 30.671 17.8458 30.5748L17.5811 30.1507ZM20.8588 28.1045L21.1236 28.5286C21.2699 28.4373 21.3588 28.277 21.3588 28.1045H20.8588ZM20.8588 22.2354L20.4933 21.8942C20.4069 21.9868 20.3588 22.1087 20.3588 22.2354H20.8588ZM27.6131 15L27.9786 15.3412C28.1144 15.1956 28.151 14.9834 28.0717 14.8007C27.9923 14.6181 27.8122 14.5 27.6131 14.5V15ZM17.5811 22.2354H18.0811C18.0811 22.1118 18.0353 21.9925 17.9525 21.9007L17.5811 22.2354ZM11.0625 15V14.5C10.865 14.5 10.686 14.6163 10.6057 14.7967C10.5254 14.9771 10.5588 15.1879 10.691 15.3347L11.0625 15ZM10.3721 5.51731V2H9.37208V5.51731H10.3721ZM16.1555 2V5.51731H17.1555V2H16.1555ZM2 4.3424H24.6113V3.3424H2V4.3424ZM24.1113 3.8424V11.3227H25.1113V3.8424H24.1113ZM2.5 21.429V3.8424H1.5V21.429H2.5ZM2 8.36219H24.6113V7.36219H2V8.36219ZM12.2984 20.929H5.48836V21.929H12.2984V20.929ZM5.48836 20.929H2V21.929H5.48836V20.929ZM17.8458 30.5748L21.1236 28.5286L20.594 27.6804L17.3163 29.7265L17.8458 30.5748ZM21.3588 28.1045V22.2354H20.3588V28.1045H21.3588ZM21.2243 22.5766L27.9786 15.3412L27.2476 14.6588L20.4933 21.8942L21.2243 22.5766ZM17.0811 22.2354V30.1507H18.0811V22.2354H17.0811ZM17.9525 21.9007L11.434 14.6653L10.691 15.3347L17.2096 22.57L17.9525 21.9007ZM11.0625 15.5H27.6131V14.5H11.0625V15.5Z" fill="black"/>
</svg>