<svg fill="none" viewBox="0 0 32 32" xmlns="http://www.w3.org/2000/svg">
  <path d="M2 3.842v-.5a.5.5 0 0 0-.5.5H2zm22.611 0h.5a.5.5 0 0 0-.5-.5v.5zm-.5 7.48a.5.5 0 1 0 1 0h-1zM2 21.43h-.5a.5.5 0 0 0 .5.5v-.5zm10.298.5a.5.5 0 1 0 0-1v1zM10.372 5.517V2h-1v3.517h1zM16.156 2v3.517h1V2h-1zM2 4.342h22.611v-1H2v1zm22.111-.5v7.48h1v-7.48h-1zM2.5 21.43V3.842h-1V21.43h1zM2 8.362h22.611v-1H2v1zM12.298 20.93h-6.81v1h6.81v-1zm-6.81 0H2v1h3.488v-1z" fill="#000"/>
  <path d="m17.581 30.15 3.278-2.045v-5.87L27.613 15H11l6.581 7.235v7.916z" stroke="#000" stroke-miterlimit="10" stroke-linejoin="round"/>
</svg>
