<svg xmlns="http://www.w3.org/2000/svg" viewBox="0 0 32 32" fill="none" stroke="#000" stroke-linejoin="round">
  <path d="M18.9 15.9h6.6l-2.6 8.8H11.5l-.4-2.6M25.5 15.9l1.2-3.9h3.6M14.1 24.7v1.7M20.6 24.7v1.7M10.8 5.6c2.6 0 4.7 2.2
   4.7 4.9 0 1.8-.9 3.2-2.3 4.2-.3.3-.3 1.2-.3 1.2v2.8s-.2.9-2.1.9c-1.8 0-2.1-.9-2.1-.9v-2.8s0-.9-.3-1.2c-1.3-1-2.3-2.4
   -2.3-4.2.1-2.8 2.2-4.9 4.7-4.9zM8.8 16.4s2.1 1.2 4.1 0M16 15.5l1.7 1.7M4.4 3.8l1.7 1.7M16 5.5l1.7-1.7M4.4 17.2l1.7
   -1.7M11 1.1v2.4M18.1 10.5h2.4M1.6 10.5H4"/>
  <circle cx="14.1" cy="29.3" r="1.7"/>
  <circle cx="20.6" cy="29.3" r="1.7"/>
</svg>
