<svg xmlns="http://www.w3.org/2000/svg" viewBox="0 0 32 32"
fill="none" stroke-linejoin="round" stroke="#000">
  <path d="M11.1 11.3c-1.4 0-2.5 1.1-2.5 2.5s1.1 2.5 2.5 2.5 2.5-1.1 2.5-2.5-1.2-2.5-2.5-2.5zM4.2 20.2c-1.4 0-2.5 1.1
  -2.5 2.5s1.1 2.5 2.5 2.5 2.5-1.1 2.5-2.5-1.1-2.5-2.5-2.5zM20.5 14.7c-1.4 0-2.5 1.1-2.5 2.5s1.1 2.5 2.5 2.5 2.5-1.1 2.5
  -2.5-1.1-2.5-2.5-2.5zM27.8 6.8c-1.4 0-2.5 1.1-2.5 2.5s1.1 2.5 2.5 2.5 2.5-1.1 2.5-2.5-1.1-2.5-2.5-2.5zM22.2 15.4l3.9
  -4.2M13.4 14.7l4.8 1.7M5.7 20.7l3.8-4.9"/>
</svg>
