<svg xmlns="http://www.w3.org/2000/svg" viewBox="0 0 32 32" stroke="#000" fill="none">
<path d="M26.0714 22.45C28.4714 21.25 30.1714 18.75 30.1714 15.85C30.1714 11.85 26.8714 8.55005 22.8714 8.55005C22.6714 8.55005 22.5714 8.55005 22.3714 8.55005C21.2714 5.35005 18.2714 3.05005 14.6714 3.05005C10.2714 3.25005 6.57144 6.85005 6.57144 11.35C6.57144 11.75 6.57144 12.15 6.67144 12.55C4.47144 13.25 2.97144 15.35 2.97144 17.75C2.97144 20.75 5.37144 23.25 8.47144 23.25H9.37144" stroke="black" stroke-miterlimit="10" stroke-linejoin="round"/>
<path d="M18.0001 13.5403L28.253 30.7299H7.74726L18.0001 13.5403Z" stroke-width="0.8" />
<path d="M16.7686 16.852L26.273 27.9443L11.4946 30.1251L16.7686 16.852Z" stroke-width="0.8" />
<path d="M16.3479 20.3349L23.2116 25.1854L14.9518 29.2296L16.3479 20.3349Z"  stroke-width="0.8"/>´
</svg>
