<svg xmlns="http://www.w3.org/2000/svg" viewBox="0 0 32 32"
    fill="none" stroke="#000" stroke-linejoin="round">
  <path stroke-width=".99998" d="M14.73534 17.131166l6.472484 3.737-5.5905 9.682746-6.472484-3.737z"/>
  <path d="M15.372 21.647l1.414.817M17.12 16.104c1.438-.385 2.916.468 3.301 1.906M16.426 13.512c2.869-.769 5.819.934
  6.587 3.803M15.716 10.863c4.332-1.161 8.785 1.41 9.946 5.743M23.276 21.385c3.587-.449 6.36-3.501 6.36-7.209 0-4.018
  -3.255-7.273-7.273-7.273-.154 0-.309.009-.463.027-1.119-3.191-4.146-5.481-7.718-5.481C9.665 1.449 6 5.112 6 9.631c0
  .409.037.8.101 1.191-2.173.717-3.738 2.763-3.738 5.172 0 3.008 2.447 5.455 5.455 5.455h.913"/>
</svg>
