<svg xmlns="http://www.w3.org/2000/svg" viewBox="0 0 32 32" fill="none" stroke="#000">
<path d="M19.0476 14.0505V6.82943C19.0476 6.026 18.3978 5.36938 17.6043 5.36938H7.52425C7.14099 5.37035 6.7737 5.52479 6.5027 5.79894C6.23169 6.07309 6.07902 6.44464 6.07806 6.83235V17.0144C6.07806 17.8164 6.72715 18.473 7.51992 18.473H11.6001M17.6571 20.6524H19.922M19.922 20.6524V16.7836C19.922 16.5389 20.1177 16.341 20.3595 16.341H22.4093M19.922 20.6524V24.4117C19.922 24.5289 19.968 24.6413 20.0499 24.7242C20.1319 24.8071 20.243 24.8536 20.3588 24.8536H22.3913M25.3948 14.5639H22.9364C22.7967 14.5643 22.6629 14.6206 22.5641 14.7205C22.4654 14.8204 22.4097 14.9558 22.4093 15.0971V17.5841C22.4093 17.877 22.6461 18.1173 22.9364 18.1173H25.3948C25.6844 18.1173 25.9219 17.8777 25.9219 17.5841V15.0971C25.9213 14.9559 25.8656 14.8206 25.7669 14.7208C25.6682 14.6209 25.5345 14.5645 25.3948 14.5639ZM17.13 18.8199H14.6715C14.5319 18.8203 14.398 18.8766 14.2993 18.9765C14.2005 19.0764 14.1449 19.2118 14.1445 19.3531V21.84C14.1445 22.1329 14.3813 22.3732 14.6715 22.3732H17.13C17.4195 22.3732 17.6571 22.1337 17.6571 21.84V19.3524C17.6565 19.2112 17.6007 19.076 17.502 18.9762C17.4033 18.8765 17.2695 18.8203 17.13 18.8199ZM25.3768 23.0773H22.9183C22.7787 23.0777 22.6448 23.134 22.5461 23.2339C22.4473 23.3338 22.3917 23.4692 22.3913 23.6105V26.0975C22.3913 26.3904 22.6281 26.6306 22.9183 26.6306H25.3768C25.6663 26.6306 25.9039 26.3911 25.9039 26.0975V23.6105C25.9033 23.4693 25.8476 23.334 25.7489 23.2341C25.6501 23.1343 25.5164 23.0779 25.3768 23.0773Z" />
<path d="M12.4564 8.20422V15.2913" />
<path d="M8.91296 11.7478H16.0001"/>
</svg>
