<svg xmlns="http://www.w3.org/2000/svg" viewBox="0 0 32 32" stroke="#000" fill="none" stroke-linejoin="round"
    stroke-linecap="round">
  <path fill="none" d="M25.9 15.9c-.4-.5-.6-1-.8-1.5-.6.2-1.2.3-1.8.3
  -3.1 0-5.5-2.5-5.5-5.5 0-.7.1-1.4.4-2.1-1.2-.1-2.3-.7-3.1-1.7-.6-.8-.9-1.8-1-2.8-6.7 1-11.8 6.7-11.8 13.7C2.3 23.9 8.4
   30 16 30c7.1 0 12.9-5.4 13.7-12.3-1.4.1-2.9-.5-3.8-1.8z" />
  <line x1="0" y1="0" x2="0" y2="0" transform="translate(10.2,15.2) scale(1.6)" />
  <line x1="0" y1="0" x2="0" y2="0" transform="translate(23.3,19.5) scale(1.6)" />
  <line x1="0" y1="0" x2="0" y2="0" transform="translate(18.2,23.7) scale(1.6)" />
  <line x1="0" y1="0" x2="0" y2="0" transform="translate(11.8,21.2) scale(1.6)" />
  <line x1="0" y1="0" x2="0" y2="0" transform="translate(16,16.9) scale(1.6)" />
  <line x1="0" y1="0" x2="0" y2="0" transform="translate(11,9.8) scale(1.6)" />
  <line x1="0" y1="0" x2="0" y2="0" transform="translate(24.1,2.8) scale(1.6)" />
  <line x1="0" y1="0" x2="0" y2="0" transform="translate(24.6,8.7) scale(1.6)" />
  <line x1="0" y1="0" x2="0" y2="0" transform="translate(28.9,12.4) scale(1.6)" />
</svg>
