<svg viewBox="0 0 32 32" fill="none" xmlns="http://www.w3.org/2000/svg">
<path d="M8.63574 10.4808C8.63574 11.2764 9.4786 12.0395 10.9789 12.6021C12.4792 13.1647 14.514 13.4808 16.6357 13.4808C18.7575 13.4808 20.7923 13.1647 22.2926 12.6021C23.7929 12.0395 24.6357 11.2764 24.6357 10.4808M8.63574 10.4808C8.63574 9.68512 9.4786 8.92206 10.9789 8.35945C12.4792 7.79684 14.514 7.48077 16.6357 7.48077C18.7575 7.48077 20.7923 7.79684 22.2926 8.35945C23.7929 8.92206 24.6357 9.68512 24.6357 10.4808M8.63574 10.4808V16.4808M24.6357 10.4808V16.4808M8.63574 16.4808C8.63574 17.2764 9.4786 18.0395 10.9789 18.6021C12.4792 19.1647 14.514 19.4808 16.6357 19.4808C18.7575 19.4808 20.7923 19.1647 22.2926 18.6021C23.7929 18.0395 24.6357 17.2764 24.6357 16.4808M8.63574 16.4808V22.4808C8.63574 23.2764 9.4786 24.0395 10.9789 24.6021C12.4792 25.1647 14.514 25.4808 16.6357 25.4808C18.7575 25.4808 20.7923 25.1647 22.2926 24.6021C23.7929 24.0395 24.6357 23.2764 24.6357 22.4808V16.4808" stroke="black" stroke-linecap="round" stroke-linejoin="round"/>
</svg>
