<svg viewBox="0 0 32 32" fill="none" xmlns="http://www.w3.org/2000/svg">
<path d="M22.0417 24.25C22.0417 24.6257 22.1821 24.9861 22.4322 25.2517C22.6822 25.5174 23.0214 25.6667 23.375 25.6667C23.7286 25.6667 24.0678 25.5174 24.3178 25.2517C24.5679 24.9861 24.7083 24.6257 24.7083 24.25C24.7083 23.8743 24.5679 23.5139 24.3178 23.2483C24.0678 22.9826 23.7286 22.8333 23.375 22.8333C23.0214 22.8333 22.6822 22.9826 22.4322 23.2483C22.1821 23.5139 22.0417 23.8743 22.0417 24.25Z" stroke="black" stroke-linecap="round" stroke-linejoin="round"/>
<path d="M29.375 24.25C27.775 27.0833 25.775 28.5 23.375 28.5C20.975 28.5 18.975 27.0833 17.375 24.25C18.975 21.4167 20.975 20 23.375 20C25.775 20 27.775 21.4167 29.375 24.25Z" stroke="black" stroke-linecap="round" stroke-linejoin="round"/>
<path d="M15.375 27.5H6.04167C5.33442 27.5 4.65615 27.2249 4.15605 26.7352C3.65595 26.2455 3.375 25.5814 3.375 24.8889V6.61111C3.375 5.9186 3.65595 5.25445 4.15605 4.76478C4.65615 4.2751 5.33442 4 6.04167 4H24.7083C25.4156 4 26.0939 4.2751 26.5939 4.76478C27.094 5.25445 27.375 5.9186 27.375 6.61111V15.75M3.375 13.1389H27.375M12.7083 4V27.5" stroke="black" stroke-linecap="round" stroke-linejoin="round"/>
</svg>
