<svg viewBox="0 0 32 32" fill="none" xmlns="http://www.w3.org/2000/svg">
<path d="M25.4373 4H6.77067C6.06343 4 5.38515 4.28095 4.88505 4.78105C4.38496 5.28115 4.104 5.95942 4.104 6.66667V25.3333C4.104 26.0406 4.38496 26.7189 4.88505 27.219C5.38515 27.719 6.06343 28 6.77067 28H25.4373C26.1446 28 26.8229 27.719 27.323 27.219C27.8231 26.7189 28.104 26.0406 28.104 25.3333V6.66667C28.104 5.95942 27.8231 5.28115 27.323 4.78105C26.8229 4.28095 26.1446 4 25.4373 4ZM25.4373 4L16.104 13.3333M12.104 4L4.104 12M18.7707 4L9.43734 13.3333M28.104 8L22.7707 13.3333M4.104 13.3333H28.104M13.4373 13.3333V28" stroke="black" stroke-linecap="round" stroke-linejoin="round"/>
</svg>
