<svg xmlns="http://www.w3.org/2000/svg" viewBox="0 0 32 32"
fill="none" stroke="#000" stroke-linejoin="round">
  <path d="M15.19 6.12c1.35-2.5 4-4.19 7.04-4.19 4.42 0 8 3.58 8 8 0 3.57-2.34 6.6-5.58 7.63M25.92 12.17l-3.7-2.13V5.45
  M11.51 20.12c-.15-.48-.23-.98-.23-1.51v-1.76M16.26 25.31c-.66.2-1.35.31-2.07.31-3.85 0-6.97-3.12-6.97-6.97 0-1.93.78
  -3.67 2.04-4.93-1.16 0-2.32-.44-3.21-1.33-1.77-1.77-1.77-4.65 0-6.42s4.65-1.77 6.42 0l15.59 19.58-9.4-1.82H16.4c-1.77
  0-3.33-.9-4.25-2.27M14.19 25.62v3.47h-3.11M4.76 8.6l-2.98 1.53 3.44 1.13"/>
  <line stroke-linecap="round" x1="0" y1="0" x2="0" y2="0" transform="translate(8.3, 9) scale(1.6)" />
</svg>
