<svg xmlns="http://www.w3.org/2000/svg" fill="none" viewBox="0 0 32 32" stroke="#000">
  <path d="M13.85 13.2h15.8V4.1h-27v9.1"/>
  <path d="M5.45 9.8V7.4h2.4v1.2M26.25 6.5v4.3M24.25 6.5v4.3M22.25 6.5v4.3M20.25 6.5v4.3M18.25 6.5v4.3M16.25 6.5v4.3M7.963 17.926a2.963 2.963 0 1 0 0-5.926 2.963 2.963 0 0 0 0 5.926ZM7.963 28a2.963 2.963 0 1 0 0-5.926 2.963 2.963 0 0 0 0 5.926ZM16.733 22.963a2.963 2.963 0 1 0 0-5.926 2.963 2.963 0 0 0 0 5.926ZM14.185 18.518l-3.615-2.133M10.57 23.615l3.615-2.133"/>
  <path d="M7.658 22.219v-4.148"/>
</svg>
