<svg xmlns="http://www.w3.org/2000/svg" fill="none" stroke="#000" stroke-linejoin="round"
    viewBox="0 0 32 32">
  <path fill="#000" stroke="none" d="M13.463 23.726c0 .537-.093 1.008-.278 1.413-.186.404-.451.716-.796.933-.345.217
  -.742.325-1.19.325-.444 0-.839-.108-1.187-.325-.348-.217-.616-.526-.805-.928-.189-.4-.285-.863-.288-1.388v-.309c0-.534
  .095-1.006.284-1.414.189-.409.457-.722.801-.938s.741-.325 1.187-.325.842.106 1.187.321.611.522.799.926c.188.402.284.87
  .286 1.404v.305zm-.952-.287c0-.606-.115-1.071-.344-1.396-.229-.323-.555-.484-.976-.484-.412 0-.733.161-.965.483s-.35
  .778-.355 1.368v.315c0 .603.117 1.067.352 1.396.234.329.56.493.976.493.421 0 .746-.16.973-.481.227-.321.34-.79.34
  -1.407v-.287h-.001zm1.9 2.882v-5.477h1.618c.484 0 .913.107 1.288.323s.665.521.871.918.309.85.309 1.361v.274c0 .52-.104
  .976-.311 1.369-.207.395-.501.697-.884.911-.382.213-.82.319-1.314.319h-1.577v.002zm.952-4.71v3.95h.621c.499 0 .882
  -.156 1.149-.469.267-.312.402-.76.408-1.345v-.305c0-.594-.13-1.048-.388-1.361-.258-.313-.633-.471-1.125-.471l-.665
  .001zm7.718 0h-1.707v4.71h-.944v-4.71h-1.692v-.767h4.344l-.001.767z" class="text"/>
  <path d="M26.187 29H5.813V3h15.152l5.222 5.222V29zm0-20.778h-5.222V3"/>
</svg>
