<svg xmlns="http://www.w3.org/2000/svg" viewBox="0 0 32 32" fill="none" stroke="#000" stroke-linejoin="round">
    <path d="M21 3L26.2 8.2H21V3Z" />
    <path d="M26.2001 29H5.80005V3H21L26.2001 8.2V29Z" />
    <path d="M13.0999 3.29999V14.2" />
    <path d="M13.0999 10.8H14.9999" />
    <path d="M13.0999 7.79999H14.9999" />
    <path d="M13.0999 4.79999H14.9999" />
    <path d="M11.2 12.3H13.1" />
    <path d="M11.2 9.29999H13.1" />
    <path d="M11.2 6.29999H13.1" />
    <path d="M11.2 14.2V16.5C11.2 17 12 17.5 13.1 17.5C14.2 17.5 15 17.1 15 16.5V14.2H11.2Z" />
    <path fill="#000" stroke="none"
        d="M10.9455 21V26.4844H10V21H10.9455ZM14.2414 21L12.019 23.6405L10.7533 24.9814L10.5876 24.0435L11.4916 22.9286L13.0887 21H14.2414ZM13.2243 26.4844L11.4201 23.8853L12.0717 23.2412L14.3468 26.4844H13.2243Z" />
    <path fill="#000" stroke="none"
        d="M19.2247 21V26.4844H18.2793L15.8196 22.5557V26.4844H14.8742V21H15.8196L18.2868 24.9362V21H19.2247Z" />
    <path fill="#000" stroke="none"
        d="M22.5545 21.7307L20.916 26.4844H19.9254L21.9895 21H22.6223L22.5545 21.7307ZM23.9256 26.4844L22.2833 21.7307L22.4426 21H22.6455H22.8484L24.9201 26.4844H23.9256ZM23.2229 24.4503L23.4819 25.1999H21.3588L21.6171 24.4503H23.2229Z" />
    <path fill="#000" stroke="none"
        d="M25.534 21H27.4739C27.8908 21 28.2461 21.0628 28.5399 21.1883C28.8337 21.3139 29.0585 21.4997 29.2141 21.7458C29.3723 21.9894 29.4515 22.2907 29.4515 22.6498C29.4515 22.9235 29.4012 23.1646 29.3008 23.373C29.2003 23.5815 29.0585 23.7573 28.8751 23.9004C28.6918 24.041 28.4734 24.1503 28.2197 24.2281L27.9335 24.3675H26.1895L26.1819 23.6179H27.489C27.715 23.6179 27.9033 23.5777 28.054 23.4973C28.2047 23.417 28.3177 23.3078 28.393 23.1696C28.4708 23.029 28.5098 22.8708 28.5098 22.695C28.5098 22.5042 28.4721 22.3384 28.3968 22.1978C28.3239 22.0547 28.2109 21.9455 28.0578 21.8701C27.9046 21.7923 27.71 21.7533 27.4739 21.7533H26.4795V26.4844H25.534V21ZM28.6642 26.4844L27.376 24.0209L28.3666 24.0172L29.6737 26.4354V26.4844H28.6642Z" />
</svg>