<svg xmlns="http://www.w3.org/2000/svg" viewBox="0 0 32 32"
    fill="none" stroke="#000" stroke-linejoin="round" stroke-miterlimit="10">
  <path class="text" fill="black" stroke="none" stroke-linejoin="miter" d="M10.816 16.437h-.945v-4.569l-1.395.476v
  -.797l2.219-.816h.121v5.706zM12.07 25.312H8.246v-.652l1.895-2.066c.273-.305.468-.56.584-.764s.174-.409.174-.615c0-.271
  -.076-.489-.229-.656s-.357-.25-.615-.25c-.308 0-.546.094-.715.281s-.254.444-.254.77h-.95c0-.347.079-.658.236-.936s.383
  -.493.676-.646.631-.23 1.014-.23c.552 0 .987.139 1.307.416s.479.661.479 1.15c0 .284-.08.581-.24.893s-.423.665-.787
  1.061L9.43 24.556h2.641v.756z"/>
  <path d="M21.156 2.5l5.423 5.423h-5.423zM26.579 29.5H5.421v-27h15.735l5.423 5.423zM22.071 15.543h-7.69M23.63 12.565h
  -9.249M22.071 24.492h-7.69M23.63 21.516h-9.249"/>
</svg>
