<svg xmlns="http://www.w3.org/2000/svg" fill="none" stroke="#000" stroke-linejoin="round"
    viewBox="0 0 32 32">
  <path fill="#000" stroke="none" d="M13.375 23.726c0 .537-.093 1.008-.278 1.413-.186.404-.451.716-.796.933-.345.217
  -.742.325-1.19.325-.444 0-.839-.108-1.187-.325-.348-.217-.616-.526-.805-.928-.189-.4-.285-.863-.288-1.388v-.309c0-.534
  .095-1.006.284-1.414.189-.409.457-.722.801-.938s.741-.325 1.187-.325.842.106 1.187.321.611.522.799.926c.188.402.284.87
  .286 1.404v.305zm-.952-.287c0-.606-.115-1.071-.344-1.396-.229-.323-.555-.484-.976-.484-.412 0-.733.161-.965.483s-.351
  .778-.356 1.368v.315c0 .603.117 1.067.352 1.396.234.329.56.493.976.493.421 0 .746-.16.973-.481.227-.321.34-.79.34
  -1.407v-.287zm1.899 2.882v-5.477h1.618c.484 0 .913.107 1.288.323s.665.521.871.918c.205.396.308.85.308 1.361v.274c0 .52
  -.103.976-.31 1.369-.207.395-.502.697-.885.911-.382.213-.82.319-1.314.319h-1.576v.002zm.952-4.71v3.95h.621c.499 0 .882
  -.156 1.149-.469.268-.312.403-.76.408-1.345v-.305c0-.594-.129-1.048-.388-1.361-.258-.313-.633-.471-1.124-.471l-.666
  .001zm6.944 3.3c0-.241-.085-.427-.254-.558-.17-.13-.475-.262-.916-.395s-.793-.281-1.054-.443c-.499-.313-.748-.723-.748
  -1.227 0-.441.18-.805.539-1.091.36-.286.827-.429 1.401-.429.381 0 .721.07 1.02.21.299.141.533.341.703.601.171.26.256
  .547.256.863h-.947c0-.286-.09-.51-.27-.672-.179-.161-.436-.242-.77-.242-.311 0-.552.066-.724.199s-.258.318-.258.557c0
  .2.093.368.278.502.186.135.491.265.918.392.427.126.769.271 1.027.433.258.161.447.347.567.557.12.209.181.454.181.735 0
  .456-.175.819-.524 1.089s-.824.404-1.424.404c-.396 0-.761-.073-1.093-.22s-.591-.35-.775-.607c-.184-.259-.276-.56-.276
  -.903h.952c0 .312.103.552.309.723.205.17.5.256.884.256.331 0 .58-.067.746-.201.168-.135.252-.312.252-.533z"
  class="text"/>
  <path d="M26.187 29H5.813V3h15.152l5.222 5.222V29zm0-20.778h-5.222V3"/>
</svg>
