<svg xmlns="http://www.w3.org/2000/svg" fill="none" stroke="#000" stroke-linejoin="round"
  viewBox="0 0 32 32">
  <path fill="#000" stroke="none" d="M10.348 24.29v2.031h-.952v-5.477h2.095c.612 0 1.098.159 1.458.478s.54
  .741.54 1.266c0 .537-.176.955-.529 1.254-.352.299-.846.448-1.48.448h-1.132zm0-.768h1.144c.338 0 .597-.079.775-.238s
  .267-.39.267-.69c0-.296-.09-.532-.271-.709-.18-.177-.429-.268-.745-.273h-1.17v1.91zm4.923.768v2.031h-.952v-5.477h2
  .095c.612 0 1.097.159 1.458.478.359.319.54.741.54 1.266 0 .537-.177.955-.529 1.254s-.846.448-1.479.448h-1.133zm0
  -.768h1.144c.338 0 .596-.079.775-.238.178-.159.267-.39.267-.69 0-.296-.09-.532-.271-.709s-.429-.268-.745-.273h-1.17v1
  .91zm7.93-1.911h-1.708v4.71h-.945v-4.71h-1.692v-.767h4.345v.767zm2.603 1.212l1.15-1.979h1.099l-1.655 2.717 1.693
  2.761h-1.11l-1.177-2.009-1.182 2.009h-1.105l1.696-2.761-1.659-2.716h1.099l1.151 1.978z" class="text"/>
  <path d="M26.187 29H5.813V3h15.152l5.222 5.222v10.55m0-10.55h-5.222V3"/>
</svg>
