<svg xmlns="http://www.w3.org/2000/svg" viewBox="0 0 32 32" fill="none" stroke="#000" stroke-linejoin="round">
  <path stroke-dasharray="1.0204 .5102" d="M24 3.88v24.24"/>
  <path stroke-dasharray="1 1"  d="M20.03 4.37l-.07 23.5"/>
  <path stroke-dasharray=".9615 1.9231" d="M16 5.3v22.11"/>
  <path stroke-dasharray="1.0417 4.1667" d="M12 7.54v18.75"/>
  <path stroke-dasharray=".9259 5.5556" d="M8 8.93v16.66"/>
  <line stroke-linecap="square" x1="0" y1="0" x2="0" y2="0" transform="translate(8, 22.4) scale(1)" />
  <line stroke-linecap="square" x1="0" y1="0" x2="0" y2="0" transform="translate(8, 15.9) scale(1)" />
  <line stroke-linecap="square" x1="0" y1="0" x2="0" y2="0" transform="translate(8, 9.4) scale(1)" />
  <line stroke-linecap="square" x1="0" y1="0" x2="0" y2="0" transform="translate(12, 23.7) scale(1)" />
  <line stroke-linecap="square" x1="0" y1="0" x2="0" y2="0" transform="translate(12, 18.5) scale(1)" />
  <line stroke-linecap="square" x1="0" y1="0" x2="0" y2="0" transform="translate(12, 13.3) scale(1)" />
  <line stroke-linecap="square" x1="0" y1="0" x2="0" y2="0" transform="translate(12, 8.1) scale(1)" />
  <line stroke-linecap="square" x1="0" y1="0" x2="0" y2="0" transform="translate(16, 5.8) scale(1)" />
  <line stroke-linecap="square" x1="0" y1="0" x2="0" y2="0" transform="translate(16, 8.6) scale(1)" />
  <line stroke-linecap="square" x1="0" y1="0" x2="0" y2="0" transform="translate(16, 11.5) scale(1)" />
  <line stroke-linecap="square" x1="0" y1="0" x2="0" y2="0" transform="translate(16, 14.4) scale(1)" />
  <line stroke-linecap="square" x1="0" y1="0" x2="0" y2="0" transform="translate(16, 17.3) scale(1)" />
  <line stroke-linecap="square" x1="0" y1="0" x2="0" y2="0" transform="translate(16, 20.2) scale(1)" />
  <line stroke-linecap="square" x1="0" y1="0" x2="0" y2="0" transform="translate(16, 23.1) scale(1)" />
  <line stroke-linecap="square" x1="0" y1="0" x2="0" y2="0" transform="translate(16, 25.9) scale(1)" />
  <line stroke-linecap="square" x1="0" y1="0" x2="0" y2="0" transform="translate(20, 4.9) scale(1)" />
  <line stroke-linecap="square" x1="0" y1="0" x2="0" y2="0" transform="translate(20, 6.9) scale(1)" />
  <line stroke-linecap="square" x1="0" y1="0" x2="0" y2="0" transform="translate(20, 8.9) scale(1)" />
  <line stroke-linecap="square" x1="0" y1="0" x2="0" y2="0" transform="translate(20, 10.9) scale(1)" />
  <line stroke-linecap="square" x1="0" y1="0" x2="0" y2="0" transform="translate(20, 12.9) scale(1)" />
  <line stroke-linecap="square" x1="0" y1="0" x2="0" y2="0" transform="translate(20, 14.9) scale(1)" />
  <line stroke-linecap="square" x1="0" y1="0" x2="0" y2="0" transform="translate(20, 16.9) scale(1)" />
  <line stroke-linecap="square" x1="0" y1="0" x2="0" y2="0" transform="translate(20, 18.9) scale(1)" />
  <line stroke-linecap="square" x1="0" y1="0" x2="0" y2="0" transform="translate(20, 20.9) scale(1)" />
  <line stroke-linecap="square" x1="0" y1="0" x2="0" y2="0" transform="translate(20, 22.9) scale(1)" />
  <line stroke-linecap="square" x1="0" y1="0" x2="0" y2="0" transform="translate(20, 24.9) scale(1)" />
  <line stroke-linecap="square" x1="0" y1="0" x2="0" y2="0" transform="translate(20, 26.9) scale(1)" />
  <line stroke-linecap="square" x1="0" y1="0" x2="0" y2="0" transform="translate(24, 4.4) scale(1)" />
  <line stroke-linecap="square" x1="0" y1="0" x2="0" y2="0" transform="translate(24, 5.9) scale(1)" />
  <line stroke-linecap="square" x1="0" y1="0" x2="0" y2="0" transform="translate(24, 7.4) scale(1)" />
  <line stroke-linecap="square" x1="0" y1="0" x2="0" y2="0" transform="translate(24, 9) scale(1)" />
  <line stroke-linecap="square" x1="0" y1="0" x2="0" y2="0" transform="translate(24, 10.5) scale(1)" />
  <line stroke-linecap="square" x1="0" y1="0" x2="0" y2="0" transform="translate(24, 12) scale(1)" />
  <line stroke-linecap="square" x1="0" y1="0" x2="0" y2="0" transform="translate(24, 13.6) scale(1)" />
  <line stroke-linecap="square" x1="0" y1="0" x2="0" y2="0" transform="translate(24, 15.1) scale(1)" />
  <line stroke-linecap="square" x1="0" y1="0" x2="0" y2="0" transform="translate(24, 16.6) scale(1)" />
  <line stroke-linecap="square" x1="0" y1="0" x2="0" y2="0" transform="translate(24, 18.1) scale(1)" />
  <line stroke-linecap="square" x1="0" y1="0" x2="0" y2="0" transform="translate(24, 19.7) scale(1)" />
  <line stroke-linecap="square" x1="0" y1="0" x2="0" y2="0" transform="translate(24, 21.2) scale(1)" />
  <line stroke-linecap="square" x1="0" y1="0" x2="0" y2="0" transform="translate(24, 22.8) scale(1)" />
  <line stroke-linecap="square" x1="0" y1="0" x2="0" y2="0" transform="translate(24, 24.3) scale(1)" />
  <line stroke-linecap="square" x1="0" y1="0" x2="0" y2="0" transform="translate(24, 25.8) scale(1)" />
  <line stroke-linecap="square" x1="0" y1="0" x2="0" y2="0" transform="translate(24, 27.4) scale(1)" />
</svg>
