<svg xmlns="http://www.w3.org/2000/svg" fill="none" stroke="#000" viewBox="0 0 32 32"><path stroke-linecap="round" stroke-linejoin="round" d="M10.666 16.5V5.333a2 2 0 1 1 4 0m0 0V15m0-9.667V3.667a2 2 0 1 1 4 0V15m0-9.667a2 2 0 1 1 4 0V16m.001-6a2 2 0 1 1 4 0v8c0 1.167-.167 5-2.167 7.5-3.5 4-1.878 3.833-4 3.833H16h.278-1.34c-.492 0-.97-.178-1.324-.517-1.773-1.7-2.933-3.409-4.28-5.483-.416-.638-2.495-3.713-5-8.166a2 2 0 0 1 .714-2.696 2.489 2.489 0 0 1 2.89.235c.104.088.188.195.262.308l2.3 3.486"/></svg>