<svg xmlns="http://www.w3.org/2000/svg" viewBox="0 0 32 32"
    fill="none" stroke="#000" stroke-linejoin="round">
  <path d="M2.206 2.6l6.831 6.831M9.037 4.649v4.782H4.255M29.794 2.6l-6.831 6.831M27.745 9.431h-4.782V4.649M29.006 29.4l
  -6.831-6.831M22.175 27.351v-4.782h4.781M2.206 29.4l6.831-6.831M4.255 22.569h4.782v4.782M19.989 10.671h-8.766c-.52 0
  -.946.426-.946.946v8.766c0 .52.426.946.946.946h8.766c.52 0 .946-.426.946-.946v-8.766c0-.52-.426-.946-.946-.946zM12.884
   16h5.443M15.606 13.278v5.444"/>
</svg>
