<svg xmlns="http://www.w3.org/2000/svg" viewBox="0 0 32 32"
    fill="none" stroke="#000" stroke-linejoin="round">
  <path d="M18.589 5.22C13.976 2.229 7.813 3.544 4.822 8.157S3.147 18.933 7.76 21.923s10.776 1.675 13.766-2.937M20.212
  20.61l8.568 8.568M27.909 2.822h-3.405c-.401 0-.73.328-.73.73v3.405c0 .401.328.73.73.73h3.405c.401 0 .73-.328.73
  -.73V3.552c0-.401-.328-.73-.73-.73zM16.463 8.649h-3.405c-.401 0-.73.328-.73.73v3.405c0 .401.328.73.73.73h3.405c.401 0
  .73-.328.73-.73V9.378c0-.401-.329-.729-.73-.729zM27.884 14.478H24.48c-.401 0-.73.328-.73.73v3.405c0 .401.328.73.73
  .73h3.405c.401 0 .73-.328.73-.73v-3.405c-.001-.402-.329-.73-.731-.73zM17.193 11.158h3.137V5.86c0-.335.271-.606.606
  -.606h2.839M23.75 16.91h-2.815c-.334 0-.605-.271-.605-.605v-5.147h-3.137"/>
</svg>
