<svg xmlns="http://www.w3.org/2000/svg" viewBox="0 0 32 32" stroke="#000" fill="none" stroke-linejoin="round">
  <path d="M14.539 18.62c-1.442-1.442-1.252-3.971.424
  -5.647l6.107-6.107c1.677-1.677 4.205-1.866 5.647-.424l1.699 1.699c1.442 1.442 1.252 3.971-.424 5.647l-6.107 6.107c
  -1.217 1.217-2.884 1.651-4.258 1.245M17.461 13.795c1.442 1.442 1.252 3.971-.424
  5.647l-6.107 6.107c-1.677 1.677-4.205 1.866-5.647.424l-1.699-1.699c-1.442-1.442-1.252-3.971.424-5.647l6.107
  -6.107c1.217-1.217 2.884-1.651 4.258-1.245"/>
</svg>
