<svg xmlns="http://www.w3.org/2000/svg" viewBox="0 0 32 32"
    fill="none" stroke="#000" stroke-linejoin="round">
  <path d="M29.014 13.9h-3.405c-.401 0-.73.328-.73.73v3.405c0 .401.328.73.73.73h3.405c.401 0 .73-.328.73-.73V14.63c0
  -.402-.329-.73-.73-.73zM17.568 19.726h-3.405c-.401 0-.73.328-.73.73v3.405c0 .401.328.73.73.73h3.405c.401 0 .73-.328.73
  -.73v-3.405c-.001-.401-.329-.73-.73-.73zM28.989 25.556h-3.405c-.401 0-.73.328-.73.73v3.405c0 .401.328.73.73.73h3.405c
  .401 0 .73-.328.73-.73v-3.405c0-.402-.329-.73-.73-.73zM18.297 22.235h3.137v-5.297c0-.335.271-.606.606-.606h2.839
  M24.855 27.988H22.04c-.334 0-.605-.271-.605-.605v-5.147h-3.137M8.175 22.504H2.256V10.596H19.21v2.736M10.733 18.953v
  -3.407M5.052 10.596V7.262c0-3.136 2.544-5.681 5.681-5.681 3.139 0 5.681 2.545 5.681 5.681v3.335M9.223 15.546h3.02"/>
</svg>
