<svg xmlns="http://www.w3.org/2000/svg" viewBox="0 0 32 32" fill="none" stroke="#000" stroke-linejoin="round">
  <path d="M27.5 3.214h-7c-.825 0-1.5.675-1.5 1.5v7c0 .825.675 1.5 1.5 1.5h7c.825 0 1.5-.675 1.5-1.5v-7c0-.825-.675-1.5
  -1.5-1.5zM11.5 18.786h-7c-.825 0-1.5.675-1.5 1.5v7c0 .825.675 1.5 1.5 1.5h7c.825 0 1.5-.675 1.5-1.5v-7c0-.825-.675-1.5
  -1.5-1.5zM3.441 19.227l9.118 9.118M19.441 3.655l9.118 9.118"/>
  <path stroke-dasharray="2 2" stroke-dashoffset=".35" d="M12.991 24.223c6.08 0 11.009-4.929 11.009-11.009"/>
</svg>
