<svg xmlns="http://www.w3.org/2000/svg" viewBox="0 0 32 32"
    fill="none" stroke="#000" stroke-linejoin="round" stroke-miterlimit="10">
  <path d="M22 2.849H10c-1.1 0-2 .9-2 2v12c0 1.1.9 2 2 2h12c1.1 0 2-.9 2-2v-12c0-1.1-.9-2-2-2zM8.587 3.436l14.826
  14.825"/>
  <path class="text" fill="black" stroke="none" stroke-linejoin="miter" d="M9.856 29.151h-.988l-2.535-4.035v4.035h-.988v
  -5.688h.988l2.543 4.051v-4.051h.98v5.688zM14.278 27.827h-2.203l-.461 1.324h-1.027l2.148-5.688h.887l2.152 5.688h-1.031l
  -.465-1.324zm-1.925-.797h1.648l-.824-2.359-.824 2.359zM17.7 23.464l1.641 4.359 1.637-4.359h1.277v5.688h-.984v-1.875l
  .098-2.508-1.68 4.383h-.707l-1.676-4.379.098 2.504v1.875h-.984v-5.688h1.28zM26.747 26.612h-2.336v1.75h2.73v.789h
  -3.719v-5.688h3.691v.797H24.41v1.57h2.336v.782z"/>
</svg>
