<svg xmlns="http://www.w3.org/2000/svg" viewBox="0 0 32 32"
    fill="none" stroke="#000" stroke-linejoin="round">
  <path d="M23.71 16.885c-.036-3.577 2.917-5.293 3.049-5.378-1.659-2.428-4.244-2.761-5.165-2.799-2.2-.223-4.292 1.295
  -5.408 1.295-1.114 0-2.836-1.262-4.66-1.229-2.398.036-4.608 1.394-5.843 3.541-2.491 4.322-.638 10.726 1.79 14.231
  1.186 1.716 2.601 3.643 4.458 3.574 1.789-.071 2.465-1.157 4.627-1.157s2.77 1.157 4.663 1.122c1.925-.036 3.144-1.749
  4.322-3.47 1.362-1.991 1.923-3.918 1.956-4.017-.042-.019-3.752-1.44-3.789-5.713zM20.153 6.387c.986-1.196 1.651-2.855
  1.47-4.511-1.42.058-3.141.946-4.16 2.139-.914 1.059-1.714 2.748-1.5 4.37 1.585.125 3.203-.804 4.19-1.998z"/>
</svg>
