<svg xmlns="http://www.w3.org/2000/svg" viewBox="0 0 32 32"
    fill="none" stroke="#000" stroke-linejoin="round">
  <path d="M27.215 24.482c-.821-.336-1.172-.783-1.138-1.448.035-.777-.406-1.346-.615-1.571.127-.483.496-2.155 0-3.607
  -.533-1.554-2.16-3.928-3.838-6.261-.687-.958-.72-2-.757-3.206-.036-1.15-.077-2.454-.718-3.904C19.45 2.905 18.051 2
  16.308 2c-1.037 0-2.101.324-2.92.889-1.678 1.158-1.456 3.681-1.31 5.351.02.229.039.445.05.629.098 1.636.009 2.498-.107
   2.76-.075.171-.445.659-.837 1.174-.405.534-.864 1.138-1.241 1.702-.449.678-.812 1.715-1.163 2.717-.257.734-.499 1.426
   -.735 1.84-.447.796-.336 1.539-.243 1.882-.169.118-.414.349-.62.786-.25.532-.756.819-1.809 1.021-.484.099-.817.302
   -.992.605-.254.44-.116.992.011 1.37.186.555.07.907-.141 1.545-.049.147-.104.314-.16.498-.088.29-.056.554.094.784.398
   .608 1.558.822 2.752.963.713.085 1.494.37 2.249.646.74.27 1.504.55 2.2.635.106.013.21.02.311.02 1.05 0 1.524-.697
   1.674-.983.377-.077 1.677-.323 3.018-.356 1.338-.038 2.633.226 3 .308.115.221.419.725.904.985.266.146.637.229 1.017
   .229.405 0 1.177-.096 1.787-.738.609-.645 2.13-1.469 3.241-2.07.248-.134.48-.26.683-.373.624-.346.964-.84.934-1.356
   -.025-.429-.309-.805-.74-.981zM18.897 24.67c-.528.436-1.269.892-2.156 1.023-.666.097-1.289.146-1.849.146-.479 0-.785
   -.037-.912-.056l-.822-.941c.324-.16.648-.498.563-1.107-.073-.515-.736-1.026-1.504-1.618-.628-.484-1.339-1.032-1.535
   -1.497-.405-.958-.086-2.643.471-3.51.275-.434.5-1.093.717-1.73M19.232 12.883c.821 1.836 1.819 4.314 1.972 5.377.096
   .668.093 1.278.054 1.775M13.001 6.96c.141-.391.405-.654.706-.654.445 0 .821.6.821 1.31M16.016 7.443c0-.77.492-1.396
   1.097-1.396s1.097.626 1.097 1.396M17.522 9.811c-.009.039-.027.056-.232.163-.104.054-.232.121-.394.219l-.108.065c-.433
   .263-1.447.878-1.723.914-.187.025-.303-.047-.563-.224-.059-.04-.121-.082-.188-.125-.469-.308-.77-.646-.804-.779.153
   -.118.532-.414.726-.589.394-.366.79-.612.986-.612.01 0 .02.001.029.003.23.041.799.268 1.214.433.192.077.358.143.474
   .185.369.125.56.286.583.347zM20.293 29.771c-.529-.165-.965-.929-.731-2.018.247-1.113 1.455-3.136 1.409-4.029-.011
   -.203-.029-.423-.046-.637-.032-.399-.081-.992-.031-1.168.01-.005.021-.009.033-.012.002.51.936 1.66 1.951 1.66.508 0
   1.08-.218 1.542-.463M7.182 21.731c.595-1.056 2.153.756 2.467 1.244.08.123.227.37.398.655.51.854 1.209 2.023 1.574
   2.415.329.352.861 1.029.73 1.61"/>
</svg>
