<svg stroke="#000" fill="none" xmlns="http://www.w3.org/2000/svg" viewBox="0 0 32 32"><path d="M22.604 28.088V25.333M18.01 21.331V18.635C18.01 17.4166 18.494 16.2481 19.3556 15.3866C20.2171 14.525 21.3856 14.041 22.604 14.041C23.8224 14.041 24.9909 14.525 25.8525 15.3866C26.714 16.2481 27.198 17.4166 27.198 18.635V21.331M21.384 25.333H23.824M29.458 21.331H15.749V30.959H29.458V21.331Z" stroke-linejoin="round"/>
<path d="M22.855 28.088V25.333M18.261 21.331V18.635C18.261 17.4166 18.745 16.2481 19.6066 15.3866C20.4681 14.525 21.6366 14.041 22.855 14.041C24.0734 14.041 25.2419 14.525 26.1034 15.3866C26.965 16.2481 27.449 17.4166 27.449 18.635V21.331M21.635 25.333H24.075M29.709 21.331H16V30.959H29.709V21.331Z" stroke-linejoin="round"/>
<path d="M12.9726 28.25L9.94164 26.5L3.87964 23V9L16.0036 2L28.1276 9V12.5V13.75V14.375" stroke-linejoin="round"/>
<path d="M3.87964 23L8.75364 20.186L11.1906 18.779" stroke-linejoin="round"/>
<path d="M16.0036 2V7.747V10.6205M28.1276 9L25.0966 10.75L23.5811 11.625L22.8234 12.0625M3.87964 9L16.0036 16M16.0036 16V16.875V17.3125M16.0036 16L16.7614 15.5625L17.1403 15.3438" stroke-linejoin="round"/>
</svg>
