<svg xmlns="http://www.w3.org/2000/svg" viewBox="0 0 32 32" stroke="#000" fill="none" stroke-linejoin="round">
<path d="M19 10.5C19.2761 10.5 19.5 10.2761 19.5 10C19.5 9.72386 19.2761 9.5 19 9.5V10V10.5ZM24 9.5C23.7239 9.5 23.5 9.72386 23.5 10C23.5 10.2761 23.7239 10.5 24 10.5V10V9.5ZM19 22.5C19.2761 22.5 19.5 22.2761 19.5 22C19.5 21.7239 19.2761 21.5 19 21.5V22V22.5ZM24 21.5C23.7239 21.5 23.5 21.7239 23.5 22C23.5 22.2761 23.7239 22.5 24 22.5V22V21.5ZM18.5 5C18.2239 5 18 5.22386 18 5.5C18 5.77614 18.2239 6 18.5 6V5.5V5ZM24.5 6C24.7761 6 25 5.77614 25 5.5C25 5.22386 24.7761 5 24.5 5V5.5V6ZM18.5 26C18.2239 26 18 26.2239 18 26.5C18 26.7761 18.2239 27 18.5 27V26.5V26ZM24.5 27C24.7761 27 25 26.7761 25 26.5C25 26.2239 24.7761 26 24.5 26V26.5V27ZM4 21H4.5V11H4H3.5V21H4ZM28 11H27.5V21H28H28.5V11H28ZM28 21H27.5C27.5 21.2761 27.2761 21.5 27 21.5V22V22.5C27.8284 22.5 28.5 21.8284 28.5 21H28ZM27 10V10.5C27.2761 10.5 27.5 10.7239 27.5 11H28H28.5C28.5 10.1716 27.8284 9.5 27 9.5V10ZM4 11H4.5C4.5 10.7239 4.72386 10.5 5 10.5V10V9.5C4.17157 9.5 3.5 10.1716 3.5 11H4ZM4 21H3.5C3.5 21.8284 4.17157 22.5 5 22.5V22V21.5C4.72386 21.5 4.5 21.2761 4.5 21H4ZM5 10V10.5H19V10V9.5H5V10ZM24 10V10.5H27V10V9.5H24V10ZM19 22V21.5H5V22V22.5H19V22ZM27 22V21.5H24V22V22.5H27V22ZM21.5 6H21V26H21.5H22V6H21.5ZM18.5 5.5V6H24.5V5.5V5H18.5V5.5ZM18.5 26.5V27H24.5V26.5V26H18.5V26.5Z" />
</svg>
