<svg xmlns="http://www.w3.org/2000/svg" viewBox="0 0 32 32"
    fill="none" stroke="#000" stroke-linejoin="round">
  <path d="M6,7.7c-2.1,0-3.8,1.7-3.8,3.8c0,1.1,0.5,2.1,1.3,2.8c0.7,0.6,1.5,1,2.5,1s1.8-0.4,2.5-1
    c0.8-0.7,1.3-1.7,1.3-2.8C9.8,9.4,8.1,7.7,6,7.7zM17,3.2c-1.1,0-2,0.8-2.1,1.8c0,0.1,0,0.2,0,0.3c0,0.9,0.5,1.7,1.3,
    2c0.3,0.1,0.6,0.2,0.9,0.2c1.2,0,2.2-1,2.2-2.2C19.2,4.2,18.2,3.2,17,3.2z M18.821,6.656 23.5,15.2 21.6,16.2 16.821,
    7.473 21.6,16.2 21.4,18.1 19.3,19.3 20.2,22.7 23.8,22.9 M23.5,15.2 25.2,16 27.3,14.9 29.7,17.4 28,20.6
    M4.4 9.9l3.3 3.3M7.7 9.9l-3.3 3.3M9.7,12.4l6.509-5.089M14.9,5.06L7.4,8M3.5,14.3l-1,14.4h7l-1-14.4"/>
</svg>
