<svg xmlns="http://www.w3.org/2000/svg" viewBox="0 0 32 32"
    fill="none" stroke="#000" stroke-linejoin="round">
  <path d="M2.484 5.873h27.031v9.147H2.484zM5.331 9.231h2.432v2.432H5.331zM26.082 10.447V8.28v2.167zM24.082
  10.447V8.28v2.167zM22.082 10.447V8.28v2.167zM20.082 10.447V8.28v2.167zM18.082 10.447V8.28v2.167zM16.082
  10.447V8.28v2.167zM2.484 16.98h27.031v9.147H2.484zM5.331 20.337h2.432v2.432H5.331zM26.082 21.553v-2.167 2.167zM24.082
  21.553v-2.167 2.167zM22.082 21.553v-2.167 2.167zM20.082 21.553v-2.167 2.167zM18.082 21.553v-2.167 2.167zM16.082
  21.553v-2.167 2.167z"/>
</svg>
