<svg xmlns="http://www.w3.org/2000/svg" viewBox="0 0 32 32"
    fill="none" stroke="#000" stroke-linejoin="round">
  <path d="M25.964 7.69c.042-.763.064-1.551.064-2.365V4.114c0-.737-.553-1.352-1.29-1.472-2.486-.405-19.778-.233-22.249
  .215-.725.132-1.264.742-1.264 1.47v1.234c0 19.082 12.402 24.026 12.402 24.026s1.745-.696 3.925-2.584M9.34 20.119c0
  -1.978 2.282-3.581 5.097-3.581s5.097 1.603 5.097 3.581M20.581 24.142c0-1.978 2.282-3.581 5.097-3.581s5.097 1.603 5.097
   3.581"/>
  <circle cx="14.437" cy="11.227" r="3.538" fill="none" stroke="#000" stroke-linejoin="round"/>
  <circle cx="25.678" cy="15.25" r="3.538" fill="none" stroke="#000" stroke-linejoin="round"/>
</svg>
