<svg xmlns="http://www.w3.org/2000/svg" fill="none" stroke="#000" stroke-linejoin="round" viewBox="0 0 32 32">
  <path d="m20.867 8-3.313-.473a.2.2 0 0 0-.224.159l-.963 4.814m7.5 5.5c0 1.45-.832 2.814-2.278 3.834-1.444 1.02-3.466 1.666-5.722 1.666-2.256 0-4.278-.646-5.722-1.666-1.446-1.02-2.278-2.383-2.278-3.834 0-1.45.832-2.814 2.278-3.834 1.444-1.02 3.466-1.666 5.722-1.666 2.256 0 4.278.646 5.722 1.666 1.446 1.02 2.278 2.383 2.278 3.834Z"/>
  <circle cx="12.867" cy="16.5" r="1.5" fill="#000" stroke="none"/>
  <circle cx="18.867" cy="16.5" r="1.5" fill="#000" stroke="none"/>
  <path fill="#000" stroke="none" d="M23.867 17.5s.865-.26 1.285-.863c.172-.246.293-.519.36-.803a2.14 2.14 0 0 0 .024-.856 2.017 2.017 0 0 0-.919-1.36 2.14 2.14 0 0 0-.803-.298 2.32 2.32 0 0 0-.879.033c-.292.067-.817.478-1.068.647l1.447 1.488.553 2.012ZM10.68 14.004c-.273-.157-.779-.748-1.395-.81a2.433 2.433 0 0 0-.907.016 2.165 2.165 0 0 0-.8.345 1.963 1.963 0 0 0-.823 1.427c-.026.287.008.58.1.865.093.284.243.554.44.793.199.239.72.267.992.424l.798-1.688 1.594-1.372Z"/>
  <circle cx="21.867" cy="8.5" r="1.5" fill="#000" stroke="none"/>
  <path d="M12.867 20c1 .5 3 1.5 6 0"/>
  <circle cx="16" cy="16" r="15.5"/>
</svg>
