<svg xmlns="http://www.w3.org/2000/svg" viewBox="0 0 32 32" stroke="#000" stroke-linejoin="round" fill="none">
<path d="M28.783,8.246
  c-0.758-1.348-1.58-1.596-3.255-1.69c-1.673-0.114-5.88-0.161-9.525-0.161c-3.652,0-7.86,0.047-9.532,0.159
  C4.801,6.65,3.976,6.896,3.211,8.246c-0.781,1.346-1.182,3.666-1.182,7.749c0,0.003,0,0.005,0,0.005c0,0.003,0,0.005,0,
  0.005v0.003c0,4.066,0.402,6.402,1.182,7.735c0.765,1.348,1.587,1.593,3.259,1.706c1.673,0.098,5.882,0.155,9.533,0.155
  c3.645,0,7.852-0.058,9.526-0.154c1.675-0.114,2.497-0.358,3.255-1.706c0.788-1.332,1.186-3.669,1.186-7.735c0,0,0-0.005,
  0-0.009c0,0,0-0.003,0-0.005C29.971,11.912,29.573,9.593,28.783,8.246zM12.507 21.239V10.761L21.239 16z"/>
</svg>
