<svg xmlns="http://www.w3.org/2000/svg" fill="none" stroke="#000" viewBox="0 0 32 32">
  <path stroke-linejoin="round" d="M23.681 12.101c-1.844-1.062-4.089-1.746-6.528-1.909a3.027 3.027 0 0 1 .735-1.555 3.094 3.094 0 0 1 1.47-.917c.3.763.865 1.397 1.593 1.789a3.559 3.559 0 0 0 2.388.353 3.523 3.523 0 0 0 2.055-1.248 3.435 3.435 0 0 0 .755-2.261 3.44 3.44 0 0 0-.903-2.208 3.556 3.556 0 0 0-4.493-.606 3.473 3.473 0 0 0-1.47 1.887 5.396 5.396 0 0 0-3.039 1.64 5.265 5.265 0 0 0-1.392 3.128c-2.434.167-4.67.85-6.51 1.911a4.793 4.793 0 0 0-5.376.1 4.686 4.686 0 0 0-1.284 1.372 4.619 4.619 0 0 0-.52 3.622 4.654 4.654 0 0 0 2.294 2.876c.172 2.489 1.623 4.691 3.81 6.276 2.27 1.646 5.36 2.649 8.75 2.649 3.389 0 6.481-1.003 8.753-2.651 2.188-1.588 3.638-3.793 3.807-6.284a4.707 4.707 0 0 0 1.43-1.21c.39-.495.674-1.062.837-1.667a4.593 4.593 0 0 0-.527-3.607c-.33-.535-.764-1-1.28-1.366a4.79 4.79 0 0 0-5.355-.114Zm-.289 6.56c.03.636-.169 1.015-.437 1.244-.282.242-.709.376-1.224.376-.521 0-.906-.12-1.164-.342-.25-.216-.454-.591-.485-1.257-.064-1.37.741-2.232 1.528-2.232.832 0 1.72.858 1.782 2.211Zm-14.751 0c.063-1.353.951-2.21 1.782-2.21.785 0 1.593.861 1.528 2.231-.03.667-.235 1.04-.485 1.257-.258.222-.641.343-1.164.343-.515 0-.942-.134-1.224-.377-.268-.229-.467-.608-.437-1.244Zm7.374 3.767c1.375 0 2.69.062 3.917.176a4.3 4.3 0 0 1-1.601 1.776 4.386 4.386 0 0 1-4.63 0 4.3 4.3 0 0 1-1.602-1.776c1.303-.12 2.61-.178 3.918-.176h-.002Z"/>
</svg>