<svg xmlns="http://www.w3.org/2000/svg" fill="none" stroke="#000" viewBox="0 0 32 32"><path d="M4 16h24M10 19.543c0 .954.222 1.803.667 2.546.435.754 1.068 1.341 1.898 1.763.82.432 1.823.648 3.01.648 1.185 0 2.183-.186 2.994-.558.8-.361 1.408-.848 1.823-1.461A3.538 3.538 0 0 0 21 20.462c0-.522-.099-1.004-.297-1.446-.197-.432-.518-.84-.963-1.22a6.167 6.167 0 0 0-.74-.514M21 12.807c0-.925-.202-1.748-.607-2.469-.395-.73-.97-1.3-1.724-1.71C17.923 8.21 17.01 8 15.933 8c-1.079 0-1.986.18-2.723.54-.728.351-1.28.824-1.657 1.418A3.596 3.596 0 0 0 11 11.916c0 .507.09.974.27 1.403.18.419.471.813.876 1.183.195.17.419.336.672.498 0 0 1.182.75 2.182 1"/></svg>