<svg xmlns="http://www.w3.org/2000/svg" fill="none" viewBox="0 0 32 32" stroke="#000" stroke-linejoin="round">
  <path stroke="#000" stroke-miterlimit="10" d="M15.778 29c-7.18 0-13-5.82-13-13s5.82-13 13-13 13 5.82 13 13c0 .92-.096 1.82-.278 2.686M15.778 29c.074 0 .148 0 .222-.002l-.222.002Z"/>
  <path stroke="#000" stroke-linejoin="round" stroke-miterlimit="10" d="M7.31 22.722c0-1.612 1.859-2.918 4.153-2.918 2.293 0 4.153 1.306 4.153 2.918M11.462 18.36a2.883 2.883 0 1 0 0-5.766 2.883 2.883 0 0 0 0 5.765ZM15.624 19.25c0-1.611 1.86-2.918 4.154-2.918.983 0 1.887.24 2.598.642M19.778 14.887a2.883 2.883 0 1 0 0-5.765 2.883 2.883 0 0 0 0 5.765ZM22.684 26.55a2.144 2.144 0 1 0 0-4.288 2.144 2.144 0 0 0 0 4.288Z"/>
  <path stroke="#000" stroke-linejoin="round" stroke-miterlimit="10" d="m26.753 21.825.744-.962-1.313-1.27-.962.744-1.488-.612-.131-1.225h-1.838l-.175 1.225-1.487.612-.963-.743-1.268 1.268.743.963-.612 1.488-1.225.175v1.837l1.225.131.612 1.488-.743 1.006 1.268 1.269 1.007-.744 1.487.612.131 1.226h1.838l.175-1.226 1.444-.612 1.006.744 1.269-1.313-.744-.962.612-1.488 1.225-.131v-1.837l-1.225-.175-.612-1.488Z"/>
</svg>
