<svg xmlns="http://www.w3.org/2000/svg" fill="none" stroke="#000" stroke-linejoin="round"
    viewBox="0 0 32 32">
  <path fill="black" stroke="none" class="text" d="M 13.29675,19.096723 H 5.4444454 L 3.6808949,23.988322 H 1.1321143 L 8.2892963,5.245763 h 2.1626017 l 7.170054,18.742559 H 15.086045 Z M 6.1910571,17.062847 H 12.56301 L 9.3705977,8.296577 Z" />
  <path fill="black" stroke="none" class="text" d="m 28.370597,23.988322 q -0.205962,-0.411924 -0.334688,-1.46748 -1.660569,1.724932 -3.96477,1.724932 -2.059621,0 -3.385501,-1.158536 -1.313008,-1.17141 -1.313008,-2.960705 0,-2.175475 1.647696,-3.372628 1.660569,-1.210027 4.659892,-1.210027 h 2.317073 v -1.094173 q 0,-1.248646 -0.746611,-1.982385 -0.746614,-0.746613 -2.201222,-0.746613 -1.274388,0 -2.136855,0.643632 -0.862467,0.643631 -0.862467,1.557586 h -2.394308 q 0,-1.042681 0.733738,-2.008129 0.746613,-0.97832 2.008131,-1.544716 1.274391,-0.5663968 2.793362,-0.5663968 2.40718,0 3.771679,1.2100288 1.364499,1.197155 1.415989,3.308267 v 6.410566 q 0,1.918024 0.489159,3.050815 v 0.205962 z M 24.4187,22.17328 q 1.119918,0 2.123984,-0.579268 1.004065,-0.579269 1.454607,-1.506097 V 17.23019 h -1.866532 q -4.376693,0 -4.376693,2.561655 0,1.119917 0.746612,1.750677 0.746612,0.630758 1.918022,0.630758 z" />
</svg>
