<svg xmlns="http://www.w3.org/2000/svg" viewBox="0 0 32 32"
    fill="none" stroke="#000" stroke-linejoin="round">
  <path d="M28.957 13.688h-3.405c-.401 0-.73.328-.73.73v3.405c0 .401.328.73.73.73h3.405c.401 0 .73-.328.73-.73v-3.405c0
  -.401-.328-.73-.73-.73zM17.511 19.515h-3.405c-.401 0-.73.328-.73.73v3.405c0 .401.328.73.73.73h3.405c.401 0 .73-.328.73
  -.73v-3.405c0-.402-.329-.73-.73-.73zM28.932 25.344h-3.405c-.401 0-.73.328-.73.73v3.405c0 .401.328.73.73.73h3.405c.401
  0 .73-.328.73-.73v-3.405c0-.401-.328-.73-.73-.73zM18.241 22.024h3.137v-5.297c0-.335.271-.606.606-.606h2.839M24.798
  27.776h-2.815c-.334 0-.605-.271-.605-.605v-5.147h-3.137M2.313 19.748c0-2.857 3.297-5.173 7.363-5.173 1.996 0 3.807.558
   5.133 1.464"/>
  <circle cx="9.676" cy="6.903" r="5.111"/>
</svg>
