<svg xmlns="http://www.w3.org/2000/svg" viewBox="0 0 32 32" stroke="#000" fill="#FFD800" stroke-linejoin="round">
<path d="M15.8771 6L4 26.5725H27.7542L15.8771 6Z"/>
<path d="M16.0008 12L16 18.7641"/>
<path d="M15.8206 22.6252C15.7077 22.6252 15.6118 22.5927 15.4981 22.561C15.4022 22.5123 15.3201 22.4643 15.2405 22.3831C15.0959 22.2376 15 22.028 15 21.8184C15 21.608 15.0959 21.3983 15.2405 21.2375C15.3209 21.1733 15.4022 21.1083 15.4981 21.0603C15.7069 20.9799 15.9165 20.9799 16.1253 21.0603C16.2228 21.1083 16.3032 21.1733 16.3829 21.2375C16.5275 21.3991 16.625 21.608 16.625 21.8184C16.625 22.028 16.5275 22.2376 16.3829 22.3823C16.3024 22.4635 16.2228 22.5115 16.1253 22.5602C16.0294 22.5927 15.9165 22.6252 15.8206 22.6252Z" fill="#201E1E"/>
</svg>
