<svg xmlns="http://www.w3.org/2000/svg" viewBox="0 0 32 32" fill="none" stroke="#000" stroke-linejoin="round" stroke-miterlimit="10"><path d="M3.25 20.65v-4.39m4.33 4.39v-6.84m4.32 6.84v-9.29m4.33 9.29V8.91m4.33 11.74V6.46m4.32 14.19V4"/><path class="text" fill="#000" d="M11.82 23.23l1.64 4.36 1.64-4.36h1.28v5.69h-.98v-1.88l.1-2.51-1.68 4.38h-.72l-1.68-4.38.1 2.5v1.88h-.98v-5.69h1.28zm8.98 4.36h-2.2l-.46 1.32h-1.03l2.15-5.69h.89l2.15 5.69h-1.03l-.47-1.32zm-1.92-.8h1.65l-.82-2.36-.83 2.36zm6.02-1.51l1.2-2.05h1.14l-1.72 2.82 1.76 2.87h-1.15l-1.22-2.09-1.23 2.09h-1.15l1.76-2.87-1.72-2.82h1.14l1.19 2.05z" stroke="none"/></svg>