<svg xmlns="http://www.w3.org/2000/svg" viewBox="0 0 32 32" fill="none" stroke="#000" stroke-linejoin="round"><path d="M5.547 25.031H2.519V3.422h9.051l4.613 6.001h13.298v15.608h-2.779m2.779-15.608V5.422H13.104m10.447 7.505h-3.405a.732.732 0 00-.73.73v3.405c0 .401.328.73.73.73h3.405c.401 0 .73-.328.73-.73v-3.405a.733.733 0 00-.73-.73zm-11.447 5.827H8.7a.732.732 0 00-.73.73v3.405c0 .401.328.73.73.73h3.405c.401 0 .73-.328.73-.73v-3.405a.733.733 0 00-.731-.73zm11.422 5.829h-3.405a.732.732 0 00-.73.73v3.405c0 .401.328.73.73.73h3.405c.401 0 .73-.328.73-.73v-3.405a.732.732 0 00-.73-.73zm-10.692-3.32h3.137v-5.297c0-.335.271-.606.606-.606h2.839m-.025 11.655h-2.815a.605.605 0 01-.605-.605v-5.147h-3.137"/></svg>