<svg xmlns="http://www.w3.org/2000/svg" fill="none" viewBox="0 0 32 32" stroke="#000" stroke-linejoin="round"><path stroke-miterlimit="10" d="M7.222 20.183c0-1.661 1.917-3.007 4.28-3.007 2.364 0 4.28 1.346 4.28 3.007m-4.28-4.496a2.971 2.971 0 100-5.942 2.971 2.971 0 000 5.942zm5.159 7.874c0-1.66 1.917-3.007 4.28-3.007 2.364 0 4.281 1.346 4.281 3.007m-4.28-4.496a2.97 2.97 0 100-5.942 2.97 2.97 0 000 5.942z"/><path stroke-miterlimit="10" d="M16.222 29.745c7.18 0 13-5.82 13-13s-5.82-13-13-13-13 5.82-13 13 5.82 13 13 13z"/></svg>