<svg xmlns="http://www.w3.org/2000/svg" viewBox="0 0 32 32" fill="none" stroke="#000" stroke-linejoin="round"><path d="M28.957 13.688h-3.405a.732.732 0 00-.73.73v3.405c0 .401.328.73.73.73h3.405c.401 0 .73-.328.73-.73v-3.405a.732.732 0 00-.73-.73zm-11.446 5.827h-3.405a.732.732 0 00-.73.73v3.405c0 .401.328.73.73.73h3.405c.401 0 .73-.328.73-.73v-3.405a.732.732 0 00-.73-.73zm11.421 5.829h-3.405a.732.732 0 00-.73.73v3.405c0 .401.328.73.73.73h3.405c.401 0 .73-.328.73-.73v-3.405a.732.732 0 00-.73-.73zm-10.691-3.32h3.137v-5.297c0-.335.271-.606.606-.606h2.839m-.025 11.655h-2.815a.605.605 0 01-.605-.605v-5.147h-3.137M2.313 19.748c0-2.857 3.297-5.173 7.363-5.173 1.996 0 3.807.558 5.133 1.464"/><circle cx="9.676" cy="6.903" r="5.111"/></svg>