<svg xmlns="http://www.w3.org/2000/svg" viewBox="0 0 32 32" fill="none" stroke="#000" stroke-linejoin="round"><path d="M18.222 23.149a1.29 1.29 0 101.824-1.824l-9.954-9.954a1.29 1.29 0 10-1.824 1.824L1.18 28.348c-.64 1.317.572 2.529 1.889 1.889l15.153-7.088zM14.061 6.322a4.263 4.263 0 010 6.029m11.126 5.097a4.263 4.263 0 00-6.029 0m7.711-5.376c-2.162-.852-6.077.048-7.87 1.841m1.105-7.605c.4 1.343-.46 3.946-1.749 5.235m-4.278 7.548l4.1 4.1m2.97-20.767l-.133.456a.655.655 0 000 .367l.133.456a.653.653 0 01-.81.81l-.456-.133a.655.655 0 00-.367 0l-.456.133a.653.653 0 01-.81-.81l.133-.456a.655.655 0 000-.367l-.133-.456a.653.653 0 01.81-.81l.456.133c.12.035.247.035.367 0l.456-.133a.653.653 0 01.81.81zm7.87 16.765l-.133.456a.655.655 0 000 .367l.133.456a.653.653 0 01-.81.81l-.456-.133a.655.655 0 00-.367 0l-.456.133a.653.653 0 01-.81-.81l.133-.456a.655.655 0 000-.367l-.133-.456a.653.653 0 01.81-.81l.456.133c.12.035.247.035.367 0l.456-.133a.653.653 0 01.81.81z"/><circle cx="12.128" cy="4.389" r="1.55"/><circle cx="29.446" cy="13.189" r="1.55"/></svg>