<svg xmlns="http://www.w3.org/2000/svg" width="274" height="237" viewBox="0 0 273.663 236.999" shape-rendering="geometricPrecision" fill="#FFD800"><path d="M136.837 0L0 236.999h273.663L136.837 0zm-31.158 208.718v-90.484l2.807-12.56 78.366 45.229 9.476 8.72-78.373 45.249-12.276 3.846zm3.988-108.324l3.796-16.972 55.982 51.475-59.778-34.503zm-9.145 109.942l-16.594 5.198 16.594-74.219v69.021zm99.788-47.054l12.803 11.772-72.587 22.743 59.784-34.515zm-84.476-86.444l5.381-14.248 63.484 77.572-68.865-63.324zM77.042 216.773l-15.032 2.458 35.443-93.772-20.411 91.314zm140.585-36.374l9.645 11.781-98.927 16.194 89.282-27.975zM123.411 53.048l5.594-11.4 67.77 101.046-73.364-89.646zM52.647 222.102l-12.67.855L93.61 113.734 52.647 222.102zm181.792-23.247l7.072 10.545-121.396 8.167 114.324-18.712zm-29.317-59.924L131.726 29.489l5.111-8.846 68.285 118.288zM86.166 108.4L28.089 226.681H17.875L86.166 108.4zm32.992 118.281l131.519-8.848 5.11 8.848H119.158z"/></svg>