<svg xmlns="http://www.w3.org/2000/svg" viewBox="0 0 32 32" fill="none" stroke="#000" stroke-linejoin="round" stroke-miterlimit="10"><path class="text" fill="#000" d="M10.816 16.437h-.945v-4.569l-1.395.476v-.797l2.219-.816h.121v5.706zm1.254 8.875H8.246v-.652l1.895-2.066c.273-.305.468-.56.584-.764s.174-.409.174-.615c0-.271-.076-.489-.229-.656s-.357-.25-.615-.25c-.308 0-.546.094-.715.281s-.254.444-.254.77h-.95c0-.347.079-.658.236-.936s.383-.493.676-.646.631-.23 1.014-.23c.552 0 .987.139 1.307.416s.479.661.479 1.15c0 .284-.08.581-.24.893s-.423.665-.787 1.061L9.43 24.556h2.641v.756z" stroke="none"/><path d="M21.156 2.5l5.423 5.423h-5.423zm5.423 27H5.421v-27h15.735l5.423 5.423zm-4.508-13.957h-7.69m9.249-2.978h-9.249m7.69 11.927h-7.69m9.249-2.976h-9.249"/></svg>