<svg xmlns="http://www.w3.org/2000/svg" viewBox="0 0 32 32" fill="none" stroke="#000" stroke-linejoin="round"><path d="M11.608 3.405H3.815c-.66 0-1.2.54-1.2 1.2v7.793c0 .66.54 1.2 1.2 1.2h7.793c.66 0 1.2-.54 1.2-1.2v-3.62m-8.653-.566l3.538 3.29 6.462-7.477m-2.547 14.377H3.815c-.66 0-1.2.54-1.2 1.2v7.793c0 .66.54 1.2 1.2 1.2h7.793c.66 0 1.2-.54 1.2-1.2v-3.62m-8.653-.566l3.538 3.29 6.462-7.477M26.838 3.405h-7.793c-.66 0-1.2.54-1.2 1.2v7.793c0 .66.54 1.2 1.2 1.2h7.793c.66 0 1.2-.54 1.2-1.2v-3.62m-8.653-.566l3.538 3.29 6.462-7.477m-2.547 14.377h-7.793c-.66 0-1.2.54-1.2 1.2v7.793c0 .66.54 1.2 1.2 1.2h7.793c.66 0 1.2-.54 1.2-1.2v-7.793c0-.66-.54-1.2-1.2-1.2z"/></svg>