<svg xmlns="http://www.w3.org/2000/svg" viewBox="0 0 32 32" stroke="#000" fill="none" stroke-linejoin="round"><path d="M19.24 12.361V4.415c0-1.1-.9-1.999-1.999-1.999H5.243A2.008 2.008 0 003.24 4.419v12c0 1.098.899 1.997 1.997 1.997h3.688M3.828 3.004l11.194 11.194m13.009-1.134h-3.405a.732.732 0 00-.73.73v3.405c0 .401.328.73.73.73H28.031c.401 0 .73-.328.73-.73v-3.405a.733.733 0 00-.73-.73zm-11.447 5.827h-3.405a.732.732 0 00-.73.73v3.405c0 .401.328.73.73.73h3.405c.401 0 .73-.328.73-.73V19.62a.732.732 0 00-.73-.729zm11.422 5.829h-3.405a.732.732 0 00-.73.73v3.405c0 .401.328.73.73.73h3.405c.401 0 .73-.328.73-.73V25.45a.733.733 0 00-.73-.73zM17.314 21.4h3.137v-5.297c0-.335.271-.606.606-.606h2.839m-.025 11.655h-2.815a.605.605 0 01-.605-.605V21.4h-3.137"/></svg>