<svg xmlns="http://www.w3.org/2000/svg" viewBox="0 0 32 32" fill="none" stroke="#000" stroke-linejoin="round" stroke-miterlimit="10"><path class="text" fill="#000" d="M11.507 25.929h3.039v.789h-4.234v-.641l2.941-4.25h-2.922v-.797h4.121v.625l-2.945 4.274zm4.93.789h-.984V21.03h.984v5.688zm2.203-2.11v2.109h-.988V21.03h2.176c.636 0 1.141.166 1.514.497.374.331.561.769.561 1.313 0 .559-.183.992-.549 1.303-.365.31-.878.465-1.537.465H.64zm0-.796h1.188c.352 0 .62-.082.805-.248.186-.165.277-.404.277-.717 0-.307-.094-.553-.281-.736s-.445-.277-.773-.283H18.64v1.984z" stroke="none"/><path d="M21.156 2.5l5.423 5.423h-5.423zm5.423 27H5.421v-27h15.735l5.423 5.423zM13 2.775v11.363m0-3.558h1.936M13 7.488h1.936M13 4.396h1.936m-3.872 7.73H13m-1.936-3.092H13m-1.936-3.092H13m-1.936 8.196v2.357c0 .557.867 1.009 1.936 1.009s1.936-.452 1.936-1.009v-2.357h-3.872z"/></svg>