<svg xmlns="http://www.w3.org/2000/svg" viewBox="0 0 32 32" stroke="#000" fill="none" stroke-linejoin="round" stroke-linecap="round"><path d="M25.9 15.9c-.4-.5-.6-1-.8-1.5-.6.2-1.2.3-1.8.3-3.1 0-5.5-2.5-5.5-5.5 0-.7.1-1.4.4-2.1-1.2-.1-2.3-.7-3.1-1.7-.6-.8-.9-1.8-1-2.8-6.7 1-11.8 6.7-11.8 13.7C2.3 23.9 8.4 30 16 30c7.1 0 12.9-5.4 13.7-12.3-1.4.1-2.9-.5-3.8-1.8z"/><line transform="matrix(1.6 0 0 1.6 10.2 15.2)"/><line transform="matrix(1.6 0 0 1.6 23.3 19.5)"/><line transform="matrix(1.6 0 0 1.6 18.2 23.7)"/><line transform="matrix(1.6 0 0 1.6 11.8 21.2)"/><line transform="matrix(1.6 0 0 1.6 16 16.9)"/><line transform="matrix(1.6 0 0 1.6 11 9.8)"/><line transform="matrix(1.6 0 0 1.6 24.1 2.8)"/><line transform="matrix(1.6 0 0 1.6 24.6 8.7)"/><line transform="matrix(1.6 0 0 1.6 28.9 12.4)"/></svg>