<svg xmlns="http://www.w3.org/2000/svg" viewBox="0 0 32 32" fill="none" stroke="#000" stroke-linecap="round" stroke-linejoin="round"><path d="M31.062 27.197H.938m1.878-14.532c.367.298 1.553.897 4.776 2.471 1.109.542 2.256 1.102 3.124 1.543a.51.51 0 00.113.041c1.826.422 3.685.865 5.482 1.295 3.595.858 7.312 1.746 10.965 2.502l.023.004c.225.035.466.052.713.052 1.343 0 2.874-.496 3.028-1.221.283-1.341-2.155-3.213-5.12-3.93-1.522-.352-4.355-.998-5.773-1.316-.855-.516-6.556-7.154-7.819-8.682a.493.493 0 00-.274-.168 65.861 65.861 0 01-.955-.22 87.468 87.468 0 00-.958-.221.493.493 0 00-.534.734c.624 1.059 2.458 4.25 4.077 7.118l-.308-.068c-.871-.193-1.465-.324-2.734-.616l-2.408-1.465-2.986-5.016a.493.493 0 00-.32-.23l-1.332-.289a.497.497 0 00-.42.102.5.5 0 00-.179.393l.11 4.791c-.652-.067-1.042.214-1.203.56-.28.604.103 1.369.912 1.836zm.624-1.298"/></svg>