<svg xmlns="http://www.w3.org/2000/svg" viewBox="0 0 32 32" fill="none" stroke="#000" stroke-linejoin="round"><path d="M15.19 6.12c1.35-2.5 4-4.19 7.04-4.19 4.42 0 8 3.58 8 8 0 3.57-2.34 6.6-5.58 7.63m1.27-5.39l-3.7-2.13V5.45M11.51 20.12a5.02 5.02 0 01-.23-1.51v-1.76m4.98 8.46c-.66.2-1.35.31-2.07.31a6.97 6.97 0 01-6.97-6.97c0-1.93.78-3.67 2.04-4.93a4.52 4.52 0 01-3.21-1.33c-1.77-1.77-1.77-4.65 0-6.42s4.65-1.77 6.42 0l15.59 19.58-9.4-1.82H16.4c-1.77 0-3.33-.9-4.25-2.27m2.04 4.16v3.47h-3.11M4.76 8.6l-2.98 1.53 3.44 1.13"/><line stroke-linecap="round" transform="matrix(1.6 0 0 1.6 8.3 9)"/></svg>