<svg xmlns="http://www.w3.org/2000/svg" viewBox="0 0 32 32" fill="none" stroke="#000" stroke-linejoin="round"><path d="M29.014 13.9h-3.405a.732.732 0 00-.73.73v3.405c0 .401.328.73.73.73h3.405c.401 0 .73-.328.73-.73V14.63a.732.732 0 00-.73-.73zm-11.446 5.826h-3.405a.732.732 0 00-.73.73v3.405c0 .401.328.73.73.73h3.405c.401 0 .73-.328.73-.73v-3.405a.733.733 0 00-.73-.73zm11.421 5.83h-3.405a.732.732 0 00-.73.73v3.405c0 .401.328.73.73.73h3.405c.401 0 .73-.328.73-.73v-3.405a.732.732 0 00-.73-.73zm-10.692-3.321h3.137v-5.297c0-.335.271-.606.606-.606h2.839m-.024 11.656H22.04a.605.605 0 01-.605-.605v-5.147h-3.137m-10.123.268H2.256V10.596H19.21v2.736m-8.477 5.621v-3.407m-5.681-4.95V7.262a5.681 5.681 0 0111.362 0v3.335m-7.191 4.949h3.02"/></svg>