<svg xmlns="http://www.w3.org/2000/svg" viewBox="0 0 32 32" fill="none" stroke="#000"><path stroke-linejoin="round" d="M29 19.5v-7c0-.825-.675-1.5-1.5-1.5h-7c-.825 0-1.5.675-1.5 1.5v7c0 .825.675 1.5 1.5 1.5h7c.825 0 1.5-.675 1.5-1.5zm-16 0v-7c0-.825-.675-1.5-1.5-1.5h-7c-.825 0-1.5.675-1.5 1.5v7c0 .825.675 1.5 1.5 1.5h7c.825 0 1.5-.675 1.5-1.5zm0-3.5h6m9.559-4.559l-9.118 9.118m-6.882-9.118l-9.118 9.118"/><line stroke-linecap="square" transform="matrix(2 0 0 2 3.5 24)"/><line stroke-linecap="square" transform="matrix(2 0 0 2 8.5 24)"/><line stroke-linecap="square" transform="matrix(2 0 0 2 13.5 24)"/><line stroke-linecap="square" transform="matrix(2 0 0 2 18.5 24)"/><line stroke-linecap="square" transform="matrix(2 0 0 2 23.5 24)"/><line stroke-linecap="square" transform="matrix(2 0 0 2 28.5 24)"/><line stroke-linecap="square" transform="matrix(2 0 0 2 33.5 24)"/><line stroke-linecap="square" transform="matrix(2 0 0 2 3.5 8)"/><line stroke-linecap="square" transform="matrix(2 0 0 2 8.5 8)"/><line stroke-linecap="square" transform="matrix(2 0 0 2 13.5 8)"/><line stroke-linecap="square" transform="matrix(2 0 0 2 18.5 8)"/><line stroke-linecap="square" transform="matrix(2 0 0 2 23.5 8)"/><line stroke-linecap="square" transform="matrix(2 0 0 2 28.5 8)"/><line stroke-linecap="square" transform="matrix(2 0 0 2 33.5 8)"/></svg>