<svg xmlns="http://www.w3.org/2000/svg" fill="none" stroke="#000" stroke-linejoin="round" viewBox="0 0 32 32"><path fill="#000" d="M8.863 27.933H7.761v2.188h-.988v-5.688h2c.656 0 1.163.147 1.52.442.357.294.535.721.535 1.278 0 .38-.092.699-.275.956a1.755 1.755 0 01-.768.592l1.277 2.368v.051h-1.059l-1.14-2.187zm-1.102-.797h1.016c.333 0 .594-.084.781-.252s.281-.397.281-.689c0-.305-.086-.54-.26-.707-.173-.166-.432-.252-.775-.258H7.761v1.906zm7.328.445h-2.336v1.75h2.73v.789h-3.718v-5.688h3.691v.797h-2.703v1.57h2.336v.782zm4.172 1.074c0-.25-.088-.442-.264-.578-.176-.135-.492-.271-.951-.41-.458-.138-.822-.291-1.094-.461-.518-.325-.777-.75-.777-1.273 0-.458.188-.836.561-1.133.374-.297.859-.445 1.455-.445.396 0 .749.073 1.059.219.311.146.554.354.73.623.178.27.266.568.266.896h-.984c0-.297-.093-.529-.279-.697-.186-.168-.452-.252-.799-.252-.322 0-.573.069-.752.207a.692.692 0 00-.268.578c0 .209.097.383.289.521.193.14.511.275.953.406.443.132.799.281 1.066.449.269.168.465.361.59.578.125.218.188.473.188.764 0 .475-.182.852-.545 1.131-.363.28-.855.42-1.479.42-.411 0-.789-.076-1.135-.229a1.903 1.903 0 01-.805-.631 1.573 1.573 0 01-.287-.938h.988c0 .323.107.573.32.75.214.178.52.266.918.266.344 0 .603-.069.775-.209a.666.666 0 00.261-.552zm5.965-3.426h-1.773v4.891h-.98v-4.891h-1.758v-.797h4.512v.797h-.001z" class="text" stroke="none"/><path d="M23.276 21.815a7.266 7.266 0 006.36-7.209 7.271 7.271 0 00-7.273-7.273c-.154 0-.309.009-.463.027-1.119-3.191-4.146-5.481-7.718-5.481A8.183 8.183 0 006 10.061c0 .409.037.8.101 1.191a5.447 5.447 0 00-3.738 5.172 5.461 5.461 0 005.455 5.455h.913"/></svg>