<svg xmlns="http://www.w3.org/2000/svg" viewBox="0 0 32 32" fill="none" stroke="#000" stroke-linejoin="round"><path d="M20.95 13.65c0-1.47-1.19-2.66-2.66-2.66a2.659 2.659 0 00-1.9 4.52c.48.5 1.16.8 1.9.8 1.46 0 2.66-1.19 2.66-2.66zm9.43-9.43c0-1.47-1.19-2.66-2.66-2.66a2.659 2.659 0 00-1.9 4.52c.48.5 1.16.8 1.9.8 1.47 0 2.66-1.19 2.66-2.66zM11.51 23.08c0-1.47-1.19-2.66-2.66-2.66a2.659 2.659 0 00-1.9 4.52c.48.5 1.16.8 1.9.8 1.47 0 2.66-1.19 2.66-2.66zm4.89-7.55l-5.69 5.69M25.84 6.1l-5.68 5.67m4.9-7.55H1.62m26.1 26.22V6.88M6.19 23.08H1.62m7.23 7.36v-4.7"/><path d="M18.28 16.31v14.13m-2.66-16.79h-14" stroke-dasharray="1,3"/></svg>