<svg xmlns="http://www.w3.org/2000/svg" viewBox="0 0 32 32" stroke="#000" stroke-linejoin="round" fill="none"><path d="M29.5 7.6c-1 .4-2.1.7-3.2.9 1.1-.7 2-1.8 2.4-3.1-1.1.6-2.3 1.1-3.5 1.3-1-1.1-2.5-1.8-4-1.8-3.1 0-5.5 2.5-5.5 5.5 0 .4 0 .9.1 1.3-4.6-.1-8.7-2.3-11.4-5.7-.5.9-.8 1.8-.8 2.8 0 1.9 1 3.6 2.5 4.6-.9 0-1.8-.3-2.5-.7v.1c0 2.7 1.9 4.9 4.4 5.4-.5.1-.9.2-1.5.2-.4 0-.7 0-1-.1.7 2.2 2.8 3.8 5.2 3.9-1.9 1.5-4.3 2.4-6.9 2.4-.5 0-.9 0-1.3-.1C5 26.1 7.9 27 11 27c10.2 0 15.8-8.4 15.8-15.8v-.7c1-.8 1.9-1.8 2.7-2.9z"/></svg>