<svg xmlns="http://www.w3.org/2000/svg" viewBox="0 0 32 32" fill="none" stroke="#000"><path d="M19.048 14.05V6.83c0-.804-.65-1.46-1.444-1.46H7.524c-.383 0-.75.155-1.021.429a1.475 1.475 0 00-.425 1.033v10.182c0 .802.65 1.459 1.442 1.459h4.08m6.057 2.18h2.265m0 0v-3.87a.44.44 0 01.438-.442h2.05m-2.488 4.311v3.76c0 .117.046.23.128.312.082.083.193.13.309.13h2.032m3.004-10.29h-2.459a.526.526 0 00-.372.156.538.538 0 00-.155.377v2.487c0 .293.237.533.527.533h2.459c.29 0 .527-.24.527-.533v-2.487a.538.538 0 00-.155-.376.526.526 0 00-.372-.157zM17.13 18.82h-2.458a.525.525 0 00-.373.157.538.538 0 00-.154.376v2.487c0 .293.236.533.527.533h2.458c.29 0 .527-.24.527-.533v-2.488a.538.538 0 00-.155-.376.526.526 0 00-.372-.156zm8.247 4.257h-2.459a.525.525 0 00-.372.157.538.538 0 00-.155.376v2.488c0 .292.237.533.527.533h2.459c.29 0 .527-.24.527-.534V23.61a.539.539 0 00-.155-.376.527.527 0 00-.372-.157zM12.456 8.204v7.087M8.913 11.748H16"/></svg>