<svg xmlns="http://www.w3.org/2000/svg" fill="none" stroke="#000" stroke-linejoin="round" viewBox="0 0 32 32"><path fill="#000" class="text" d="M13.297 19.097H5.444l-1.763 4.891H1.132L8.29 5.246h2.163l7.17 18.742h-2.536zM6.19 17.063h6.372L9.371 8.297zM28.37 23.988q-.205-.412-.334-1.467-1.66 1.725-3.965 1.725-2.06 0-3.385-1.159-1.313-1.171-1.313-2.96 0-2.176 1.647-3.373 1.66-1.21 4.66-1.21h2.317V14.45q0-1.249-.746-1.983-.747-.746-2.202-.746-1.274 0-2.136.643-.863.644-.863 1.558h-2.394q0-1.043.734-2.008.746-.979 2.008-1.545 1.274-.566 2.793-.566 2.407 0 3.772 1.21 1.364 1.197 1.416 3.308v6.41q0 1.919.489 3.051v.206zm-3.951-1.815q1.12 0 2.124-.579 1.004-.58 1.454-1.506V17.23h-1.866q-4.377 0-4.377 2.562 0 1.12.747 1.75.746.631 1.918.631z" stroke="none"/></svg>