<svg xmlns="http://www.w3.org/2000/svg" viewBox="0 0 32 32" fill="none" stroke="#000" stroke-linejoin="round"><path d="M21.56 9.24H10.44c-.66 0-1.2.54-1.2 1.2v11.12c0 .66.54 1.2 1.2 1.2h11.12c.66 0 1.2-.54 1.2-1.2V10.44c0-.66-.54-1.2-1.2-1.2zM12.547 16h6.906M16 12.547v6.906"/><circle cx="16" cy="16" stroke-dasharray="1.0024 4.0097" transform="rotate(-67.543 15.999 16)" r="14.362"/><line stroke-linecap="square" transform="rotate(35 -10.294 10.481) scale(1.1)"/><line stroke-linecap="square" transform="rotate(55 -.232 9.52) scale(1.1)"/><line stroke-linecap="square" transform="rotate(75 4.666 9.05) scale(1.1)"/><line stroke-linecap="square" transform="rotate(95 7.771 8.685) scale(1.1)"/><line stroke-linecap="square" transform="rotate(115 10.026 8.426) scale(1.1)"/><line stroke-linecap="square" transform="rotate(135 11.834 8.27) scale(1.1)"/><line stroke-linecap="square" transform="rotate(155 13.364 8.103) scale(1.1)"/><line stroke-linecap="square" transform="rotate(155 13.364 8.103) scale(1.1)"/><line stroke-linecap="square" transform="rotate(175 14.831 7.961) scale(1.1)"/><line stroke-linecap="square" transform="rotate(-155 17.123 6.486) scale(1.1)"/><line stroke-linecap="square" transform="rotate(-135 18.941 6.272) scale(1.1)"/><line stroke-linecap="square" transform="rotate(-115 21.023 6.078) scale(1.1)"/><line stroke-linecap="square" transform="rotate(-105 21.372 7.353) scale(1.1)"/><line stroke-linecap="square" transform="rotate(-85 23.983 7.02) scale(1.1)"/><line stroke-linecap="square" transform="rotate(-65 27.839 6.702) scale(1.1)"/><line stroke-linecap="square" transform="rotate(-45 34.697 6.028) scale(1.1)"/><line stroke-linecap="square" transform="rotate(-25 51.619 4.108) scale(1.1)"/><line stroke-linecap="square" transform="rotate(-5 200.113 -10.768) scale(1.1)"/><line stroke-linecap="square" transform="rotate(15 -46.044 14.176) scale(1.1)"/></svg>