<svg xmlns="http://www.w3.org/2000/svg" viewBox="0 0 32 32" fill="none" stroke="#000" stroke-linejoin="round"><path d="M11.326 10.326a2.337 2.337 0 11-4.674 0V7.709M16 10.326a2.337 2.337 0 11-4.674 0V7.709m9.348 2.617a2.337 2.337 0 11-4.674 0V7.709m9.349 2.617a2.337 2.337 0 11-4.674 0V7.709m8.764 4.147v16.662H2.482V11.76m22.867-4.051v2.616a2.337 2.337 0 104.674 0l-.584-2.6-3-4.244H5.482l-3 4.244-.505 2.6a2.337 2.337 0 104.674 0M2.482 22.903H15.75v-9.177m10.779 14.792V14.303h-8.692v14.215m2.158-10.479v2.533h4.341v-2.533L22.183 16zm9.444-10.313H2.482"/></svg>