<svg xmlns="http://www.w3.org/2000/svg" viewBox="0 0 32 32" stroke="#000" fill="none" stroke-linejoin="round"><path d="M25.512 21.149a7.271 7.271 0 00-3.149-13.824c-.154 0-.309.009-.463.027-1.118-3.192-4.146-5.482-7.718-5.482A8.183 8.183 0 006 10.052c0 .409.037.8.101 1.191a5.447 5.447 0 00-1.373 9.665m18.698-7.298h-3.405a.732.732 0 00-.73.73v3.405c0 .401.328.73.73.73h3.405c.401 0 .73-.328.73-.73V14.34a.733.733 0 00-.73-.73zm-11.447 5.827H8.574a.732.732 0 00-.73.73v3.405c0 .401.328.73.73.73h3.405c.401 0 .73-.328.73-.73v-3.405a.732.732 0 00-.73-.73zm11.422 5.829h-3.405a.732.732 0 00-.73.73V29.4c0 .401.328.73.73.73H23.401c.401 0 .73-.328.73-.73v-3.405a.733.733 0 00-.73-.729zm-10.692-3.321h3.137v-5.297c0-.335.271-.606.606-.606h2.839m-.025 11.656h-2.815a.605.605 0 01-.605-.605v-5.147h-3.137"/></svg>