<svg xmlns="http://www.w3.org/2000/svg" viewBox="0 0 32 32" fill="none" stroke="#000" stroke-linejoin="round"><path d="M18.589 5.22C13.976 2.229 7.813 3.544 4.822 8.157S3.147 18.933 7.76 21.923s10.776 1.675 13.766-2.937m-1.314 1.624l8.568 8.568m-.871-26.356h-3.405a.732.732 0 00-.73.73v3.405c0 .401.328.73.73.73h3.405c.401 0 .73-.328.73-.73V3.552a.732.732 0 00-.73-.73zM16.463 8.649h-3.405a.732.732 0 00-.73.73v3.405c0 .401.328.73.73.73h3.405c.401 0 .73-.328.73-.73V9.378a.732.732 0 00-.73-.729zm11.421 5.829H24.48a.732.732 0 00-.73.73v3.405c0 .401.328.73.73.73h3.405c.401 0 .73-.328.73-.73v-3.405a.733.733 0 00-.731-.73zm-10.691-3.32h3.137V5.86c0-.335.271-.606.606-.606h2.839M23.75 16.91h-2.815a.605.605 0 01-.605-.605v-5.147h-3.137"/></svg>