<svg stroke="#000" fill="none" xmlns="http://www.w3.org/2000/svg" viewBox="0 0 32 32"><defs><clipPath id="a"><path fill="#fff" d="M32 0H0v32h13V20.952L15.023 18a7.595 7.595 0 0115.142 0L32 20.952V0z"/></clipPath></defs><g stroke-linejoin="round"><path d="M29.354 21.331H15.645v9.628h13.709v-9.628zM22.5 28.088v-2.755m-4.594-4.002v-2.696a4.594 4.594 0 019.188 0v2.696m-5.814 4.002h2.44"/><path clip-path="url(#a)" d="M15.75 2l12 7v14l-12 7-12-7V9l12-7zm-.25 28V16m-2.252 1.372L3.5 23M27.748 9L23 12l-7.376 4m2.489 1.508L27.624 23M3.5 9l12.124 7m-.124-2.506V2"/></g></svg>