<svg xmlns="http://www.w3.org/2000/svg" viewBox="0 0 32 32" fill="none" stroke="#000" stroke-linejoin="round" stroke-miterlimit="10"><path class="text" fill="#000" d="M12.94 24.179h-2.336v1.75h2.73v.789H9.616V21.03h3.691v.797h-2.703v1.57h2.336v.782zm3.157-1.094l1.195-2.055h1.141l-1.719 2.82 1.758 2.867H17.32l-1.223-2.086-1.227 2.086h-1.148l1.762-2.867-1.723-2.82h1.141l1.195 2.055zm6.429 1.094H20.19v1.75h2.73v.789h-3.719V21.03h3.691v.797H20.19v1.57h2.336v.782z" stroke="none"/><path d="M21.156 2.5l5.423 5.423h-5.423zm5.423 27H5.421v-27h15.735l5.423 5.423zM13 2.775v11.363m0-3.558h1.936M13 7.488h1.936M13 4.396h1.936m-3.872 7.73H13m-1.936-3.092H13m-1.936-3.092H13m-1.936 8.196v2.357c0 .557.867 1.009 1.936 1.009s1.936-.452 1.936-1.009v-2.357h-3.872z"/></svg>