<svg viewBox="0 0 32 32" fill="none" stroke="#000" stroke-linejoin="round" xmlns="http://www.w3.org/2000/svg"><path d="M19.24 12.361V4.415c0-1.1-.9-1.999-1.999-1.999H5.243A2.008 2.008 0 003.24 4.419v12c0 1.098.9 1.997 1.997 1.997h3.688m8.39 2.984h3.136m0 0v-5.297c0-.335.271-.606.606-.606h2.84M20.45 21.4v5.147a.605.605 0 00.605.605h2.815m4.16-14.088h-3.405a.732.732 0 00-.73.73v3.405c0 .401.328.73.73.73h3.405c.401 0 .73-.328.73-.73v-3.405a.733.733 0 00-.73-.73zm-11.447 5.827H13.18a.732.732 0 00-.73.73v3.405c0 .401.328.73.73.73h3.405c.401 0 .73-.328.73-.73V19.62a.732.732 0 00-.73-.729zm11.422 5.829h-3.405a.732.732 0 00-.73.73v3.405c0 .401.328.73.73.73h3.405c.401 0 .73-.328.73-.73V25.45a.733.733 0 00-.73-.73zM7.1 14.4L15.5 6m-5.4 0h5.4v5.4"/></svg>