<svg xmlns="http://www.w3.org/2000/svg" viewBox="0 0 32 32" fill="none" stroke="#000" stroke-linejoin="round" stroke-miterlimit="10"><path d="M5.18 20.65v-4.39m4.33 4.39v-6.84m4.33 6.84v-9.29m4.32 9.29V8.91m4.33 11.74V6.46m4.33 14.19V4"/><path class="text" fill="#000" d="M4.16 23.23l1.64 4.36 1.64-4.36h1.28v5.69h-.99v-1.88l.1-2.51-1.68 4.38h-.71l-1.68-4.38.1 2.5v1.88h-.98v-5.69h1.28zm6.77 5.68h-.99v-5.69h.98v5.69zm5.72 0h-.99l-2.54-4.04v4.04h-.99v-5.69h.99l2.54 4.05v-4.05h.98v5.69z" stroke="none"/></svg>