<svg xmlns="http://www.w3.org/2000/svg" viewBox="0 0 32 32" fill="none" stroke="#000" stroke-linejoin="round"><path d="M25.975 10.925H22.57a.732.732 0 00-.73.73v3.405c0 .401.328.73.73.73h3.405c.401 0 .73-.328.73-.73v-3.405a.732.732 0 00-.73-.73zm-11.446 5.827h-3.405a.732.732 0 00-.73.73v3.405c0 .401.328.73.73.73h3.405c.401 0 .73-.328.73-.73v-3.405a.732.732 0 00-.73-.73zm11.422 5.829h-3.405a.732.732 0 00-.73.73v3.405c0 .401.328.73.73.73h3.405c.401 0 .73-.328.73-.73v-3.405a.733.733 0 00-.73-.73zm-10.692-3.32h3.137v-5.297c0-.335.271-.606.606-.606h2.839m-.025 11.655h-2.815a.605.605 0 01-.605-.605v-5.147h-3.137m1-5.559H2.484V4.554h27.032v9.148"/><path d="M5.331 7.912h2.432v2.432H5.331zm20.751.2V6.961 9.112zm-2 0V6.961 9.112zm-2 0V6.961 9.112zm-2 1.016V6.961v4.167zm-2 0V6.961v4.167zm-2 0V6.961v4.167z"/></svg>