<svg xmlns="http://www.w3.org/2000/svg" viewBox="0 0 32 32" fill="none" stroke="#000"><circle cx="16" cy="22.358" r="2.833"/><path d="M2 20.809c0-7.732 6.268-14 14-14s14 6.268 14 14"/><line x1="23.968" y1="17.059" x2="18.358" y2="20.789"/><line stroke-linecap="square" transform="rotate(2 -580.225 164.858) scale(1.3)"/><line stroke-linecap="square" transform="rotate(18 -51.98 27.326) scale(1.3)"/><line stroke-linecap="square" transform="rotate(34 -20.473 19.314) scale(1.3)"/><line stroke-linecap="square" transform="rotate(50 -8.807 16.247) scale(1.3)"/><line stroke-linecap="square" transform="rotate(66 -2.544 14.624) scale(1.3)"/><line stroke-linecap="square" transform="rotate(82 1.45 13.634) scale(1.3)"/><line stroke-linecap="square" transform="rotate(98 4.376 12.89) scale(1.3)"/><line stroke-linecap="square" transform="rotate(114 6.663 12.289) scale(1.3)"/><line stroke-linecap="square" transform="rotate(132 8.653 11.581) scale(1.3)"/><line stroke-linecap="square" transform="rotate(148 10.328 11.16) scale(1.3)"/><line stroke-linecap="square" transform="rotate(164 11.867 10.795) scale(1.3)"/><line stroke-linecap="square" transform="matrix(-1.3 0 0 -1.3 26.7 20.9)"/></svg>