<svg xmlns="http://www.w3.org/2000/svg" viewBox="0 0 32 32" fill="none" stroke="#000" stroke-linejoin="round"><path d="M14.735 17.131l6.473 3.737-5.59 9.683-6.473-3.737z"/><path d="M15.372 21.647l1.414.817m.334-6.36a2.695 2.695 0 013.301 1.906m-3.995-4.498a5.378 5.378 0 016.587 3.803m-7.297-6.452a8.12 8.12 0 019.946 5.743m-2.386 4.779a7.266 7.266 0 006.36-7.209 7.271 7.271 0 00-7.273-7.273c-.154 0-.309.009-.463.027-1.119-3.191-4.146-5.481-7.718-5.481A8.183 8.183 0 006 9.631c0 .409.037.8.101 1.191a5.447 5.447 0 00-3.738 5.172 5.461 5.461 0 005.455 5.455h.913"/></svg>