<svg xmlns="http://www.w3.org/2000/svg" viewBox="0 0 32 32" fill="none" stroke="#000" stroke-linejoin="round"><path d="M7.794 12h-5.6c-.66 0-1.2.54-1.2 1.2v5.6c0 .66.54 1.2 1.2 1.2h5.6c.66 0 1.2-.54 1.2-1.2v-5.6c0-.66-.54-1.2-1.2-1.2zm-6.473.38l7.293 7.293M25.306 12h-5.6c-.66 0-1.2.54-1.2 1.2v5.6c0 .66.54 1.2 1.2 1.2h5.6c.66 0 1.2-.54 1.2-1.2v-5.6c0-.66-.54-1.2-1.2-1.2zm-10.772 4.126h-5.54"/><circle cx="22.506" cy="16" stroke-dasharray=".9703 3.8811" transform="rotate(-65.847 22.505 16)" r="8.498"/></svg>