<svg xmlns="http://www.w3.org/2000/svg" viewBox="0 0 32 32" stroke="#000" fill="none" stroke-linejoin="round"><circle cx="11.614" cy="11.703" r="4.213"/><circle cx="24.311" cy="22.76" r="1.466"/><path d="M17.869 7.734l1.149-1.525-1.974-1.958-1.53 1.165-2.261-.926-.232-1.899-2.821.001-.247 1.9-2.301.955L6.13 4.29 4.179 6.249l1.164 1.49-.968 2.305-1.871.237-.004 2.817 1.863.232.955 2.307-1.124 1.54 1.976 1.968 1.523-1.149 2.267.931.244 1.887h2.822l.252-1.892 2.281-.948 1.544 1.137 1.961-1.975-1.156-1.515.94-2.272 1.879-.246-.004-2.825-1.885-.247zm9.95 12.679l.676-.897-1.161-1.152-.9.686-1.33-.545-.137-1.117h-1.659l-.145 1.118-1.354.562-.895-.681-1.148 1.153.685.876-.57 1.356-1.1.139-.003 1.657 1.097.137.561 1.357-.661.906 1.162 1.157.896-.676 1.334.548.143 1.11h1.66l.148-1.113 1.342-.557.909.668 1.153-1.161-.68-.892.553-1.336 1.105-.145-.002-1.661-1.109-.146zm-2.587-6.157a14.5 14.5 0 00.089-1.623c0-4.191-1.765-7.97-4.593-10.634m1.777 9.809l2.727 2.448 2.509-2.769M14.452 22.534a8.808 8.808 0 003.709 6.968m-.995-5.341l-2.805-1.897-1.947 2.851"/></svg>