<svg xmlns="http://www.w3.org/2000/svg" viewBox="0 0 32 32" fill="none" stroke="#000" stroke-width="1.4"><path stroke-linejoin="round" d="M19.5 3h-7c-.825 0-1.5.675-1.5 1.5v7c0 .825.675 1.5 1.5 1.5h7c.825 0 1.5-.675 1.5-1.5v-7c0-.825-.675-1.5-1.5-1.5zm0 16h-7c-.825 0-1.5.675-1.5 1.5v7c0 .825.675 1.5 1.5 1.5h7c.825 0 1.5-.675 1.5-1.5v-7c0-.825-.675-1.5-1.5-1.5zM16 19v-6m-4.559-9.559l9.118 9.118m-9.118 6.882l9.118 9.118"/><line stroke-linecap="square" transform="matrix(2 0 0 2 8 28.5)"/><line stroke-linecap="square" transform="matrix(2 0 0 2 8 23.5)"/><line stroke-linecap="square" transform="matrix(2 0 0 2 8 18.5)"/><line stroke-linecap="square" transform="matrix(2 0 0 2 8 13.5)"/><line stroke-linecap="square" transform="matrix(2 0 0 2 8 8.5)"/><line stroke-linecap="square" transform="matrix(2 0 0 2 8 3.5)"/><line stroke-linecap="square" transform="matrix(2 0 0 2 24 28.5)"/><line stroke-linecap="square" transform="matrix(2 0 0 2 24 23.5)"/><line stroke-linecap="square" transform="matrix(2 0 0 2 24 18.5)"/><line stroke-linecap="square" transform="matrix(2 0 0 2 24 13.5)"/><line stroke-linecap="square" transform="matrix(2 0 0 2 24 8.5)"/><line stroke-linecap="square" transform="matrix(2 0 0 2 24 3.5)"/></svg>