<svg xmlns="http://www.w3.org/2000/svg" viewBox="0 0 32 32" stroke="#000" stroke-linejoin="round" fill="none"><path d="M20.692 22.299c.002 2.177 1.399 4.101 3.381 4.755.993.328 2.018.484 3.058.529.742.032 1.484-.02 2.17-.362.539-.269.793-.714.769-1.307-.024-.597-.292-1.043-.862-1.28-.198-.082-.4-.15-.61-.186-.629-.112-1.262-.207-1.888-.331-1.034-.206-1.467-.753-1.481-1.798-.012-.925.239-1.797.523-2.659.52-1.579 1.222-3.084 1.894-4.602.649-1.465 1.33-2.919 1.788-4.462.253-.848.373-1.697.143-2.574-.349-1.33-1.147-2.222-2.522-2.479-1.259-.234-2.511-.261-3.65.49-.378.249-.742.189-1.071-.101-.251-.22-.49-.454-.735-.68-1.161-1.072-2.696-1.124-3.942-.146-.503.395-.926.885-1.472 1.228-.488.307-.98.394-1.521.105-.515-.275-1.048-.516-1.58-.757-.539-.243-1.061-.544-1.667-.595-1.918-.163-3.925.977-4.771 2.71-.376.766-.682 1.563-.973 2.364-1.342 3.706-2.435 7.492-3.567 11.264-.507 1.688.091 3.35 1.521 4.262 1.115.711 2.337.887 3.601.507 1.024-.308 1.585-1.133 1.977-2.059 1.303-3.073 2.476-6.198 3.718-9.295.342-.852.673-1.708 1.035-2.551.366-.851 1.418-1.141 2.042-.577.381.345.481.803.444 1.294-.041.524-.244 1.008-.435 1.489-.808 2.043-1.631 4.08-2.443 6.121-.164.413-.342.822-.414 1.265-.124.761.177 1.435.799 1.704.635.274 1.294.32 1.952.081.766-.278 1.224-.877 1.576-1.57 1.212-2.379 2.414-4.764 3.624-7.143a318.992 318.992 0 011.7-3.286c.212-.405.461-.789.858-1.04.358-.227.744-.243 1.111-.037.358.201.382.567.367.929a1.689 1.689 0 01-.137.565c-.157.376-.304.758-.478 1.126-1.007 2.118-2.029 4.229-3.027 6.352-.419.894-.857 1.795-.805 2.737z"/></svg>