<svg xmlns="http://www.w3.org/2000/svg" viewBox="0 0 32 32" stroke="#000" stroke-linejoin="round" fill="none"><path d="M28.783 8.246c-.758-1.348-1.58-1.596-3.255-1.69-1.673-.114-5.88-.161-9.525-.161-3.652 0-7.86.047-9.532.159-1.67.096-2.495.342-3.26 1.692-.781 1.346-1.182 3.666-1.182 7.749V16.008c0 4.066.402 6.402 1.182 7.735.765 1.348 1.587 1.593 3.259 1.706 1.673.098 5.882.155 9.533.155 3.645 0 7.852-.058 9.526-.154 1.675-.114 2.497-.358 3.255-1.706.788-1.332 1.186-3.669 1.186-7.735V16v-.005c.001-4.083-.397-6.402-1.187-7.749zM12.507 21.239V10.761L21.239 16z"/></svg>