<svg xmlns="http://www.w3.org/2000/svg" viewBox="0 0 32 32" fill="none" stroke="#000" stroke-linejoin="round"><path d="M6 7.7c-2.1 0-3.8 1.7-3.8 3.8 0 1.1.5 2.1 1.3 2.8.7.6 1.5 1 2.5 1s1.8-.4 2.5-1c.8-.7 1.3-1.7 1.3-2.8 0-2.1-1.7-3.8-3.8-3.8zm11-4.5c-1.1 0-2 .8-2.1 1.8v.3c0 .9.5 1.7 1.3 2 .3.1.6.2.9.2 1.2 0 2.2-1 2.2-2.2-.1-1.1-1.1-2.1-2.3-2.1zm1.821 3.456L23.5 15.2l-1.9 1-4.779-8.727L21.6 16.2l-.2 1.9-2.1 1.2.9 3.4 3.6.2m-.3-7.7l1.7.8 2.1-1.1 2.4 2.5-1.7 3.2M4.4 9.9l3.3 3.3m0-3.3l-3.3 3.3m5.3-.8l6.509-5.089M14.9 5.06L7.4 8m-3.9 6.3l-1 14.4h7l-1-14.4"/></svg>