<svg xmlns="http://www.w3.org/2000/svg" viewBox="0 0 32 32" fill="none" stroke="#000" stroke-linejoin="round"><path d="M20.616 10.956h-2.05a.44.44 0 00-.439.439v2.05a.44.44 0 00.439.439h2.05a.44.44 0 00.439-.439v-2.05a.44.44 0 00-.439-.439zm-6.891 3.508h-2.05a.44.44 0 00-.439.439v2.05a.44.44 0 00.439.439h2.05a.44.44 0 00.439-.439v-2.05a.44.44 0 00-.439-.439zm6.876 3.509h-2.05a.44.44 0 00-.439.439v2.05a.44.44 0 00.439.439h2.05a.44.44 0 00.439-.439v-2.05a.44.44 0 00-.439-.439zm-6.437-1.999h1.888v-3.189c0-.202.163-.365.365-.365h1.71m-.015 7.018h-1.695a.364.364 0 01-.364-.364v-3.099h-1.888m8.266 6.292l1.195 1.196M8.295 8.131l4.02 4.02m10.116-3.095L23.6 7.887M8.024 23.463l3.06-3.06M8.2 27.038a13.484 13.484 0 0011.07 2.076 13.482 13.482 0 004.377-1.965M4.949 8.218A13.487 13.487 0 002.886 19.27a13.479 13.479 0 001.805 4.138M23.32 4.638a13.477 13.477 0 00-10.589-1.752 13.515 13.515 0 00-4.238 1.871m18.708 18.807a13.48 13.48 0 001.913-10.833 13.476 13.476 0 00-2.156-4.648"/><circle cx="25.364" cy="6.123" r="2.53"/><circle cx="6.55" cy="6.306" r="2.53"/><circle cx="25.364" cy="25.298" r="2.53"/><circle cx="6.367" cy="25.298" r="2.53"/></svg>