<svg xmlns="http://www.w3.org/2000/svg" viewBox="0 0 32 32" fill="none" stroke="#000" stroke-linejoin="round"><path d="M27.5 3.214h-7c-.825 0-1.5.675-1.5 1.5v7c0 .825.675 1.5 1.5 1.5h7c.825 0 1.5-.675 1.5-1.5v-7c0-.825-.675-1.5-1.5-1.5zm-16 15.572h-7c-.825 0-1.5.675-1.5 1.5v7c0 .825.675 1.5 1.5 1.5h7c.825 0 1.5-.675 1.5-1.5v-7c0-.825-.675-1.5-1.5-1.5zm6.996-.068l4.879 4.879m-1.006-4.613A10.962 10.962 0 0024 13.214M12.991 24.223c2.116 0 4.092-.597 5.77-1.632m-15.32-3.364l9.118 9.118m6.882-24.69l9.118 9.118"/></svg>