<svg stroke="#000" stroke-linejoin="round" fill="none" xmlns="http://www.w3.org/2000/svg" viewBox="0 0 32 32"><path d="M20.294 1.465h-4.122a.885.885 0 00-.883.883V6.47c0 .486.397.883.883.883h4.122a.885.885 0 00.883-.883V2.348a.886.886 0 00-.883-.883zM6.437 8.519H2.315a.885.885 0 00-.883.883v4.122c0 .486.397.883.883.883h4.122a.885.885 0 00.883-.883V9.402a.884.884 0 00-.883-.883zm.884 3.037h3.797V5.143c0-.405.329-.734.734-.734h3.437m-1.84 14.11H11.85a.733.733 0 01-.733-.733v-6.231H7.321m17.913 17.98v-8.667c0-.55-.45-1-1-1h-8.667c-.55 0-1 .45-1 1v8.667c0 .55.45 1 1 1h8.667c.55 0 1-.45 1-1zm1.667-1.667c.55 0 1-.45 1-1v-8.667c0-.55-.45-1-1-1h-8.667c-.55 0-1 .45-1 1m12.334 7c.55 0 1-.45 1-1v-8.667c0-.55-.45-1-1-1h-8.667c-.55 0-1 .45-1 1m-4.862 4.805l9.725 9.725"/></svg>