<svg xmlns="http://www.w3.org/2000/svg" viewBox="0 0 32 32"
    fill="none" stroke="#000" stroke-linejoin="round">
  <path  d="M7.794 12h-5.6c-.66 0-1.2.54-1.2 1.2v5.6c0 .66.54 1.2 1.2 1.2h5.6c.66 0 1.2-.54 1.2-1.2v-5.6c0-.66-.54-1.2
  -1.2-1.2zM1.321 12.38l7.293 7.293M25.306 12h-5.6c-.66 0-1.2.54-1.2 1.2v5.6c0 .66.54 1.2 1.2 1.2h5.6c.66 0 1.2-.54 1.2
  -1.2v-5.6c0-.66-.54-1.2-1.2-1.2zM14.534 16.126h-5.54"/>
  <ellipse cx="22.506" cy="16" stroke-dasharray=".9703 3.8811" rx="8.498" ry="8.498" transform="matrix(.4092 -.9125
  .9125 .4092 -1.3021 29.9892)"/>
</svg>
