<svg xmlns="http://www.w3.org/2000/svg" fill="none" stroke="#000" stroke-linejoin="round"
    viewBox="0 0 32 32">
  <path fill="#000" stroke="none" d="M10.233 24.29v2.031h-.951v-5.477h2.095c.612 0 1.098.159 1.458.478s.54.741.54
  1.266c0 .537-.176.955-.529 1.254-.352.299-.846.448-1.48.448h-1.133zm0-.768h1.144c.338 0 .597-.079.775-.238s.267-.39
  .267-.69c0-.296-.09-.532-.271-.709-.18-.177-.429-.268-.745-.273h-1.17v1.91zm3.972 2.799v-5.477h1.618c.484 0 .913.107
  1.288.323s.665.521.871.918.309.85.309 1.361v.274c0 .52-.104.976-.311 1.369-.207.395-.501.697-.884.911-.382.213-.82.319
  -1.314.319h-1.577v.002zm.952-4.71v3.95h.621c.499 0 .882-.156 1.149-.469.267-.312.402-.76.408-1.345v-.305c0-.594-.13
  -1.048-.388-1.361-.258-.313-.633-.471-1.125-.471l-.665.001zM22.395 24H20.19v2.321h-.951v-5.477h3.479v.767H20.19v1
  .629h2.205V24z" class="text"/>
  <path d="M26.187 29H5.813V3h15.152l5.222 5.222V29zm0-20.778h-5.222V3"/>
</svg>
