<svg xmlns="http://www.w3.org/2000/svg" viewBox="0 0 32 32" stroke="#000" stroke-linejoin="round" fill="none">
<path d="M20.692,22.299
	c0.002,2.177,1.399,4.101,3.381,4.755c0.993,0.328,2.018,0.484,3.058,0.529c0.742,0.032,1.484-0.02,2.17-0.362
	c0.539-0.269,0.793-0.714,0.769-1.307c-0.024-0.597-0.292-1.043-0.862-1.28c-0.198-0.082-0.4-0.15-0.61-0.186
	c-0.629-0.112-1.262-0.207-1.888-0.331c-1.034-0.206-1.467-0.753-1.481-1.798c-0.012-0.925,0.239-1.797,0.523-2.659
	c0.52-1.579,1.222-3.084,1.894-4.602c0.649-1.465,1.33-2.919,1.788-4.462c0.253-0.848,0.373-1.697,0.143-2.574
	c-0.349-1.33-1.147-2.222-2.522-2.479c-1.259-0.234-2.511-0.261-3.65,0.49c-0.378,0.249-0.742,0.189-1.071-0.101
	c-0.251-0.22-0.49-0.454-0.735-0.68c-1.161-1.072-2.696-1.124-3.942-0.146c-0.503,0.395-0.926,0.885-1.472,1.228
	c-0.488,0.307-0.98,0.394-1.521,0.105c-0.515-0.275-1.048-0.516-1.58-0.757c-0.539-0.243-1.061-0.544-1.667-0.595
	C9.499,4.924,7.492,6.064,6.646,7.797C6.27,8.563,5.964,9.36,5.673,10.161c-1.342,3.706-2.435,7.492-3.567,11.264
	c-0.507,1.688,0.091,3.35,1.521,4.262c1.115,0.711,2.337,0.887,3.601,0.507c1.024-0.308,1.585-1.133,1.977-2.059
	c1.303-3.073,2.476-6.198,3.718-9.295c0.342-0.852,0.673-1.708,1.035-2.551c0.366-0.851,1.418-1.141,2.042-0.577
	c0.381,0.345,0.481,0.803,0.444,1.294c-0.041,0.524-0.244,1.008-0.435,1.489c-0.808,2.043-1.631,4.08-2.443,6.121
	c-0.164,0.413-0.342,0.822-0.414,1.265c-0.124,0.761,0.177,1.435,0.799,1.704c0.635,0.274,1.294,0.32,1.952,0.081
	c0.766-0.278,1.224-0.877,1.576-1.57c1.212-2.379,2.414-4.764,3.624-7.143c0.559-1.099,1.128-2.193,1.7-3.286
	c0.212-0.405,0.461-0.789,0.858-1.04c0.358-0.227,0.744-0.243,1.111-0.037c0.358,0.201,0.382,0.567,0.367,0.929
	c-0.008,0.194-0.063,0.384-0.137,0.565c-0.157,0.376-0.304,0.758-0.478,1.126c-1.007,2.118-2.029,4.229-3.027,6.352
	C21.078,20.456,20.64,21.357,20.692,22.299z"/>
</svg>
