<svg version="1.1" stroke="#000" stroke-linejoin="round" fill="none" xmlns="http://www.w3.org/2000/svg" viewBox="0 0 32 32">
  <path d="M20.294,1.465h-4.122c-0.486,0-0.883,0.397-0.883,0.883V6.47c0,0.486,0.397,0.883,0.883,0.883h4.122c0.486,0,
  0.883-0.397,0.883-0.883V2.348C21.177,1.863,20.779,1.465,20.294,1.465zM6.437,8.519H2.315c-0.486,0-0.883,0.397-0.883,
  0.883v4.122c0,0.486,0.397,0.883,0.883,0.883h4.122c0.486,0,0.883-0.397,0.883-0.883V9.402C7.321,8.916,6.923,8.519,6.437,
  8.519zM7.321,11.556h3.797V5.143c0-0.405,0.329-0.734,0.734-0.734h3.437M13.449,18.519H11.85c-0.405,0-0.733-0.328-0.733
  -0.733v-6.231H7.321M25.234,29.535v-8.667c0-0.55-0.45-1-1-1h-8.667c-0.55,0-1,0.45-1,1v8.667c0,0.55,0.45,1,1,1h8
  .667C24.784,30.535,25.234,30.085,25.234,29.535zM26.901,27.868c0.55,0,1-0.45,1-1v-8.667c0-0.55-0.45-1-1-1h-8.667c-0.55,
  0-1,0.45-1,1M29.568,25.201c0.55,0,1-0.45,1-1v-8.667c0-0.55-0.45-1-1-1h-8.667c-0.55,0-1,0.45-1,1M15.039,20.339L24.764,
  30.064"/>
</svg>
